<?xml version="1.0" encoding="UTF-8" standalone="no"?>
<svg
   xmlns:dc="http://purl.org/dc/elements/1.1/"
   xmlns:cc="http://creativecommons.org/ns#"
   xmlns:rdf="http://www.w3.org/1999/02/22-rdf-syntax-ns#"
   xmlns:svg="http://www.w3.org/2000/svg"
   xmlns="http://www.w3.org/2000/svg"
   xmlns:sodipodi="http://sodipodi.sourceforge.net/DTD/sodipodi-0.dtd"
   xmlns:inkscape="http://www.inkscape.org/namespaces/inkscape"
   width="19.380000000000003mm"
   height="15.58mm"
   viewBox="0 0 19.380000000000003 15.58"
   version="1.1"
   id="svg29"
   sodipodi:docname="Relay_SPDT_Finder_36.11.svg"
   inkscape:version="1.0.2 (e86c870879, 2021-01-15)">
  <metadata
     id="metadata35">
    <rdf:RDF>
      <cc:Work
         rdf:about="">
        <dc:format>image/svg+xml</dc:format>
        <dc:type
           rdf:resource="http://purl.org/dc/dcmitype/StillImage" />
      </cc:Work>
    </rdf:RDF>
  </metadata>
  <defs
     id="defs33" />
  <sodipodi:namedview
     pagecolor="#ffffff"
     bordercolor="#666666"
     borderopacity="1"
     objecttolerance="10"
     gridtolerance="10"
     guidetolerance="10"
     inkscape:pageopacity="0"
     inkscape:pageshadow="2"
     inkscape:window-width="1366"
     inkscape:window-height="713"
     id="namedview31"
     showgrid="false"
     inkscape:zoom="3.2782546"
     inkscape:cx="68.458955"
     inkscape:cy="10.201012"
     inkscape:window-x="0"
     inkscape:window-y="0"
     inkscape:window-maximized="1"
     inkscape:current-layer="svg29"
     inkscape:document-rotation="0" />
  <g
     id="Shape2DView"
     transform="matrix(1,0,0,-1,1.59,7.79)"
     style="stroke-width:0.0926042;stroke-miterlimit:4;stroke-dasharray:none;fill:#cccccc">
    <path
       id="Shape2DView_nwe0001"
       d="m 17.6,7.35 v -14.7 0 c 0,-0.1380712 -0.111929,-0.25 -0.25,-0.25 v 0 h -18.5 v 0 c -0.1380712,0 -0.25,0.1119288 -0.25,0.25 v 0 14.7 0 c 0,0.1380712 0.1119288,0.25 0.25,0.25 v 0 h 18.5 v 0 c 0.138071,0 0.25,-0.1119288 0.25,-0.25 z"
       stroke="#191919"
       stroke-width="0.35 px"
       style="fill:#666666;fill-opacity:1;fill-rule:evenodd;stroke-width:0.0926042;stroke-miterlimit:4;stroke-dasharray:none"
       sodipodi:nodetypes="ccccccccccccccccc" />
    <path
       id="Shape2DView_nwe0009"
       d="m -1.15,7.35 h 18.5 v 0 -14.7 0 h -18.5 v 0 z"
       stroke="#191919"
       stroke-width="0.35 px"
       style="fill:#cccccc;fill-opacity:1;fill-rule:evenodd;stroke-width:0.0926042;stroke-miterlimit:4;stroke-dasharray:none"
       sodipodi:nodetypes="ccccccccc" />
    <path
       id="Shape2DView_nwe0010"
       d="M 17.35,7.35 V 7.377991 7.40563 7.43257 7.458471 7.483008 7.505872 7.526776 7.545457 7.56168 7.575241 7.58597 7.59373 7.59843 7.6"
       stroke="#191919"
       stroke-width="0.35 px"
       style="fill:#cccccc;fill-opacity:1;fill-rule:evenodd;stroke-width:0.0926042;stroke-miterlimit:4;stroke-dasharray:none" />
    <path
       id="Shape2DView_nwe0011"
       d="M -1.15,7.35 V 7.377991 7.40563 7.43257 7.458471 7.483008 7.505872 7.526776 7.545457 7.56168 7.575241 7.58597 7.59373 7.59843 7.6"
       stroke="#191919"
       stroke-width="0.35 px"
       style="fill:#cccccc;fill-opacity:1;fill-rule:evenodd;stroke-width:0.0926042;stroke-miterlimit:4;stroke-dasharray:none" />
    <path
       id="Shape2DView_nwe0014"
       d="m 17.35,-7.35 h 0.02799 0.02764 0.02694 0.0259 0.02454 0.02286 0.0209 0.01868 0.01622 0.01356 0.01073 0.0078 0.0047 0.0016"
       stroke="#191919"
       stroke-width="0.35 px"
       style="fill:#cccccc;fill-opacity:1;fill-rule:evenodd;stroke-width:0.0926042;stroke-miterlimit:4;stroke-dasharray:none" />
    <path
       id="Shape2DView_nwe0015"
       d="m 17.35,7.35 h 0.02799 0.02764 0.02694 0.0259 0.02454 0.02286 0.0209 0.01868 0.01622 0.01356 0.01073 0.0078 0.0047 0.0016"
       stroke="#191919"
       stroke-width="0.35 px"
       style="fill:#cccccc;fill-opacity:1;fill-rule:evenodd;stroke-width:0.0926042;stroke-miterlimit:4;stroke-dasharray:none" />
    <path
       id="Shape2DView_nwe0018"
       d="M -1.15,7.35 H -1.177991 -1.20563 -1.23257 -1.258471 -1.283008 -1.305873 -1.326777 -1.345458 -1.361681 -1.375242 -1.385971 -1.393731 -1.398431 -1.4"
       stroke="#191919"
       stroke-width="0.35 px"
       style="fill:#cccccc;fill-opacity:1;fill-rule:evenodd;stroke-width:0.0926042;stroke-miterlimit:4;stroke-dasharray:none" />
    <path
       id="Shape2DView_nwe0019"
       d="M -1.15,-7.35 H -1.177991 -1.20563 -1.23257 -1.258471 -1.283008 -1.305873 -1.326777 -1.345458 -1.361681 -1.375242 -1.385971 -1.393731 -1.398431 -1.4"
       stroke="#191919"
       stroke-width="0.35 px"
       style="fill:#cccccc;fill-opacity:1;fill-rule:evenodd;stroke-width:0.0926042;stroke-miterlimit:4;stroke-dasharray:none" />
    <path
       id="Shape2DView_nwe0022"
       d="M -1.15,-7.35 V -7.377991 -7.40563 -7.43257 -7.458471 -7.483008 -7.505872 -7.526776 -7.545457 -7.56168 -7.575241 -7.58597 -7.59373 -7.59843 -7.6"
       stroke="#191919"
       stroke-width="0.35 px"
       style="fill:#cccccc;fill-opacity:1;fill-rule:evenodd;stroke-width:0.0926042;stroke-miterlimit:4;stroke-dasharray:none" />
    <path
       id="Shape2DView_nwe0023"
       d="M 17.35,-7.35 V -7.377991 -7.40563 -7.43257 -7.458471 -7.483008 -7.505872 -7.526776 -7.545457 -7.56168 -7.575241 -7.58597 -7.59373 -7.59843 -7.6"
       stroke="#191919"
       stroke-width="0.35 px"
       style="fill:#cccccc;fill-opacity:1;fill-rule:evenodd;stroke-width:0.0926042;stroke-miterlimit:4;stroke-dasharray:none" />
    <title
       id="title22">b'Shape2DView'</title>
  </g>
  <g
     id="Rectangle"
     transform="matrix(1,0,0,-1,1.59,7.79)"
     style="stroke-width:0.0926042;stroke-miterlimit:4;stroke-dasharray:none">
    <rect
       fill="#ff0000"
       id="origin"
       width="1"
       height="1"
       x="0"
       y="0"
       style="stroke-width:0.0926042;stroke-miterlimit:4;stroke-dasharray:none" />
    <title
       id="title26">b'Rectangle'</title>
  </g>
</svg>
