<?xml version="1.0" encoding="UTF-8" standalone="no"?>
<svg
   xmlns:dc="http://purl.org/dc/elements/1.1/"
   xmlns:cc="http://creativecommons.org/ns#"
   xmlns:rdf="http://www.w3.org/1999/02/22-rdf-syntax-ns#"
   xmlns:svg="http://www.w3.org/2000/svg"
   xmlns="http://www.w3.org/2000/svg"
   xmlns:sodipodi="http://sodipodi.sourceforge.net/DTD/sodipodi-0.dtd"
   xmlns:inkscape="http://www.inkscape.org/namespaces/inkscape"
   width="5.687881525790008mm"
   height="1.9115270887409805mm"
   viewBox="0 0 5.687881525790008 1.9115270887409805"
   version="1.1"
   id="svg35"
   sodipodi:docname="R_Axial_DIN0204_L3.6mm_D1.6mm_P5.08mm_Horizontal.svg"
   inkscape:version="1.0.2 (e86c870879, 2021-01-15)">
  <metadata
     id="metadata41">
    <rdf:RDF>
      <cc:Work
         rdf:about="">
        <dc:format>image/svg+xml</dc:format>
        <dc:type
           rdf:resource="http://purl.org/dc/dcmitype/StillImage" />
      </cc:Work>
    </rdf:RDF>
  </metadata>
  <defs
     id="defs39" />
  <sodipodi:namedview
     pagecolor="#ffffff"
     bordercolor="#666666"
     borderopacity="1"
     objecttolerance="10"
     gridtolerance="10"
     guidetolerance="10"
     inkscape:pageopacity="0"
     inkscape:pageshadow="2"
     inkscape:window-width="1366"
     inkscape:window-height="713"
     id="namedview37"
     showgrid="false"
     inkscape:zoom="32"
     inkscape:cx="11.34402"
     inkscape:cy="1.2971988"
     inkscape:window-x="0"
     inkscape:window-y="0"
     inkscape:window-maximized="1"
     inkscape:current-layer="svg35" />
  <g
     id="Rectangle"
     transform="translate(0.303941,1.055764) scale(1,-1)"
     style="stroke-width:0.09260417;stroke-miterlimit:4;stroke-dasharray:none">
    <rect
       fill="#ff0000"
       id="origin"
       width="1"
       height="1"
       x="0"
       y="0"
       style="stroke-width:0.09260417;stroke-miterlimit:4;stroke-dasharray:none" />
    <title
       id="title32">b'Rectangle'</title>
  </g>
  <g
     id="Shape2DView"
     transform="matrix(1,0,0,-1,0.303941,1.055764)"
     style="display:inline;fill:#ffaaaa;stroke-width:0.0926042;stroke-miterlimit:4;stroke-dasharray:none">
    <path
       id="Shape2DView_nwe0015"
       d="M 1.14,0.8 V 0.77994233 0.72077509 0.62546519 0.49879184 0.34710699 0.17801675 0 -0.17801675 -0.34710699 -0.49879184 -0.62546519 -0.72077509 -0.77994233 -0.8"
       stroke="#191919"
       stroke-width="0.35 px"
       style="fill:#ffaaaa;fill-opacity:1;fill-rule:evenodd;stroke-width:0.0926042;stroke-miterlimit:4;stroke-dasharray:none" />
    <path
       id="Shape2DView_nwe0016"
       d="M 3.94,0.8 V 0.77994233 0.72077509 0.62546519 0.49879184 0.34710699 0.17801675 0 -0.17801675 -0.34710699 -0.49879184 -0.62546519 -0.72077509 -0.77994233 -0.8"
       stroke="#191919"
       stroke-width="0.35 px"
       style="fill:#ffaaaa;fill-opacity:1;fill-rule:evenodd;stroke-width:0.0926042;stroke-miterlimit:4;stroke-dasharray:none" />
    <path
       id="Shape2DView_nwe0018"
       d="m 1.14,-0.8 c -0.24072578,0.0214864 -0.37405911,0.15481973 -0.4,0.4 v 0 0.0100288 0.0295836 0.047655 0.0633367 0.0758424 0.08454513 V 0 0.08900837 0.1735535 0.24939592 0.3127326 0.3603876 0.3899712 0.4 v 0 c 0,0.2209139 0.1790861,0.4 0.4,0.4 v 0 h 0.5 V 0.8 0.77994233 0.72077509 0.62546519 0.49879184 0.34710699 0.17801675 0 -0.17801676 -0.347107 -0.49879185 -0.6254652 -0.7207751 -0.7799423 -0.8 v 0 z"
       stroke="#191919"
       stroke-width="0.35 px"
       style="display:inline;fill:#ffaaaa;fill-opacity:1;fill-rule:evenodd;stroke-width:0.0926042;stroke-miterlimit:4;stroke-dasharray:none"
       sodipodi:nodetypes="ccccccccccccccccccccccccccccccccccccccc" />
    <path
       id="Shape2DView_nwe0023"
       d="m 3.44,-0.8 v 0.0200577 0.0591672 0.0953099 0.12667335 V -0.347107 -0.17801676 0 0.17801675 0.34710699 0.49879184 0.62546519 0.72077509 0.77994233 0.8 v 0 h 0.5 v 0 c 0.2209139,0 0.4,-0.1790861 0.4,-0.4 V 0.4 0.3899712 0.3603876 0.3127326 0.24939592 0.1735535 0.08900837 0 -0.08900837 -0.1735535 -0.2493959 -0.3127326 -0.3603876 -0.3899712 -0.4 v 0 C 4.3140591,-0.64518029 4.1807258,-0.77851362 3.94,-0.8 v 0 z"
       stroke="#191919"
       stroke-width="0.35 px"
       style="display:inline;fill:#ffaaaa;fill-opacity:1;fill-rule:evenodd;stroke-width:0.0926042;stroke-miterlimit:4;stroke-dasharray:none"
       sodipodi:nodetypes="ccccccccccccccccccccccccccccccccccccccc" />
    <path
       id="Shape2DView_nwe0024"
       d="m 4.34,0.25 h 0.74 v 0 c 0.3333332,0 0.3333332,-0.5 0,-0.5 v 0 h -0.74 1e-7 z"
       stroke="#191919"
       stroke-width="0.35 px"
       style="display:inline;fill:#999999;fill-opacity:1;fill-rule:evenodd;stroke-width:0.0926042;stroke-miterlimit:4;stroke-dasharray:none"
       sodipodi:nodetypes="ccccccccc" />
    <title
       id="title28">b'Shape2DView'</title>
  </g>
  <path
     style="display:inline;fill:#999999;stroke:#1a1a1a;stroke-width:0.0926042;stroke-linecap:butt;stroke-linejoin:miter;stroke-miterlimit:4;stroke-dasharray:none;stroke-opacity:1"
     d="m 1.043941,0.80576401 v 0.49999999 0 h -0.74 v 0 c -0.33333319,0 -0.33333319,-0.5 0,-0.5 v 0 z"
     id="path866"
     sodipodi:nodetypes="ccccccccc" />
  <path
     style="fill:#e9afaf;stroke:#1a1a1a;stroke-width:0.0926042;stroke-linecap:butt;stroke-linejoin:miter;stroke-miterlimit:4;stroke-dasharray:none;stroke-opacity:1"
     d="m 3.743941,0.33576401 v 1.43999999 0 h -1.8 v 0 -1.43999999 -10e-9 h 1.8 z"
     id="path872"
     sodipodi:nodetypes="ccccccccc" />
  <rect
     style="opacity:0.997;fill:#550000;stroke:#1a1a1a;stroke-width:0.0921409;stroke-miterlimit:4;stroke-dasharray:none"
     id="rect874"
     width="0.18188179"
     height="1.4315981"
     x="2.185648"
     y="0.33896616" />
  <rect
     style="opacity:0.997;fill:#000000;stroke:#1a1a1a;stroke-width:0.0921409;stroke-miterlimit:4;stroke-dasharray:none"
     id="rect874-3"
     width="0.18188179"
     height="1.4315981"
     x="2.5519645"
     y="0.34361604" />
  <rect
     style="opacity:0.997;fill:#ff0000;stroke:#1a1a1a;stroke-width:0.0921409;stroke-miterlimit:4;stroke-dasharray:none"
     id="rect874-6"
     width="0.18188179"
     height="1.4315981"
     x="2.9225528"
     y="0.34461966" />
  <rect
     style="opacity:0.997;fill:#808000;stroke:#1a1a1a;stroke-width:0.0921409;stroke-miterlimit:4;stroke-dasharray:none"
     id="rect874-7"
     width="0.18188179"
     height="1.4315981"
     x="3.4191566"
     y="0.33859298" />
</svg>
