<?xml version="1.0" encoding="UTF-8" standalone="no"?>
<svg
   xmlns:dc="http://purl.org/dc/elements/1.1/"
   xmlns:cc="http://creativecommons.org/ns#"
   xmlns:rdf="http://www.w3.org/1999/02/22-rdf-syntax-ns#"
   xmlns:svg="http://www.w3.org/2000/svg"
   xmlns="http://www.w3.org/2000/svg"
   xmlns:sodipodi="http://sodipodi.sourceforge.net/DTD/sodipodi-0.dtd"
   xmlns:inkscape="http://www.inkscape.org/namespaces/inkscape"
   width="3.2640000000000002mm"
   height="1.864mm"
   viewBox="0 0 3.2640000000000002 1.864"
   version="1.1"
   id="svg53"
   sodipodi:docname="LED_1206_3216Metric.svg"
   inkscape:version="1.0.2 (e86c870879, 2021-01-15)">
  <metadata
     id="metadata59">
    <rdf:RDF>
      <cc:Work
         rdf:about="">
        <dc:format>image/svg+xml</dc:format>
        <dc:type
           rdf:resource="http://purl.org/dc/dcmitype/StillImage" />
      </cc:Work>
    </rdf:RDF>
  </metadata>
  <defs
     id="defs57" />
  <sodipodi:namedview
     pagecolor="#ffffff"
     bordercolor="#666666"
     borderopacity="1"
     objecttolerance="10"
     gridtolerance="10"
     guidetolerance="10"
     inkscape:pageopacity="0"
     inkscape:pageshadow="2"
     inkscape:window-width="1366"
     inkscape:window-height="713"
     id="namedview55"
     showgrid="false"
     inkscape:zoom="45.254834"
     inkscape:cx="5.6916216"
     inkscape:cy="2.8441669"
     inkscape:window-x="0"
     inkscape:window-y="0"
     inkscape:window-maximized="1"
     inkscape:current-layer="svg53"
     inkscape:document-rotation="0" />
  <g
     id="Shape2DView"
     transform="matrix(1,0,0,-1,1.632,1.032)"
     style="stroke-width:0.0132292;stroke-miterlimit:4;stroke-dasharray:none">
    <path
       id="Shape2DView_nwe0003"
       d="M -1,0.8 V 0.6"
       stroke="#191919"
       stroke-width="0.35 px"
       style="fill:none;fill-opacity:1;fill-rule:evenodd;stroke-width:0.0132292;stroke-miterlimit:4;stroke-dasharray:none" />
    <path
       id="Shape2DView_nwe0004"
       d="M -1,0.6 V -0.6"
       stroke="#191919"
       stroke-width="0.35 px"
       style="fill:none;fill-opacity:1;fill-rule:evenodd;stroke-width:0.0132292;stroke-miterlimit:4;stroke-dasharray:none" />
    <path
       id="Shape2DView_nwe0005"
       d="M -1,-0.6 V -0.8"
       stroke="#191919"
       stroke-width="0.35 px"
       style="fill:none;fill-opacity:1;fill-rule:evenodd;stroke-width:0.0132292;stroke-miterlimit:4;stroke-dasharray:none" />
    <path
       id="Shape2DView_nwe0012"
       d="M 1,-0.6 V -0.8"
       stroke="#191919"
       stroke-width="0.35 px"
       style="fill:none;fill-opacity:1;fill-rule:evenodd;stroke-width:0.0132292;stroke-miterlimit:4;stroke-dasharray:none" />
    <path
       id="Shape2DView_nwe0013"
       d="M 1,0.6 V -0.6"
       stroke="#191919"
       stroke-width="0.35 px"
       style="fill:none;fill-opacity:1;fill-rule:evenodd;stroke-width:0.0132292;stroke-miterlimit:4;stroke-dasharray:none" />
    <path
       id="Shape2DView_nwe0014"
       d="M 1,0.8 V 0.6"
       stroke="#191919"
       stroke-width="0.35 px"
       style="fill:none;fill-opacity:1;fill-rule:evenodd;stroke-width:0.0132292;stroke-miterlimit:4;stroke-dasharray:none" />
    <path
       id="Shape2DView_nwe0015"
       d="M 0.9,0.8 H 1 v 0 h 0.45 v 0 h 0.09 v 0 H 1.54672 1.55335 1.55982 1.56604 1.57193 1.57742 1.58244 1.58692 1.59081 1.59406 1.59663 1.59849 1.59962 1.6 v 0 -1.6 0 H 1.59962 1.59849 1.59663 1.59406 1.59081 1.58692 1.58244 1.57742 1.57193 1.56604 1.55982 1.55335 1.54672 1.54 v 0 H 1.45 v 0 H 1 v 0 H 0.9 v 0 z"
       stroke="#191919"
       stroke-width="0.35 px"
       style="display:inline;fill:#808080;fill-opacity:1;fill-rule:evenodd;stroke-width:0.0132292;stroke-miterlimit:4;stroke-dasharray:none"
       sodipodi:nodetypes="ccccccccccccccccccccccccccccccccccccccccccccccc" />
    <path
       id="Shape2DView_nwe0017"
       d="m -1.06,0.6 h 0.00672 0.00663 0.00647 0.00622 0.00589 0.00549 0.00502 0.00448 0.00389 0.00325 0.00257 0.00186 0.00113 H -1"
       stroke="#191919"
       stroke-width="0.35 px"
       style="fill:none;fill-opacity:1;fill-rule:evenodd;stroke-width:0.0132292;stroke-miterlimit:4;stroke-dasharray:none" />
    <path
       id="Shape2DView_nwe0018"
       d="m -1.06,-0.6 h 0.00672 0.00663 0.00647 0.00622 0.00589 0.00549 0.00502 0.00448 0.00389 0.00325 0.00257 0.00186 0.00113 H -1"
       stroke="#191919"
       stroke-width="0.35 px"
       style="fill:none;fill-opacity:1;fill-rule:evenodd;stroke-width:0.0132292;stroke-miterlimit:4;stroke-dasharray:none" />
    <path
       id="Shape2DView_nwe0019"
       d="m -0.9,0.8 v -1.6 0 H -1 v 0 h -0.45 v 0 h -0.09 -2.7e-6 -0.00672 -0.00663 -0.00647 -0.00622 -0.00589 -0.00549 -0.00502 -0.00448 -0.00389 -0.00325 -0.00257 -0.00186 -0.00113 H -1.6 v 0 1.6 0 h 3.773e-4 0.00113 0.00186 0.00257 0.00325 0.00389 0.00448 0.00502 0.00549 0.00589 0.00622 0.00647 0.00663 0.00672 2.7e-6 0.09 v 0 H -1 v 0 z"
       stroke="#191919"
       stroke-width="0.35 px"
       style="display:inline;fill:#808080;fill-opacity:1;fill-rule:evenodd;stroke-width:0.0132292;stroke-miterlimit:4;stroke-dasharray:none"
       sodipodi:nodetypes="ccccccccccccccccccccccccccccccccccccccccccccccc" />
    <path
       id="Shape2DView_nwe0024"
       d="m 1,-0.6 h 3.773e-4 0.00113 0.00186 0.00257 0.00325 0.00389 0.00448 0.00502 0.00549 0.00589 0.00622 0.00647 0.00663 H 1.06"
       stroke="#191919"
       stroke-width="0.35 px"
       style="fill:none;fill-opacity:1;fill-rule:evenodd;stroke-width:0.0132292;stroke-miterlimit:4;stroke-dasharray:none" />
    <path
       id="Shape2DView_nwe0025"
       d="m 1,0.6 h 3.773e-4 0.00113 0.00186 0.00257 0.00325 0.00389 0.00448 0.00502 0.00549 0.00589 0.00622 0.00647 0.00663 H 1.06"
       stroke="#191919"
       stroke-width="0.35 px"
       style="fill:none;fill-opacity:1;fill-rule:evenodd;stroke-width:0.0132292;stroke-miterlimit:4;stroke-dasharray:none" />
    <path
       id="Shape2DView_nwe0026"
       d="m -1.45,0.6 h 0.39"
       stroke="#191919"
       stroke-width="0.35 px"
       style="fill:none;fill-opacity:1;fill-rule:evenodd;stroke-width:0.0132292;stroke-miterlimit:4;stroke-dasharray:none" />
    <path
       id="Shape2DView_nwe0027"
       d="M -1.45,0.8 V 0.6"
       stroke="#191919"
       stroke-width="0.35 px"
       style="fill:none;fill-opacity:1;fill-rule:evenodd;stroke-width:0.0132292;stroke-miterlimit:4;stroke-dasharray:none" />
    <path
       id="Shape2DView_nwe0028"
       d="M -1.06,-0.6 H -1.45"
       stroke="#191919"
       stroke-width="0.35 px"
       style="fill:none;fill-opacity:1;fill-rule:evenodd;stroke-width:0.0132292;stroke-miterlimit:4;stroke-dasharray:none" />
    <path
       id="Shape2DView_nwe0030"
       d="M -1.45,-0.6 V -0.8"
       stroke="#191919"
       stroke-width="0.35 px"
       style="fill:none;fill-opacity:1;fill-rule:evenodd;stroke-width:0.0132292;stroke-miterlimit:4;stroke-dasharray:none" />
    <path
       id="Shape2DView_nwe0036"
       d="M 1.45,0.6 V 0.8"
       stroke="#191919"
       stroke-width="0.35 px"
       style="fill:none;fill-opacity:1;fill-rule:evenodd;stroke-width:0.0132292;stroke-miterlimit:4;stroke-dasharray:none" />
    <path
       id="Shape2DView_nwe0037"
       d="M 1.06,0.6 H 1.45"
       stroke="#191919"
       stroke-width="0.35 px"
       style="fill:none;fill-opacity:1;fill-rule:evenodd;stroke-width:0.0132292;stroke-miterlimit:4;stroke-dasharray:none" />
    <path
       id="Shape2DView_nwe0038"
       d="M 1.45,-0.6 H 1.06"
       stroke="#191919"
       stroke-width="0.35 px"
       style="fill:none;fill-opacity:1;fill-rule:evenodd;stroke-width:0.0132292;stroke-miterlimit:4;stroke-dasharray:none" />
    <path
       id="Shape2DView_nwe0039"
       d="m 1.45,-0.8 v 0.2"
       stroke="#191919"
       stroke-width="0.35 px"
       style="fill:none;fill-opacity:1;fill-rule:evenodd;stroke-width:0.0132292;stroke-miterlimit:4;stroke-dasharray:none" />
    <path
       id="Shape2DView_nwe0040"
       d="M -1.06,-0.6 V 0.6"
       stroke="#191919"
       stroke-width="0.35 px"
       style="fill:none;fill-opacity:1;fill-rule:evenodd;stroke-width:0.0132292;stroke-miterlimit:4;stroke-dasharray:none" />
    <path
       id="Shape2DView_nwe0041"
       d="M 1.06,-0.6 V 0.6"
       stroke="#191919"
       stroke-width="0.35 px"
       style="fill:none;fill-opacity:1;fill-rule:evenodd;stroke-width:0.0132292;stroke-miterlimit:4;stroke-dasharray:none" />
    <path
       id="Shape2DView_nwe0042"
       d="M -1.54,-0.8 V 0.8"
       stroke="#191919"
       stroke-width="0.35 px"
       style="fill:none;fill-opacity:1;fill-rule:evenodd;stroke-width:0.0132292;stroke-miterlimit:4;stroke-dasharray:none" />
    <path
       id="Shape2DView_nwe0043"
       d="M 1.54,-0.8 V 0.8"
       stroke="#191919"
       stroke-width="0.35 px"
       style="fill:none;fill-opacity:1;fill-rule:evenodd;stroke-width:0.0132292;stroke-miterlimit:4;stroke-dasharray:none" />
    <title
       id="title46">b'Shape2DView'</title>
  </g>
  <g
     id="Rectangle"
     transform="matrix(1,0,0,-1,1.632,1.032)"
     style="display:none;stroke-width:0.0132292;stroke-miterlimit:4;stroke-dasharray:none">
    <rect
       fill="#ff0000"
       id="origin"
       width="1"
       height="1"
       x="0"
       y="0"
       style="stroke-width:0.0132292;stroke-miterlimit:4;stroke-dasharray:none" />
    <title
       id="title50">b'Rectangle'</title>
  </g>
  <path
     style="fill:#cccccc;stroke:#000000;stroke-width:0.0132292;stroke-linecap:butt;stroke-linejoin:miter;stroke-miterlimit:4;stroke-dasharray:none;stroke-opacity:1"
     d="m 2.532,0.232 h -1.8 l 3e-8,0 v 1.6 h -3e-8 1.8 v 0 z"
     id="path880"
     sodipodi:nodetypes="ccccccccc" />
</svg>
