<?xml version="1.0" encoding="UTF-8" standalone="no"?>
<svg
   width="5.508mm"
   height="5.1080000000000245mm"
   viewBox="0 0 5.508 5.1080000000000245"
   version="1.1"
   id="svg55"
   sodipodi:docname="LED_WS2812B_PLCC4_5.0x5.0mm_P3.2mm.svg"
   inkscape:version="1.1.1 (3bf5ae0d25, 2021-09-20)"
   xmlns:inkscape="http://www.inkscape.org/namespaces/inkscape"
   xmlns:sodipodi="http://sodipodi.sourceforge.net/DTD/sodipodi-0.dtd"
   xmlns="http://www.w3.org/2000/svg"
   xmlns:svg="http://www.w3.org/2000/svg">
  <defs
     id="defs59" />
  <sodipodi:namedview
     id="namedview57"
     pagecolor="#ffffff"
     bordercolor="#666666"
     borderopacity="1.0"
     inkscape:pageshadow="2"
     inkscape:pageopacity="0.0"
     inkscape:pagecheckerboard="0"
     inkscape:document-units="mm"
     showgrid="false"
     inkscape:zoom="16"
     inkscape:cx="14.03125"
     inkscape:cy="12"
     inkscape:window-width="1360"
     inkscape:window-height="713"
     inkscape:window-x="0"
     inkscape:window-y="0"
     inkscape:window-maximized="1"
     inkscape:current-layer="svg55" />
  <path
     id="Shape2DView_nwe0018"
     d="m 5.404,3.754 h -0.15 v -2e-7 0.9000001 1e-7 h 0.15 -3.6e-6 0.0056 0.00553 0.00539 0.00518 0.00491 0.00457 0.00418 0.00374 0.00324 0.00271 0.00215 0.00155 9.392e-4 H 5.454 v 0 -0.9 0 h -3.144e-4 -9.392e-4 -0.00155 -0.00215 -0.00271 -0.00324 -0.00374 -0.00418 -0.00457 -0.00491 -0.00518 -0.00539 -0.00553 -0.0056 z"
     stroke="#191919"
     stroke-width="0.35 px"
     style="fill:#999999;fill-opacity:1;fill-rule:evenodd;stroke-width:0.013;stroke-miterlimit:4;stroke-dasharray:none"
     sodipodi:nodetypes="ccccccccccccccccccccccccccccccccccccccc" />
  <path
     id="Shape2DView_nwe0030"
     d="m 5.4039964,1.354 h 0.0056 0.00553 0.00539 0.00518 0.00491 0.00457 0.00418 0.00374 0.00324 0.00271 0.00215 0.00155 9.392e-4 H 5.454 v 0 -0.9 0 h -3.144e-4 -9.392e-4 -0.00155 -0.00215 -0.00271 -0.00324 -0.00374 -0.00418 -0.00457 -0.00491 -0.00518 -0.00539 -0.00553 -0.0056 3.6e-6 -0.15 v -10e-9 V 1.354 v 0 h 0.15 z"
     stroke="#191919"
     stroke-width="0.35 px"
     style="fill:#999999;fill-opacity:1;fill-rule:evenodd;stroke-width:0.013;stroke-miterlimit:4;stroke-dasharray:none"
     sodipodi:nodetypes="ccccccccccccccccccccccccccccccccccccccc" />
  <path
     id="Shape2DView_nwe0026"
     d="m 0.254,0.454 h -0.15 v 0 H 0.0984 0.09287 0.08748 0.0823 0.07739 0.07282 0.06864 0.0649 0.06166 0.05895 0.0568 0.05525 0.0543108 0.054 v 0 0.9 0 H 0.0543108 0.05525 0.0568 0.05895 0.06166 0.0649 0.06864 0.07282 0.07739 0.0823 0.08748 0.09287 0.0984 0.104 v 0 h 0.15 v 0 0 -0.90000001 z"
     stroke="#191919"
     stroke-width="0.35 px"
     style="fill:#999999;fill-opacity:1;fill-rule:evenodd;stroke-width:0.013;stroke-miterlimit:4;stroke-dasharray:none"
     sodipodi:nodetypes="cccccccccccccccccccccccccccccccccccccccc" />
  <path
     id="Shape2DView_nwe0022"
     d="M 0.25663,4.6523337 0.254,3.754 v 0 h -0.2 v 0 0.9 0 h 0.2 z"
     stroke="#191919"
     stroke-width="0.35 px"
     style="fill:#999999;fill-opacity:1;fill-rule:evenodd;stroke-width:0.0150111;stroke-miterlimit:4;stroke-dasharray:none"
     sodipodi:nodetypes="ccccccccc" />
  <path
     id="Shape2DView_nwe0007"
     d="M 5.254,4.0184661 V 0.054 v 0 h -5 v 0 5 0 h 3.9644661"
     stroke="#191919"
     stroke-width="0.35 px"
     style="fill:#f9f9f9;fill-opacity:1;fill-rule:evenodd;stroke-width:0.013;stroke-miterlimit:4;stroke-dasharray:none"
     sodipodi:nodetypes="cccccccc" />
  <circle
     cx="2.7539999"
     cy="-2.5539999"
     r="1.9666667"
     stroke="#191919"
     stroke-width="0.35 px"
     style="fill:#e6e6e6;stroke-width:0.013;stroke-miterlimit:4;stroke-dasharray:none"
     id="circle2"
     transform="scale(1,-1)" />
  <circle
     cx="2.7539999"
     cy="-2.5539999"
     r="1.6666666"
     stroke="#191919"
     stroke-width="0.35 px"
     style="fill:#b3b3b3;stroke-width:0.013;stroke-miterlimit:4;stroke-dasharray:none"
     id="circle4"
     transform="scale(1,-1)" />
  <path
     id="Shape2DView_nwe0002"
     d="m 4.1874001,4.979 0.00348,0.0084 0.00343,0.00829 0.00335,0.00808 0.00322,0.00777 0.00305,0.00736 0.00284,0.00686 0.0026,0.00627 0.00232,0.0056 0.00202,0.00487 0.00169,0.00407 0.00133,0.00322 9.644e-4,0.00233 5.836e-4,0.00141 1.88e-4,4.7e-4"
     stroke="#191919"
     stroke-width="0.35 px"
     style="fill:none;fill-opacity:1;fill-rule:evenodd;stroke-width:0.013;stroke-miterlimit:4;stroke-dasharray:none" />
  <path
     id="Shape2DView_nwe0003"
     d="M 4.2184661,5.054 5.254,4.0184661"
     stroke="#191919"
     stroke-width="0.35 px"
     style="fill:none;fill-opacity:1;fill-rule:evenodd;stroke-width:0.013;stroke-miterlimit:4;stroke-dasharray:none" />
  <path
     id="Shape2DView_nwe0004"
     d="m 5.179,3.9874001 0.0084,0.00348 0.00829,0.00343 0.00808,0.00335 0.00777,0.00322 0.00736,0.00305 0.00686,0.00284 0.00627,0.0026 0.0056,0.00232 0.00487,0.00202 0.00407,0.00169 0.00322,0.00133 0.00233,9.644e-4 0.00141,5.836e-4 4.7e-4,1.88e-4"
     stroke="#191919"
     stroke-width="0.35 px"
     style="fill:none;fill-opacity:1;fill-rule:evenodd;stroke-width:0.013;stroke-miterlimit:4;stroke-dasharray:none" />
  <path
     id="Shape2DView_nwe0005"
     d="m 0.254,5.054 4.716e-4,-4.716e-4 0.00141,-0.00141 0.00233,-0.00233 0.00322,-0.00322 0.00407,-0.00407 0.00487,-0.00487 0.0056,-0.0056 0.00627,-0.00627 0.00686,-0.00686 0.00736,-0.00736 0.00777,-0.00777 0.00808,-0.00808 0.00829,-0.00829 0.0084,-0.0084"
     stroke="#191919"
     stroke-width="0.35 px"
     style="fill:none;fill-opacity:1;fill-rule:evenodd;stroke-width:0.013;stroke-miterlimit:4;stroke-dasharray:none" />
  <path
     id="Shape2DView_nwe0008"
     d="m 5.254,0.054 -4.716e-4,4.716e-4 -0.00141,0.00141 -0.00233,0.00233 -0.00322,0.00322 -0.00407,0.00407 -0.00487,0.00487 -0.0056,0.0056 -0.00627,0.00627 -0.00686,0.00686 -0.00736,0.00736 -0.00777,0.00777 -0.00808,0.00808 -0.00829,0.00829 L 5.179,0.129"
     stroke="#191919"
     stroke-width="0.35 px"
     style="fill:none;fill-opacity:1;fill-rule:evenodd;stroke-width:0.013;stroke-miterlimit:4;stroke-dasharray:none" />
  <path
     id="Shape2DView_nwe0010"
     d="m 0.254,0.054 4.716e-4,4.716e-4 0.00141,0.00141 0.00233,0.00233 0.00322,0.00322 0.00407,0.00407 0.00487,0.00487 0.0056,0.0056 0.00627,0.00627 0.00686,0.00686 0.00736,0.00736 0.00777,0.00777 0.00808,0.00808 0.00829,0.00829 0.0084,0.0084"
     stroke="#191919"
     stroke-width="0.35 px"
     style="fill:none;fill-opacity:1;fill-rule:evenodd;stroke-width:0.013;stroke-miterlimit:4;stroke-dasharray:none" />
  <path
     id="Shape2DView_nwe0012"
     d="M 4.2184661,5.054 H 5.254 v 0 -1.0355339"
     stroke="#191919"
     stroke-width="0.35 px"
     style="fill:#f2f2f2;fill-opacity:1;fill-rule:evenodd;stroke-width:0.013;stroke-miterlimit:4;stroke-dasharray:none"
     sodipodi:nodetypes="cccc" />
  <path
     id="Shape2DView_nwe0036"
     d="M 4.1874001,4.979 5.179,3.9874001"
     stroke="#191919"
     stroke-width="0.35 px"
     style="fill:none;fill-opacity:1;fill-rule:evenodd;stroke-width:0.013;stroke-miterlimit:4;stroke-dasharray:none" />
  <path
     id="Shape2DView_nwe0037"
     d="M 5.179,3.9874001 V 0.129"
     stroke="#191919"
     stroke-width="0.35 px"
     style="fill:none;fill-opacity:1;fill-rule:evenodd;stroke-width:0.013;stroke-miterlimit:4;stroke-dasharray:none" />
  <path
     id="Shape2DView_nwe0038"
     d="M 5.179,0.129 H 0.329"
     stroke="#191919"
     stroke-width="0.35 px"
     style="fill:none;fill-opacity:1;fill-rule:evenodd;stroke-width:0.013;stroke-miterlimit:4;stroke-dasharray:none" />
  <path
     id="Shape2DView_nwe0039"
     d="m 0.329,0.129 v 4.85"
     stroke="#191919"
     stroke-width="0.35 px"
     style="fill:none;fill-opacity:1;fill-rule:evenodd;stroke-width:0.013;stroke-miterlimit:4;stroke-dasharray:none" />
  <path
     id="Shape2DView_nwe0040"
     d="M 0.329,4.979 H 4.1874001"
     stroke="#191919"
     stroke-width="0.35 px"
     style="fill:none;fill-opacity:1;fill-rule:evenodd;stroke-width:0.013;stroke-miterlimit:4;stroke-dasharray:none" />
  <path
     id="Shape2DView_nwe0041"
     d="m 5.404,1.354 v -0.9"
     stroke="#191919"
     stroke-width="0.35 px"
     style="fill:none;fill-opacity:1;fill-rule:evenodd;stroke-width:0.013;stroke-miterlimit:4;stroke-dasharray:none" />
  <path
     id="Shape2DView_nwe0042"
     d="m 5.404,4.654 v -0.9"
     stroke="#191919"
     stroke-width="0.35 px"
     style="fill:none;fill-opacity:1;fill-rule:evenodd;stroke-width:0.013;stroke-miterlimit:4;stroke-dasharray:none" />
  <path
     id="Shape2DView_nwe0043"
     d="m 0.104,3.754 v 0.9"
     stroke="#191919"
     stroke-width="0.35 px"
     style="fill:#b3b3b3;fill-opacity:1;fill-rule:evenodd;stroke-width:0.013;stroke-miterlimit:4;stroke-dasharray:none" />
  <path
     id="Shape2DView_nwe0044"
     d="m 0.104,0.454 v 0.9"
     stroke="#191919"
     stroke-width="0.35 px"
     style="fill:none;fill-opacity:1;fill-rule:evenodd;stroke-width:0.013;stroke-miterlimit:4;stroke-dasharray:none" />
  <rect
     fill="#ff0000"
     id="origin"
     width="1"
     height="1"
     x="2.7539999"
     y="-2.5539999"
     style="stroke-width:0.013;stroke-miterlimit:4;stroke-dasharray:none"
     transform="scale(1,-1)" />
</svg>
