<?xml version="1.0" encoding="UTF-8" standalone="no"?>
<svg
   width="10.5672mm"
   height="10.3672mm"
   viewBox="0 0 10.5672 10.3672"
   version="1.1"
   id="svg94"
   sodipodi:docname="PinHeader_1x04_P2.54mm_Horizontal.svg"
   inkscape:version="1.1.2 (0a00cf5339, 2022-02-04)"
   xmlns:inkscape="http://www.inkscape.org/namespaces/inkscape"
   xmlns:sodipodi="http://sodipodi.sourceforge.net/DTD/sodipodi-0.dtd"
   xmlns="http://www.w3.org/2000/svg"
   xmlns:svg="http://www.w3.org/2000/svg">
  <defs
     id="defs98" />
  <sodipodi:namedview
     id="namedview96"
     pagecolor="#ffffff"
     bordercolor="#666666"
     borderopacity="1.0"
     inkscape:pageshadow="2"
     inkscape:pageopacity="0.0"
     inkscape:pagecheckerboard="0"
     inkscape:document-units="mm"
     showgrid="false"
     inkscape:zoom="8"
     inkscape:cx="18.25"
     inkscape:cy="19.625"
     inkscape:window-width="1366"
     inkscape:window-height="713"
     inkscape:window-x="0"
     inkscape:window-y="0"
     inkscape:window-maximized="1"
     inkscape:current-layer="svg94" />
  <path
     id="Shape2DView_nwe0012"
     d="m 1.9236,0.1036 h 2.54 v 0.254 2.032 0.254 0.254 2.032 0.254 0.254 2.032 0.254 0.254 2.032 0.254 h -2.54 v -0.254 -2.032 -0.254 -0.254 -2.032 -0.254 -0.254 -2.032 -0.254 -0.254 -2.082 z"
     stroke="#191919"
     stroke-width="0.35 px"
     style="fill:#1a1a1a;fill-opacity:1;fill-rule:evenodd;stroke-width:0.1;stroke-miterlimit:4;stroke-dasharray:none;stroke:#000000"
     sodipodi:nodetypes="ccccccccccccccccccccccccccc" />
  <path
     id="Shape2DView_nwe0040"
     d="m 1.9236,6.7736 v -0.64 H 0.7436 0.6719427 0.6011866 0.5322214 0.4659144 0.4030993 0.3445664 0.2910515 0.2432277 0.2016964 0.1669798 0.1395145 0.119646 0.107624 0.1036 v 0.64 H 0.107624 0.119646 0.1395145 0.1669798 0.2016964 0.2432277 0.2910515 0.3445664 0.4030993 0.4659144 0.5322214 0.6011866 0.6719427 0.7436 Z"
     stroke="#191919"
     stroke-width="0.35 px"
     style="fill:#808000;fill-opacity:1;fill-rule:evenodd;stroke-width:0.1;stroke-miterlimit:4;stroke-dasharray:none;stroke:#000000"
     sodipodi:nodetypes="ccccccccccccccccccccccccccccccccc" />
  <path
     id="Shape2DView_nwe0043"
     d="m 0.1036,3.5936 h 0.004024 0.012022 0.0198685 0.0274653 0.0347166 0.0415313 0.0478238 0.0535149 0.0585329 0.0628151 0.066307 0.0689652 0.0707561 0.0716573 1.18 v 0.64 H 0.7436 0.6719427 0.6011866 0.5322214 0.4659144 0.4030993 0.3445664 0.2910515 0.2432277 0.2016964 0.1669798 0.1395145 0.119646 0.107624 0.1036 Z"
     stroke="#191919"
     stroke-width="0.35 px"
     style="fill:#808000;fill-opacity:1;fill-rule:evenodd;stroke-width:0.1;stroke-miterlimit:4;stroke-dasharray:none;stroke:#000000"
     sodipodi:nodetypes="ccccccccccccccccccccccccccccccccc" />
  <path
     id="Shape2DView_nwe0052"
     d="M 0.107624,9.3136 H 0.119646 0.1395145 0.1669798 0.2016964 0.2432277 0.2910515 0.3445664 0.4030993 0.4659144 0.5322214 0.6011866 0.6719427 0.7436 l 1.18,0 v -0.64 H 0.7436 0.6719427 0.6011866 0.5322214 0.4659144 0.4030993 0.3445664 0.2910515 0.2432277 0.2016964 0.1669798 0.1395145 0.119646 0.107624 0.1036 v 0.64 z"
     stroke="#191919"
     stroke-width="0.35 px"
     style="fill:#808000;fill-opacity:1;fill-rule:evenodd;stroke-width:0.1;stroke-miterlimit:4;stroke-dasharray:none;stroke:#000000"
     sodipodi:nodetypes="ccccccccccccccccccccccccccccccccc" />
  <path
     id="Shape2DView_nwe0067"
     d="m 0.1036,1.6936 h 0.004024 0.012022 0.0198685 0.0274653 0.0347166 0.0415313 0.0478238 0.0535149 0.0585329 0.0628151 0.066307 0.0689652 0.0707561 0.0716573 1.18 v -0.64 H 0.7436 0.6719427 0.6011866 0.5322214 0.4659144 0.4030993 0.3445664 0.2910515 0.2432277 0.2016964 0.1669798 0.1395145 0.119646 0.107624 0.1036 Z"
     stroke="#191919"
     stroke-width="0.35 px"
     style="fill:#808000;fill-opacity:1;fill-rule:evenodd;stroke-width:0.1;stroke-miterlimit:4;stroke-dasharray:none;stroke:#000000"
     sodipodi:nodetypes="ccccccccccccccccccccccccccccccccc" />
  <path
     id="Shape2DView_nwe0071"
     d="m 10.4636,6.6136 -0.16,0.16 h -5.84 v -0.64 h 5.84 l 0.16,0.16 z"
     stroke="#191919"
     stroke-width="0.35 px"
     style="fill:#808000;fill-opacity:1;fill-rule:evenodd;stroke-width:0.1;stroke-miterlimit:4;stroke-dasharray:none;stroke:#000000"
     sodipodi:nodetypes="ccccccc" />
  <path
     id="Shape2DView_nwe0075"
     d="m 10.3036,1.6936 0.16,-0.16 v -0.32 l -0.16,-0.16 h -5.84 v 0.64 z"
     stroke="#191919"
     stroke-width="0.35 px"
     style="fill:#808000;fill-opacity:1;fill-rule:evenodd;stroke-width:0.1;stroke-miterlimit:4;stroke-dasharray:none;stroke:#000000"
     sodipodi:nodetypes="ccccccc" />
  <path
     id="Shape2DView_nwe0078"
     d="m 10.4636,8.8336 -0.16,-0.16 h -5.84 v 0.64 h 5.84 l 0.16,-0.16 z"
     stroke="#191919"
     stroke-width="0.35 px"
     style="fill:#808000;fill-opacity:1;fill-rule:evenodd;stroke-width:0.1;stroke-miterlimit:4;stroke-dasharray:none;stroke:#000000"
     sodipodi:nodetypes="ccccccc" />
  <path
     id="Shape2DView_nwe0083-7"
     d="M 4.4636,3.9485124 V 4.2336 h 5.84 l 0.16,-0.16 v -0.32 l -0.16,-0.16 h -5.84 z"
     stroke="#191919"
     stroke-width="0.35 px"
     style="fill:#808000;fill-opacity:1;fill-rule:evenodd;stroke-width:0.1;stroke-miterlimit:4;stroke-dasharray:none;stroke:#000000"
     sodipodi:nodetypes="cccccccc" />
  <path
     id="Shape2DView_nwe0025"
     d="m 1.9236,0.3576 h 2.54"
     stroke="#191919"
     stroke-width="0.35 px"
     style="fill:none;fill-opacity:1;fill-rule:evenodd;stroke-width:0.1;stroke-miterlimit:4;stroke-dasharray:none;stroke:#000000" />
  <path
     id="Shape2DView_nwe0026"
     d="m 1.9236,2.3896 h 2.54"
     stroke="#191919"
     stroke-width="0.35 px"
     style="fill:none;fill-opacity:1;fill-rule:evenodd;stroke-width:0.1;stroke-miterlimit:4;stroke-dasharray:none;stroke:#000000" />
  <path
     id="Shape2DView_nwe0027"
     d="m 1.9236,2.6436 h 2.54"
     stroke="#191919"
     stroke-width="0.35 px"
     style="fill:none;fill-opacity:1;fill-rule:evenodd;stroke-width:0.1;stroke-miterlimit:4;stroke-dasharray:none;stroke:#000000" />
  <path
     id="Shape2DView_nwe0028"
     d="m 1.9236,2.8976 h 2.54"
     stroke="#191919"
     stroke-width="0.35 px"
     style="fill:none;fill-opacity:1;fill-rule:evenodd;stroke-width:0.1;stroke-miterlimit:4;stroke-dasharray:none;stroke:#000000" />
  <path
     id="Shape2DView_nwe0029"
     d="m 1.9236,4.9296 h 2.54"
     stroke="#191919"
     stroke-width="0.35 px"
     style="fill:none;fill-opacity:1;fill-rule:evenodd;stroke-width:0.1;stroke-miterlimit:4;stroke-dasharray:none;stroke:#000000" />
  <path
     id="Shape2DView_nwe0030"
     d="m 1.9236,5.1836 h 2.54"
     stroke="#191919"
     stroke-width="0.35 px"
     style="fill:none;fill-opacity:1;fill-rule:evenodd;stroke-width:0.1;stroke-miterlimit:4;stroke-dasharray:none;stroke:#000000" />
  <path
     id="Shape2DView_nwe0031"
     d="m 1.9236,5.4376 h 2.54"
     stroke="#191919"
     stroke-width="0.35 px"
     style="fill:none;fill-opacity:1;fill-rule:evenodd;stroke-width:0.1;stroke-miterlimit:4;stroke-dasharray:none;stroke:#000000" />
  <path
     id="Shape2DView_nwe0032"
     d="m 1.9236,7.4696 h 2.54"
     stroke="#191919"
     stroke-width="0.35 px"
     style="fill:none;fill-opacity:1;fill-rule:evenodd;stroke-width:0.1;stroke-miterlimit:4;stroke-dasharray:none;stroke:#000000" />
  <path
     id="Shape2DView_nwe0033"
     d="m 1.9236,7.7236 h 2.54"
     stroke="#191919"
     stroke-width="0.35 px"
     style="fill:none;fill-opacity:1;fill-rule:evenodd;stroke-width:0.1;stroke-miterlimit:4;stroke-dasharray:none;stroke:#000000" />
  <path
     id="Shape2DView_nwe0034"
     d="m 1.9236,7.9776 h 2.54"
     stroke="#191919"
     stroke-width="0.35 px"
     style="fill:none;fill-opacity:1;fill-rule:evenodd;stroke-width:0.1;stroke-miterlimit:4;stroke-dasharray:none;stroke:#000000" />
  <path
     id="Shape2DView_nwe0035"
     d="m 1.9236,10.0096 h 2.54"
     stroke="#191919"
     stroke-width="0.35 px"
     style="fill:none;fill-opacity:1;fill-rule:evenodd;stroke-width:0.1;stroke-miterlimit:4;stroke-dasharray:none;stroke:#000000" />
  <path
     id="Shape2DView_nwe0055"
     d="m 10.3036,6.1336 v 0.64"
     stroke="#191919"
     stroke-width="0.35 px"
     style="fill:none;fill-opacity:1;fill-rule:evenodd;stroke-width:0.1;stroke-miterlimit:4;stroke-dasharray:none;stroke:#000000" />
  <path
     id="Shape2DView_nwe0058"
     d="m 10.3036,3.5936 v 0.64"
     stroke="#191919"
     stroke-width="0.35 px"
     style="fill:none;fill-opacity:1;fill-rule:evenodd;stroke-width:0.1;stroke-miterlimit:4;stroke-dasharray:none;stroke:#000000" />
  <path
     id="Shape2DView_nwe0061"
     d="m 10.3036,1.0536 v 0.64"
     stroke="#191919"
     stroke-width="0.35 px"
     style="fill:none;fill-opacity:1;fill-rule:evenodd;stroke-width:0.1;stroke-miterlimit:4;stroke-dasharray:none;stroke:#000000" />
  <path
     id="Shape2DView_nwe0064"
     d="m 10.3036,8.6736 v 0.64"
     stroke="#191919"
     stroke-width="0.35 px"
     style="fill:none;fill-opacity:1;fill-rule:evenodd;stroke-width:0.1;stroke-miterlimit:4;stroke-dasharray:none;stroke:#000000" />
  <path
     id="Shape2DView_nwe0081"
     d="m 0.7436,6.1336 v 0.64"
     stroke="#191919"
     stroke-width="0.35 px"
     style="fill:none;fill-opacity:1;fill-rule:evenodd;stroke-width:0.1;stroke-miterlimit:4;stroke-dasharray:none;stroke:#000000" />
  <path
     id="Shape2DView_nwe0082"
     d="m 0.7436,3.5936 v 0.64"
     stroke="#191919"
     stroke-width="0.35 px"
     style="fill:none;fill-opacity:1;fill-rule:evenodd;stroke-width:0.1;stroke-miterlimit:4;stroke-dasharray:none;stroke:#000000" />
  <path
     id="Shape2DView_nwe0083"
     d="m 0.7436,1.0536 v 0.64"
     stroke="#191919"
     stroke-width="0.35 px"
     style="fill:none;fill-opacity:1;fill-rule:evenodd;stroke-width:0.1;stroke-miterlimit:4;stroke-dasharray:none;stroke:#000000" />
  <path
     id="Shape2DView_nwe0084"
     d="m 0.7436,8.6736 v 0.64"
     stroke="#191919"
     stroke-width="0.35 px"
     style="fill:none;fill-opacity:1;fill-rule:evenodd;stroke-width:0.1;stroke-miterlimit:4;stroke-dasharray:none;stroke:#000000" />
  <g
     id="Rectangle"
     transform="matrix(1,0,0,-1,0.4236,1.3736)"
     style="display:none">
    <rect
       fill="#ff0000"
       id="origin"
       width="1"
       height="1"
       x="0"
       y="0" />
    <title
       id="title91">b'Rectangle'</title>
  </g>
</svg>
