<svg width="3.876mm" height="3.676mm" version="1.1" viewBox="0 0 3.876 3.676" xmlns="http://www.w3.org/2000/svg">
 <g fill-rule="evenodd" stroke="#191919" stroke-width=".02">
  <path d="m0.038 3.638v-3.6h3.8v3.6z" fill="#808080"/>
  <path d="m0.1783 0.63239v2.4177c-2.2e-7 0.25564 0.20724 0.46288 0.46288 0.46288h2.5871c0.27614-2.7e-6 0.5-0.22386 0.5-0.5h4.8e-6v-2.35c0-0.27614-0.22386-0.5-0.5-0.5h4.8e-6 -2.5806c-0.25924-2.87e-6 -0.4694 0.21015-0.4694 0.46939z" fill="#999"/>
  <path d="m0.873 3.2676c-0.25405 0-0.46-0.20595-0.46-0.46v-1.93c2.21e-6 -0.25405 0.20595-0.46 0.46-0.46l2.13-2e-6c0.25405 0 0.46 0.20595 0.46 0.46v1.93c2.2e-6 0.25405-0.20595 0.46-0.46 0.46z" fill="#b3b3b3"/>
 </g>
 <g fill="#4d4d4d" stroke="#191919" stroke-width=".02">
  <g fill-rule="evenodd">
   <path d="m1.0446 2.6089 0.017862-0.036588c0.017376-0.022905 0.043836-0.034358 0.079378-0.034358 0.03495 0 0.061311 0.011156 0.079082 0.033469l0.018351 0.035832-0.018351-0.035831c0.017673 0.022313 0.026706 0.055387 0.027101 0.099223l1e-7 -5e-7v0.05435c0 0.04502-0.00869 0.078785-0.026064 0.1013l0.017888-0.03624-0.017888 0.03624c-0.017377 0.022608-0.043935 0.033912-0.079675 0.033912-0.035345 0-0.061705-0.011008-0.079082-0.033025l2e-7 -2e-7 -0.018185-0.035544 0.018185 0.035544c-0.017475-0.021918-0.02641-0.054795-0.026805-0.09863l1e-7 -1e-7v-0.054202c0-0.045119 0.00869-0.079131 0.026064-0.10204z"/>
   <path d="m1.318 2.7261-0.00641 0.00811z"/>
   <path d="m1.306 2.7438-0.00284 0.00691-0.00158 0.00527-0.00229 0.018637z"/>
   <path d="m1.484 2.6833 0.00634-0.00818-4.1e-6 -1e-7c0.00918-0.013526 0.013773-0.028829 0.013773-0.045909z"/>
   <path d="m1.349 2.5461-0.027968 0.016444z"/>
   <path d="m1.2922 2.6292 0.00207 0.018945z"/>
   <path d="m1.3017 2.668 2.075e-4 3.789e-4z"/>
   <path d="m2.5624 2.8535-0.030051-0.014686c-0.019153-0.014315-0.02873-0.03569-0.02873-0.064124l-1e-7 -4e-7c0-0.014513 4e-3 -0.027546 0.011996-0.039097l-0.00767 0.014563 0.00185-0.00441 8.041e-4 -0.00166 0.00502-0.00849c8e-3 -0.011551 0.019697-0.020536 0.035098-0.026953l-0.010861 0.0053 0.00115-6.412e-4 5.834e-4 -3.153e-4 0.00913-0.00434c-0.017475-0.00484-0.031001-0.013923-0.040578-0.027249l5.7e-6 -2e-7 -0.00881-0.016138 0.018755 0.027225-0.00995-0.011087c-0.00958-0.01323-0.014365-0.029125-0.014365-0.047686 0-0.030803 0.00977-0.054449 0.029323-0.070937l0.026848-0.01563-0.026849 0.015631 1e-7 -4e-7c0.019443-0.016494 0.047284-0.024738 0.083518-0.024738h0.11803v0.32225h-0.11092c-0.036529 0-0.064321-0.00716-0.083376-0.021473z"/>
  </g>
  <circle transform="scale(1,-1)" cx="2.563" cy="-.888" r=".25"/>
  <g fill-rule="evenodd">
   <path d="m2.1593 2.7864 0.09552-0.24835h0.040281l0.095224 0.24806h-1e-7l-0.00548-0.14187h-4e-7v-0.10618h0.055979v0.32225h-0.072862l-0.093298-0.24702-0.093151 0.24702h-0.072566v-0.32225h0.055979v0.10618l-0.00563 0.14217z"/>
   <path d="m1.8306 2.6808c0.020733-0.01787 0.049858-0.026805 0.087375-0.026805v1e-7h0.06679v-0.11596h0.056275v0.32225h-0.12381c-0.036135 0-0.064815-0.00958-0.086042-0.02873l-2e-7 -1e-7c-0.021227-0.019055-0.03184-0.04428-0.03184-0.075676h1e-7c0-0.032185 0.010416-0.057213 0.031248-0.075083l-2e-7 -1e-7 0.031466-0.01812z"/>
   <path d="m1.6113 2.8603v-0.32225h0.053758-1e-7v0.25665l0.079378-0.027397v-3e-7 0.045613-2e-7l-0.12618 0.04739z"/>
   <path d="m1.447 2.5462 0.028082 0.016539c0.019351 0.016488 0.029026 0.038653 0.029026 0.066494l2e-7 2e-7 -0.0022 0.019628-0.00242 0.00826-0.00915 0.018018c-0.00918 0.013526-0.022066 0.023942-0.038652 0.031248l-4e-7 -3e-7c0.013921 0.00681 0.024929 0.016093 0.033025 0.027842l-0.0064-0.00811 0.0064 0.00811c8e-3 0.011847 0.011996 0.025324 0.011996 0.04043l-0.00223-0.018637 0.00223 0.018636c0 0.026262-0.00889 0.047094-0.026657 0.062495l-0.026093 0.015489 0.026093-0.015489-3e-7 2e-7c-0.017771 0.015402-0.041762 0.023102-0.071973 0.023102-0.03031 0-0.05435-0.0077-0.072121-0.023102l0.026137 0.015495-0.026137-0.015496c-0.017775-0.015398-0.026661-0.03623-0.026661-0.062492 0-0.015105 0.0041-0.028582 0.012292-0.04043l-3e-7 5e-7c0.0081-0.011749 0.019154-0.021029 0.033173-0.027842l-0.020872-0.012482 0.020872 0.012483h-4e-7c-0.016883-0.0077-0.029865-0.018265-0.038949-0.031692l0.00633 0.00819-0.00633-0.00819c-0.0090823-0.013428-0.013624-0.028582-0.013624-0.045465 0-0.028039 0.00963-0.050253 0.028878-0.066642h2e-7c0.019252-0.016389 0.044872-0.024584 0.07686-0.024584 0.032087 0 0.057806 0.00824 0.077157 0.024732z"/>
  </g>
 </g>
 <g fill-rule="evenodd" stroke="#191919" stroke-width=".02">
  <path d="m1.8612 2.783 0.010623 0.015389c0.010663 0.010761 0.025324 0.01629 0.043984 0.016587l-0.010026-7.126e-4 0.010026 7.121e-4h0.069012-5e-7v-0.11581h-0.067531c-0.019943 0-0.035148 0.00479-0.045613 0.014365l3e-7 1e-7c-0.010564 0.00968-0.015846 0.023645-0.015846 0.04191v4e-7c0 0.017969 0.00533 0.032284 0.015994 0.042947l7e-7 1.9e-6 0.00393 0.00358z" fill="#b3b3b3"/>
  <path d="m2.598 2.686 0.00511 2.507e-4h0.067086v-0.10337h-0.062347c-0.017673 0-0.031445 0.00444-0.041318 0.013328v4e-7c-0.00997 0.00898-0.014957 0.021425-0.014957 0.03732l-5e-7 -5e-7c0 0.034358 0.017179 0.051932 0.051536 0.052721z" fill="#b3b3b3"/>
  <path d="m2.5598 2.7663-2.292e-4 0.00508c0 0.015402 0.00454 0.026509 0.013625 0.033321h-4e-7c0.00908 0.00681 0.023251 0.010218 0.042503 0.010218l-3e-7 5e-7h0.054646v-0.087375h-0.055091c-0.017475 0-0.0311 0.0038-0.040874 0.011403l2e-7 2e-7c-0.00987 0.0076-0.014809 0.018413-0.014809 0.032432z" fill="#999"/>
  <path d="m1.861 2.7283 0.010657-0.014775z" fill="#4d4d4d"/>
  <path d="m1.1057 2.8007-0.00297-0.00431z" fill="#4d4d4d"/>
  <path d="m1.1474 2.8167-0.0051 1.876e-4 3.3e-6 1e-7c-0.018067 0-0.031248-0.00681-0.039541-0.020437l2e-7 -2e-7c-0.00829-0.013526-0.01244-0.034802-0.01244-0.063828l1.811e-4 0.010169-1.811e-4 -0.010169v-0.070196l3.665e-4 -0.010105-3.662e-4 0.010105c4.933e-4 -0.027941 0.00489-0.048476 0.01318-0.061607l0.00304-0.00427-0.00304 0.00427c0.00829-0.013131 0.021079-0.019696 0.038356-0.019696h4.5e-6l-0.0051 2.007e-4 0.010196-2.1e-6 -0.0051-1.986e-4c0.018067 0 0.031346 0.00711 0.039837 0.021325v-2e-7c0.00839 0.014217 0.012588 0.03579 0.012588 0.064717v0.070344l-3.459e-4 0.010111 3.456e-4 -0.010111c-3.947e-4 0.027249-0.00474 0.047291-0.013032 0.060126l-0.0031 0.00424 0.0031-0.00424c-0.00829 0.012835-0.021276 0.019252-0.038949 0.019252l-0.0051-1.906e-4z" fill="#b3b3b3"/>
  <path d="m1.1941 2.657 1.84e-4 0.010167z" fill="#4d4d4d"/>
  <path d="m1.1788 2.5981 0.0029 0.00434z" fill="#4d4d4d"/>
  <path d="m1.374 2.6793-0.013594-0.00949-3e-7 -3e-7c-0.00958-0.00958-0.014365-0.022165-0.014365-0.037764l-3e-7 4e-7c0-0.016093 0.00459-0.028631 0.013773-0.037616l-1e-7 -4e-7c0.00908-0.00889 0.02177-0.013328 0.03806-0.013328v-1e-7c0.01629 0 0.029076 0.00459 0.038356 0.013773l0.00914 0.013332-0.00914-0.013332c0.00918 0.00928 0.013773 0.02167 0.013773 0.037171 0 0.015698-0.00469 0.028286-0.014069 0.037764l-0.00394 0.0036 0.013259-0.01715-0.00932 0.01355 1.2e-6 2e-7c-0.00938 0.00958-0.021918 0.014365-0.037616 0.014365l1e-7 -1e-7c-0.015698 0-0.028335-0.00479-0.037912-0.014365l-0.0088299-0.012203z" fill="#b3b3b3"/>
  <path d="m1.3865 2.8157" fill="#4d4d4d"/>
  <path d="m1.4189 2.7316 0.011731 0.00798-5e-7 -1e-6c0.0081 0.0081 0.012144 0.018955 0.012144 0.03258l5e-7 -4e-7c0 0.013822-4e-3 0.024732-0.011996 0.032729l4e-7 -4e-7c-8e-3 8e-3 -0.018858 0.011996-0.032581 0.011996l3e-7 1e-7c-0.013822 0-0.024781-0.0042-0.032877-0.012588l3e-7 -3e-7c-0.00819-0.00839-0.012292-0.019104-0.012292-0.032136l7.969e-4 -0.00993 6.99e-5 0.019822-8.668e-4 -0.00989-4e-7 -2.1e-6c0-0.013624 0.00405-0.024484 0.012144-0.03258l-4e-7 4e-7c8e-3 -8e-3 0.018907-0.011996 0.032729-0.011996h1e-7c0.013723 0 0.024633 4e-3 0.032729 0.011996l0.00806 0.01166z" fill="#b3b3b3"/>
  <path d="m1.3616 2.7436 0.00355-0.00406z" fill="#b3b3b3"/>
 </g>
 <g fill="#4d4d4d" fill-rule="evenodd" stroke="#191919" stroke-width=".02">
  <path d="m2.5517 2.6386-1.334e-4 -0.00511z"/>
  <path d="m2.592 2.7304 0.013175-0.00236z"/>
  <path d="m2.5704 2.7425 0.00398-0.00351z"/>
 </g>
 <g fill="none" stroke="#191919" stroke-width=".02">
  <path d="m0.873 0.41757v0.06998"/>
  <path d="m0.873 0.48757h2.13"/>
  <path d="m3.003 0.41757v0.06998"/>
  <path d="m0.483 0.87757a0.39 0.39 0 0 1 0.39-0.39"/>
  <path d="m0.413 0.87757h0.06998"/>
  <path d="m3.003 3.1976h-2.13"/>
  <path d="m0.873 3.1976a0.39 0.39 0 0 1-0.39-0.39"/>
  <path d="m0.483 2.8076v-1.93"/>
  <path d="m3.003 0.48757a0.39 0.39 0 0 1 0.39 0.39"/>
  <path d="m3.393 0.87757v1.93"/>
  <path d="m3.393 2.8076a0.39 0.39 0 0 1-0.39 0.39"/>
  <path d="m3.463 0.87757h-0.07"/>
  <path d="m0.413 2.8076h0.06998"/>
  <path d="m3.003 3.2676v-0.06998"/>
  <path d="m0.873 3.2676v-0.06998"/>
  <path d="m3.463 2.8076h-0.07"/>
 </g>
 <g transform="matrix(1,0,0,-1,1.938,1.838)" display="none" stroke-width=".02">
  <rect width="1" height="1" fill="#f00" stroke-width=".02"/>
  <title>b'Rectangle'</title>
 </g>
</svg>
