<?xml version="1.0" encoding="UTF-8" standalone="no"?>
<svg
   xmlns:dc="http://purl.org/dc/elements/1.1/"
   xmlns:cc="http://creativecommons.org/ns#"
   xmlns:rdf="http://www.w3.org/1999/02/22-rdf-syntax-ns#"
   xmlns:svg="http://www.w3.org/2000/svg"
   xmlns="http://www.w3.org/2000/svg"
   xmlns:sodipodi="http://sodipodi.sourceforge.net/DTD/sodipodi-0.dtd"
   xmlns:inkscape="http://www.inkscape.org/namespaces/inkscape"
   width="50.960752537920314mm"
   height="43.17323326392042mm"
   viewBox="0 0 50.960752537920314 43.17323326392042"
   version="1.1"
   id="svg3148"
   sodipodi:docname="cooler.svg"
   inkscape:version="1.0.2 (e86c870879, 2021-01-15)">
  <metadata
     id="metadata3154">
    <rdf:RDF>
      <cc:Work
         rdf:about="">
        <dc:format>image/svg+xml</dc:format>
        <dc:type
           rdf:resource="http://purl.org/dc/dcmitype/StillImage" />
      </cc:Work>
    </rdf:RDF>
  </metadata>
  <defs
     id="defs3152" />
  <sodipodi:namedview
     pagecolor="#ffffff"
     bordercolor="#666666"
     borderopacity="1"
     objecttolerance="10"
     gridtolerance="10"
     guidetolerance="10"
     inkscape:pageopacity="0"
     inkscape:pageshadow="2"
     inkscape:window-width="1366"
     inkscape:window-height="713"
     id="namedview3150"
     showgrid="false"
     inkscape:zoom="2.0000001"
     inkscape:cx="90.664867"
     inkscape:cy="30.483307"
     inkscape:window-x="0"
     inkscape:window-y="0"
     inkscape:window-maximized="1"
     inkscape:current-layer="svg3148"
     inkscape:document-rotation="0" />
  <ellipse
     style="fill:#313d63;stroke-width:0;fill-opacity:1"
     id="path852"
     cx="30.533197"
     cy="20.339975"
     rx="19.947279"
     ry="19.373152" />
  <path
     id="rect2554"
     style="fill:#333333;stroke:#000000;stroke-width:0.349188;stroke-miterlimit:4;stroke-dasharray:none"
     d="M 54.548828 1.6816406 C 46.238826 1.6816406 39.548828 8.3716405 39.548828 16.681641 L 39.548828 137.8125 C 39.548828 146.1225 46.238826 152.8125 54.548828 152.8125 L 176.20312 152.8125 C 184.51312 152.8125 191.20312 146.1225 191.20312 137.8125 L 191.20312 16.681641 C 191.20312 8.3716405 184.51312 1.6816406 176.20312 1.6816406 L 54.548828 1.6816406 z M 115.30273 4.8378906 A 72.518215 72.518215 0 0 1 115.35547 4.8378906 A 72.518215 72.518215 0 0 1 187.875 77.355469 A 72.518215 72.518215 0 0 1 115.35547 149.875 A 72.518215 72.518215 0 0 1 42.837891 77.355469 A 72.518215 72.518215 0 0 1 115.30273 4.8378906 z "
     transform="scale(0.26458333)" />
  <path
     id="path2660"
     style="fill:#1a1a1a;stroke:#000000;stroke-width:0.35;stroke-linecap:butt;stroke-linejoin:miter;stroke-miterlimit:4;stroke-dasharray:none;stroke-opacity:1"
     d="m 135.67383,4.6933594 -0.0391,0.029297 H 94.623047 l -0.01758,0.021484 C 69.159935,11.965109 49.191378,32.214327 42.367188,57.824219 l 0.04297,39.085937 C 49.409121,122.95151 70.00415,143.42135 96.11719,150.24414 l 38.45703,0.17383 c 36.80679,-10.08233 53.5715,-46.6254 53.53711,-52.740236 L 187.88281,57.046875 C 180.84778,31.743675 160.94868,11.796307 135.67383,4.6933594 Z m -20.3711,0.1445312 a 72.518215,72.518215 0 0 1 0.0527,0 A 72.518215,72.518215 0 0 1 187.875,77.355469 72.518215,72.518215 0 0 1 115.35547,149.875 72.518215,72.518215 0 0 1 42.837891,77.355469 72.518215,72.518215 0 0 1 115.30273,4.8378906 Z"
     transform="scale(0.26458333)" />
  <g
     id="g2721"
     style="fill:#1a1a1a">
    <ellipse
       style="fill:#1a1a1a;stroke:#000000;stroke-width:0.0926042;stroke-miterlimit:4;stroke-dasharray:none"
       id="path2662"
       cx="30.635696"
       cy="20.520714"
       rx="11.120236"
       ry="11.285712" />
    <path
       style="fill:#1a1a1a;stroke:#000000;stroke-width:0.0926042;stroke-linecap:butt;stroke-linejoin:miter;stroke-miterlimit:4;stroke-dasharray:none;stroke-opacity:1"
       d="M 23.611016,11.783765 33.991832,1.2347034 36.214695,1.7793044 26.836719,11.664413 Z"
       id="path2664" />
    <path
       style="fill:#1a1a1a;stroke:#000000;stroke-width:0.0926042;stroke-linecap:butt;stroke-linejoin:miter;stroke-miterlimit:4;stroke-dasharray:none;stroke-opacity:1"
       d="m 39.207092,14.254266 10.549062,10.380816 -0.544601,2.222863 -9.885109,-9.377976 z"
       id="path2664-1" />
    <path
       style="fill:#1a1a1a;stroke:#000000;stroke-width:0.0926042;stroke-linecap:butt;stroke-linejoin:miter;stroke-miterlimit:4;stroke-dasharray:none;stroke-opacity:1"
       d="M 21.833811,27.306753 11.284749,16.925937 11.82935,14.703074 21.714459,24.08105 Z"
       id="path2664-2" />
    <path
       style="fill:#1a1a1a;stroke:#000000;stroke-width:0.0926042;stroke-linecap:butt;stroke-linejoin:miter;stroke-miterlimit:4;stroke-dasharray:none;stroke-opacity:1"
       d="M 37.048233,29.17792 26.667417,39.726982 24.444554,39.182381 33.82253,29.297272 Z"
       id="path2664-7" />
  </g>
  <path
     id="Shape2DView_nwe0200"
     d="m 35.886771,39.749615 h -0.344617 m 0,0 H 25.431193 m 0,0 h -0.395689"
     stroke="#191919"
     stroke-width="0.35 px"
     style="fill:none;fill-opacity:1;fill-rule:evenodd;stroke-width:0.0926042;stroke-miterlimit:4;stroke-dasharray:none"
     sodipodi:nodetypes="cccccc" />
  <rect
     fill="#ff0000"
     id="origin"
     width="1"
     height="1"
     x="0.49961501"
     y="-42.673618"
     transform="scale(1,-1)"
     style="stroke-width:0.09260417;stroke-miterlimit:4;stroke-dasharray:none" />
  <circle
     style="fill:#1a1a1a;stroke:#000000;stroke-width:0.0926042;stroke-miterlimit:4;stroke-dasharray:none"
     id="path7119"
     cx="14.458228"
     cy="4.4947796"
     r="2.1763024" />
  <circle
     style="fill:#1a1a1a;stroke:#000000;stroke-width:0.0926042;stroke-miterlimit:4;stroke-dasharray:none"
     id="path7119-3"
     cx="14.492505"
     cy="36.526413"
     r="2.1763024" />
  <circle
     style="fill:#1a1a1a;stroke:#000000;stroke-width:0.0926042;stroke-miterlimit:4;stroke-dasharray:none"
     id="path7119-6"
     cx="46.463608"
     cy="36.544765"
     r="2.1763024" />
  <circle
     style="fill:#1a1a1a;stroke:#000000;stroke-width:0.0926042;stroke-miterlimit:4;stroke-dasharray:none"
     id="path7119-7"
     cx="46.511864"
     cy="4.5286522"
     r="2.1763024" />
  <g
     id="g46">
    <path
       style="fill:#333333;stroke:#000000;stroke-width:0.0926042;stroke-linecap:butt;stroke-linejoin:miter;stroke-miterlimit:4;stroke-dasharray:none;stroke-opacity:1"
       d="m 40.267683,15.516481 -5.473475,-5.127479 h -10e-7 l 5.140818,-5.487718 v 0 l 0.302108,0.187542 v 0 l 1.10448,0.758904 0.0595,0.044376 0.162464,0.130717 -0.221969,-0.175093 0.834877,0.658565 v 0 l 0.21172,0.180014 v 0 l 0.489159,0.437968 0.06063,0.056543 0.780779,0.776971 v 0 l 0.413665,0.452251 v 0 l 0.244905,0.282733 v 0 l 0.446246,0.54708 h 9e-6 l 0.123148,0.158877 v 0 l 0.461757,0.630031 v 0 l -5.140819,5.487718 z"
       id="path2556"
       sodipodi:nodetypes="ccccccccccccccccccccccccccccccc" />
    <path
       style="fill:#333333;stroke:#000000;stroke-width:0.0926042;stroke-linecap:butt;stroke-linejoin:miter;stroke-miterlimit:4;stroke-dasharray:none;stroke-opacity:1"
       d="m 40.471414,25.059744 0.614592,-7.474774 -10e-7,-10e-7 7.494222,0.616188 v 0 l 0.04086,0.353229 v 0 l 0.092,1.336917 0.0022,0.0742 -0.0014,0.208518 -8.02e-4,-0.282714 0.003,1.063353 v 0 l -0.0094,0.277744 v 0 l -0.03905,0.655415 -0.0066,0.08264 -0.12335,1.09457 v 0 l -0.09716,0.605153 v 0 l -0.06926,0.367585 v 0 l -0.151198,0.689616 6e-6,7e-6 -0.04792,0.195221 v 0 l -0.206539,0.753327 v 0 l -7.494223,-0.616189 z"
       id="path2556-3"
       sodipodi:nodetypes="ccccccccccccccccccccccccccccccc" />
    <path
       style="fill:#333333;stroke:#000000;stroke-width:0.0926042;stroke-linecap:butt;stroke-linejoin:miter;stroke-miterlimit:4;stroke-dasharray:none;stroke-opacity:1"
       d="m 33.15283,31.192251 6.201228,-4.218382 v -1e-6 l 4.22936,6.217361 v 0 l -0.249123,0.25373 v 0 l -0.98226,0.911579 -0.05633,0.04834 -0.163109,0.129912 0.219434,-0.17826 -0.825342,0.670477 v 0 l -0.221992,0.167182 v 0 l -0.534419,0.381429 -0.06844,0.04678 -0.929035,0.591773 v 0 l -0.531831,0.30464 v 0 l -0.329484,0.177078 v 0 l -0.631492,0.315673 -2e-6,9e-6 -0.18198,0.08538 v 0 l -0.715826,0.312651 v 0 l -4.22936,-6.217362 z"
       id="path2556-6"
       sodipodi:nodetypes="ccccccccccccccccccccccccccccccc" />
    <path
       style="fill:#333333;stroke:#000000;stroke-width:0.0926042;stroke-linecap:butt;stroke-linejoin:miter;stroke-miterlimit:4;stroke-dasharray:none;stroke-opacity:1"
       d="m 23.775374,29.284319 7.168633,2.204693 1e-6,-10e-7 -2.210427,7.187286 v 0 l -0.353768,-0.03591 v 0 l -1.325504,-0.197105 -0.07294,-0.01376 -0.203353,-0.04614 0.276298,0.0599 -1.039219,-0.225284 v 0 l -0.269248,-0.06882 v 0 l -0.631757,-0.178819 -0.07929,-0.02419 -1.042582,-0.35542 v 0 l -0.570192,-0.224788 v 0 l -0.344152,-0.146546 v 0 l -0.641091,-0.295694 -8e-6,4e-6 -0.180387,-0.0887 v 0 l -0.691443,-0.363421 v 0 l 2.210427,-7.187285 z"
       id="path2556-7"
       sodipodi:nodetypes="ccccccccccccccccccccccccccccccc" />
    <path
       style="fill:#333333;stroke:#000000;stroke-width:0.0926042;stroke-linecap:butt;stroke-linejoin:miter;stroke-miterlimit:4;stroke-dasharray:none;stroke-opacity:1"
       d="m 19.425063,20.663652 2.7792,6.966062 h 10e-7 l -6.984186,2.786432 v 0 l -0.193926,-0.298051 v 0 l -0.677867,-1.155986 -0.03503,-0.06545 -0.09161,-0.187321 0.12665,0.25276 -0.476359,-0.950691 v 0 l -0.11528,-0.25286 v 0 l -0.256979,-0.604197 -0.03089,-0.07693 -0.377113,-1.034932 v 0 l -0.18256,-0.585083 v 0 l -0.101719,-0.359957 v 0 l -0.171806,-0.684774 -8e-6,-4e-6 -0.04406,-0.196127 v 0 l -0.150637,-0.766464 v 0 l 6.984188,-2.786431 z"
       id="path2556-5"
       sodipodi:nodetypes="ccccccccccccccccccccccccccccccc" />
    <path
       style="fill:#333333;stroke:#000000;stroke-width:0.0926042;stroke-linecap:butt;stroke-linejoin:miter;stroke-miterlimit:4;stroke-dasharray:none;stroke-opacity:1"
       d="m 23.423934,12.049635 -3.784114,6.475373 v 1e-6 l -6.492222,-3.793958 v 0 l 0.115779,-0.336209 v 0 l 0.494713,-1.24542 0.03006,-0.06787 0.09139,-0.187434 -0.121435,0.255307 0.456744,-0.960267 v 0 l 0.128509,-0.246407 v 0 l 0.318419,-0.574196 0.04167,-0.07167 0.584205,-0.933811 v 0 l 0.349109,-0.503759 v 0 l 0.221295,-0.30157 v 0 l 0.434335,-0.556584 -2e-6,-9e-6 0.127567,-0.155351 v 0 L 16.93172,8.255683 v 0 l 6.492221,3.793959 z"
       id="path2556-35"
       sodipodi:nodetypes="ccccccccccccccccccccccccccccccc" />
    <path
       style="fill:#333333;stroke:#000000;stroke-width:0.0926042;stroke-linecap:butt;stroke-linejoin:miter;stroke-miterlimit:4;stroke-dasharray:none;stroke-opacity:1"
       d="m 32.615706,9.8052266 -7.431711,1.0097704 -1e-6,10e-7 -1.012401,-7.4510469 v 0 L 24.507731,3.247966 v 0 l 1.285722,-0.3777922 0.07197,-0.018148 0.203929,-0.043526 -0.275905,0.061678 1.037743,-0.2319867 v 0 l 0.273253,-0.050623 v 0 l 0.648442,-0.1030346 0.08212,-0.011349 1.095448,-0.1152962 v 0 l 0.611876,-0.03546 v 0 l 0.373876,-0.011535 v 0 l 0.705996,-8.855e-4 6e-6,-7.1e-6 0.20096,0.00474 v 0 l 0.78013,0.039434 v 0 l 1.012401,7.451047 z"
       id="path2556-62"
       sodipodi:nodetypes="ccccccccccccccccccccccccccccccc" />
    <circle
       style="fill:#4d4d4d;stroke:#000000;stroke-width:0.118434;stroke-miterlimit:4;stroke-dasharray:none"
       id="path2623"
       cx="30.443251"
       cy="20.374313"
       r="10.98849" />
  </g>
</svg>
