<?xml version="1.0" encoding="UTF-8" standalone="no"?>
<svg
   xmlns:dc="http://purl.org/dc/elements/1.1/"
   xmlns:cc="http://creativecommons.org/ns#"
   xmlns:rdf="http://www.w3.org/1999/02/22-rdf-syntax-ns#"
   xmlns:svg="http://www.w3.org/2000/svg"
   xmlns="http://www.w3.org/2000/svg"
   xmlns:sodipodi="http://sodipodi.sourceforge.net/DTD/sodipodi-0.dtd"
   xmlns:inkscape="http://www.inkscape.org/namespaces/inkscape"
   width="20.38560162331744mm"
   height="16.89512877085484mm"
   viewBox="0 0 20.38560162331744 16.89512877085484"
   version="1.1"
   id="svg135"
   sodipodi:docname="dc_motor.svg"
   inkscape:version="1.0.2 (e86c870879, 2021-01-15)">
  <metadata
     id="metadata141">
    <rdf:RDF>
      <cc:Work
         rdf:about="">
        <dc:format>image/svg+xml</dc:format>
        <dc:type
           rdf:resource="http://purl.org/dc/dcmitype/StillImage" />
      </cc:Work>
    </rdf:RDF>
  </metadata>
  <defs
     id="defs139" />
  <sodipodi:namedview
     pagecolor="#ffffff"
     bordercolor="#666666"
     borderopacity="1"
     objecttolerance="10"
     gridtolerance="10"
     guidetolerance="10"
     inkscape:pageopacity="0"
     inkscape:pageshadow="2"
     inkscape:window-width="1366"
     inkscape:window-height="713"
     id="namedview137"
     showgrid="false"
     inkscape:zoom="5.6568543"
     inkscape:cx="48.964306"
     inkscape:cy="21.680986"
     inkscape:window-x="0"
     inkscape:window-y="0"
     inkscape:window-maximized="1"
     inkscape:current-layer="svg135"
     inkscape:document-rotation="0" />
  <path
     id="Shape2DView_nwe0003"
     d="m 14.442802,1.4808676 c 0.0056,-0.00101 0.01118,-0.00251 0.01657,-0.00447 z"
     stroke="#191919"
     stroke-width="0.35 px"
     style="fill:#808000;fill-opacity:1;fill-rule:evenodd;stroke-width:0.0926042;stroke-miterlimit:4;stroke-dasharray:none"
     sodipodi:nodetypes="ccc" />
  <path
     id="Shape2DView_nwe0008"
     d="m 18.035053,0.3877974 -0.328892,0.1197071 v 0 L 14.442802,1.69527 v 0 l 0.01657,-0.2188663 h -10e-7 L 17.637757,0.319566 v 0 l 0.328892,-0.1197071 v 0 l 0.0684,0.1879385 z"
     stroke="#191919"
     stroke-width="0.35 px"
     style="fill:#808000;fill-opacity:1;fill-rule:evenodd;stroke-width:0.0926042;stroke-miterlimit:4;stroke-dasharray:none"
     sodipodi:nodetypes="ccccccccccccc" />
  <path
     style="fill:#808000;stroke:#000000;stroke-width:0.0926042;stroke-linecap:butt;stroke-linejoin:miter;stroke-miterlimit:4;stroke-dasharray:none;stroke-opacity:1"
     d="M 5.9428019,1.69527 5.9262326,1.4764037 h 1e-7 L 2.7478471,0.319566 v 0 L 2.4189547,0.1998589 v 0 l -0.068404,0.1879385 v 0 l 0.3288925,0.1197071 v 0 L 5.942802,1.69527 Z"
     id="path924"
     sodipodi:nodetypes="ccccccccccccc" />
  <rect
     style="fill:#bdaa65;stroke:#000000;stroke-width:0.0926042;stroke-miterlimit:4;stroke-dasharray:none;fill-opacity:1"
     id="rect922"
     width="8.5"
     height="1.2500001"
     x="5.942802"
     y="0.44527" />
  <path
     id="Shape2DView_nwe0073"
     d="m 3.5064406,16.631167 1.4e-6,3e-6 m 11.12342,-14.9359 v 0 m -0.18706,0 v 0 m 0,0 v -1.25 m 0,0 v 0 m 0,0 h -3.281754 v 0 H 9.2245562 v 0 H 5.942802 m 0,0 v 0 m 0,0 v 1.25 m -0.1870598,0 H 4.2819765 3.8276762 v 0 h -0.069755 -0.084322 4e-7 c -0.061721,0 -0.1212616,0.022831 -0.1671576,0.0641 l -1.4e-6,2.6e-6 C 1.9028474,3.2013242 0.80836415,5.1230399 0.386242,7.23788 l -1.46e-5,7.2e-5 C 0.15606629,8.3911146 0.13109871,9.5758345 0.312472,10.73767 l 7.4e-6,7.4e-5 c 0.35491806,2.273431 1.4829859,4.354916 3.1939626,5.893426 m 0,0 c 0.045896,0.04127 0.1054361,0.0641 0.1671576,0.0641 v 0 h 0.1583771 l -0.00355,-4.5e-5 c 0.043253,-4e-6 0.093586,-8e-6 0.1487397,-1.1e-5 0.1791336,-1.1e-5 0.4091202,-1.9e-5 0.649709,-3.2e-5 0.3608783,-2e-5 0.7456108,-5.1e-5 1.1288535,-5.5e-5 l 1.56e-5,1.43e-4 h 8.8741195 v 0 h 1.177073 l 2.45e-4,-2e-6 h 0.296795 0.303742 c 0.180252,0 0.304719,2e-6 0.304719,2e-6 h -4.32e-4 c 0.06172,0 0.121262,-0.02283 0.167158,-0.0641 l 1e-6,-3e-6 c 1.710976,-1.538511 2.839042,-3.619996 3.193959,-5.893427 l 3e-6,4e-6 C 20.254508,9.5758838 20.229541,8.3911374 19.999372,7.23795 l -9e-6,-6.59e-5 C 19.577242,5.1230413 18.482757,3.201323 16.879162,1.75937 v 0 c -0.0459,-0.041269 -0.105436,-0.0641 -0.167158,-0.0641 v 0 h -0.08433 -0.524046 -0.294963 -4.87e-4 -1.178316 -8.8741198"
     stroke="#191919"
     stroke-width="0.35 px"
     style="fill:#808080;fill-opacity:1;fill-rule:evenodd;stroke-width:0.0926042;stroke-miterlimit:4;stroke-dasharray:none"
     sodipodi:nodetypes="ccccccccccccccccccccscccccccccccccccccccccccccccccccccccccccccccccc" />
  <path
     id="Shape2DView_nwe0105"
     d="M 14.629862,16.44527 H 5.7557422 v 0 c -5.41725357,-3.315404 -5.41725367,-11.1845961 -2e-7,-14.5 h 2e-7 0.6870598 v 0 -0.25 0 h 7.5 v 0 0.25 0 h 0.68706 v 0 c 5.417254,3.3154039 5.417254,11.184596 0,14.5 z"
     stroke="#191919"
     stroke-width="0.35 px"
     style="fill:#999999;fill-opacity:1;fill-rule:evenodd;stroke-width:0.0926042;stroke-miterlimit:4;stroke-dasharray:none"
     sodipodi:nodetypes="ccccccccccccccccc" />
  <path
     id="Shape2DView_nwe0010"
     d="M 17.706161,0.5075045 17.637757,0.319566"
     stroke="#191919"
     stroke-width="0.35 px"
     style="fill:none;fill-opacity:1;fill-rule:evenodd;stroke-width:0.0926042;stroke-miterlimit:4;stroke-dasharray:none" />
  <path
     id="Shape2DView_nwe0015"
     d="M 2.6794431,0.5075045 2.7478471,0.319566"
     stroke="#191919"
     stroke-width="0.35 px"
     style="fill:none;fill-opacity:1;fill-rule:evenodd;stroke-width:0.0926042;stroke-miterlimit:4;stroke-dasharray:none" />
  <path
     id="Shape2DView_nwe0016"
     d="m 11.161048,0.44527 a 2,-2 0 0 1 -1.936492,0"
     stroke="#191919"
     stroke-width="0.35 px"
     style="fill:none;fill-opacity:1;fill-rule:evenodd;stroke-width:0.09260417;stroke-miterlimit:4;stroke-dasharray:none" />
  <path
     id="Shape2DView_nwe0023"
     d="m 19.897797,6.7842402 c 1e-6,9e-7 0.0075,0.029426 0.02125,0.087157 0.01837,0.076976 0.04794,0.2042772 0.08031,0.3664866"
     stroke="#191919"
     stroke-width="0.35 px"
     style="fill:none;fill-opacity:1;fill-rule:evenodd;stroke-width:0.09260417;stroke-miterlimit:4;stroke-dasharray:none" />
  <path
     id="Shape2DView_nwe0025"
     d="m 20.073125,10.737744 c -0.02551,0.163389 -0.04967,0.29176 -0.06477,0.369401 -0.01132,0.05823 -0.01755,0.08793 -0.01755,0.08793"
     stroke="#191919"
     stroke-width="0.35 px"
     style="fill:none;fill-opacity:1;fill-rule:evenodd;stroke-width:0.09260417;stroke-miterlimit:4;stroke-dasharray:none" />
  <path
     id="Shape2DView_nwe0026"
     d="m 19.990761,11.19527 c 0,0 0.0026,-0.01255 0.0077,-0.03793"
     stroke="#191919"
     stroke-width="0.35 px"
     style="fill:none;fill-opacity:1;fill-rule:evenodd;stroke-width:0.09260417;stroke-miterlimit:4;stroke-dasharray:none" />
  <path
     id="Shape2DView_nwe0027"
     d="m 20.106801,10.503945 c 0,-2e-6 0,-4e-6 10e-7,-7e-6 0.0082,-0.06171 0.01498,-0.118157 0.02013,-0.162746 0.0051,-0.04415 0.0092,-0.0825 0.01186,-0.107946 0.0013,-0.01286 0.0023,-0.02256 0.003,-0.02887"
     stroke="#191919"
     stroke-width="0.35 px"
     style="fill:none;fill-opacity:1;fill-rule:evenodd;stroke-width:0.09260417;stroke-miterlimit:4;stroke-dasharray:none" />
  <path
     id="Shape2DView_nwe0028"
     d="m 20.141757,8.186162 c -6.4e-4,-0.00631 -0.0016,-0.016007 -0.003,-0.028868 -0.0027,-0.025444 -0.0068,-0.063797 -0.01186,-0.1079463 -0.0051,-0.044589 -0.01198,-0.101033 -0.02013,-0.1627461 -10e-7,-2.3e-6 -10e-7,-4.7e-6 -10e-7,-7.1e-6"
     stroke="#191919"
     stroke-width="0.35 px"
     style="fill:none;fill-opacity:1;fill-rule:evenodd;stroke-width:0.09260417;stroke-miterlimit:4;stroke-dasharray:none" />
  <path
     id="Shape2DView_nwe0029"
     d="m 19.998427,7.2331998 c -0.0051,-0.025381 -0.0077,-0.03793 -0.0077,-0.03793"
     stroke="#191919"
     stroke-width="0.35 px"
     style="fill:none;fill-opacity:1;fill-rule:evenodd;stroke-width:0.09260417;stroke-miterlimit:4;stroke-dasharray:none" />
  <path
     id="Shape2DView_nwe0030"
     d="m 0.3948025,11.195071 c 0,0 -0.00989,-0.04651 -0.026671,-0.135437"
     stroke="#191919"
     stroke-width="0.35 px"
     style="fill:none;fill-opacity:1;fill-rule:evenodd;stroke-width:0.09260417;stroke-miterlimit:4;stroke-dasharray:none" />
  <path
     id="Shape2DView_nwe0031"
     d="M 0.4878066,6.7842402 A 10,-10 0 0 0 0.386242,7.23788"
     stroke="#191919"
     stroke-width="0.35 px"
     style="fill:none;fill-opacity:1;fill-rule:evenodd;stroke-width:0.09260417;stroke-miterlimit:4;stroke-dasharray:none" />
  <path
     id="Shape2DView_nwe0033"
     d="m 0.3862409,7.2378841 c 0.032377,-0.1622094 0.061946,-0.2895101 0.080314,-0.3664866 0.013762,-0.057673 0.021236,-0.087097 0.021252,-0.087157"
     stroke="#191919"
     stroke-width="0.35 px"
     style="fill:none;fill-opacity:1;fill-rule:evenodd;stroke-width:0.09260417;stroke-miterlimit:4;stroke-dasharray:none" />
  <path
     id="Shape2DView_nwe0034"
     d="m 0.394843,7.19527 c 0,0 -0.00259,0.012549 -0.00767,0.03793"
     stroke="#191919"
     stroke-width="0.35 px"
     style="fill:none;fill-opacity:1;fill-rule:evenodd;stroke-width:0.09260417;stroke-miterlimit:4;stroke-dasharray:none" />
  <path
     id="Shape2DView_nwe0035"
     d="m 0.2788034,7.8865946 c -3e-7,2.4e-6 -6e-7,4.7e-6 -10e-7,7.1e-6 -0.00815,0.061713 -0.014983,0.1181574 -0.020127,0.1627461 -0.00509,0.044149 -0.0092,0.082503 -0.011858,0.1079463 -0.00134,0.012861 -0.00233,0.022557 -0.00297,0.028868"
     stroke="#191919"
     stroke-width="0.35 px"
     style="fill:none;fill-opacity:1;fill-rule:evenodd;stroke-width:0.09260417;stroke-miterlimit:4;stroke-dasharray:none" />
  <path
     id="Shape2DView_nwe0036"
     d="m 0.2438472,10.204378 c 6.401e-4,0.0063 0.00163,0.01601 0.00297,0.02887 0.00266,0.02544 0.00677,0.0638 0.011858,0.107946 0.00514,0.04459 0.01198,0.101033 0.020127,0.162746 3e-7,3e-6 7e-7,5e-6 10e-7,8e-6"
     stroke="#191919"
     stroke-width="0.35 px"
     style="fill:none;fill-opacity:1;fill-rule:evenodd;stroke-width:0.09260417;stroke-miterlimit:4;stroke-dasharray:none" />
  <path
     id="Shape2DView_nwe0037"
     d="m 0.3871771,11.15734 c 0.005079,0.02538 0.007666,0.03793 0.007666,0.03793"
     stroke="#191919"
     stroke-width="0.35 px"
     style="fill:none;fill-opacity:1;fill-rule:evenodd;stroke-width:0.09260417;stroke-miterlimit:4;stroke-dasharray:none" />
  <path
     id="Shape2DView_nwe0038"
     d="M 0.4729859,10.17456 C 0.5528159,9.9485651 0.6512802,9.7212525 0.7161494,9.4974069 0.7810184,9.2735612 0.8122934,9.0531824 0.7939484,8.8296095 0.7664324,8.4942501 0.6272734,8.1517039 0.5224892,7.8079427"
     stroke="#191919"
     stroke-width="0.35 px"
     style="fill:none;fill-opacity:1;fill-rule:evenodd;stroke-width:0.09260417;stroke-miterlimit:4;stroke-dasharray:none" />
  <path
     id="Shape2DView_nwe0039"
     d="m 0.3174153,10.01737 a 1,0.259464 3.99458 0 0 -1.733e-4,0.0018"
     stroke="#191919"
     stroke-width="0.35 px"
     style="fill:none;fill-opacity:1;fill-rule:evenodd;stroke-width:0.09260417;stroke-miterlimit:4;stroke-dasharray:none" />
  <path
     id="Shape2DView_nwe0040"
     d="M 0.3171717,10.020064 A 1,0.259464 3.99458 0 0 0.472982,10.17456"
     stroke="#191919"
     stroke-width="0.35 px"
     style="fill:none;fill-opacity:1;fill-rule:evenodd;stroke-width:0.09260417;stroke-miterlimit:4;stroke-dasharray:none" />
  <path
     id="Shape2DView_nwe0041"
     d="M 0.5224897,7.8079427 A 0.258685,1 88.456 0 0 0.360492,7.95508"
     stroke="#191919"
     stroke-width="0.35 px"
     style="fill:none;fill-opacity:1;fill-rule:evenodd;stroke-width:0.09260417;stroke-miterlimit:4;stroke-dasharray:none" />
  <path
     id="Shape2DView_nwe0042"
     d="m 0.3605226,7.9560088 a 0.258685,1 88.456 0 0 9.94e-5,0.00175"
     stroke="#191919"
     stroke-width="0.35 px"
     style="fill:none;fill-opacity:1;fill-rule:evenodd;stroke-width:0.09260417;stroke-miterlimit:4;stroke-dasharray:none" />
  <path
     id="Shape2DView_nwe0043"
     d="M 0.5224897,7.8079427 C 0.5134697,7.7783527 0.5037047,7.7487177 0.4935937,7.7192197 0.4329277,7.5422317 0.3598366,7.3701721 0.3862413,7.2378836"
     stroke="#191919"
     stroke-width="0.35 px"
     style="fill:none;fill-opacity:1;fill-rule:evenodd;stroke-width:0.09260417;stroke-miterlimit:4;stroke-dasharray:none" />
  <path
     id="Shape2DView_nwe0044"
     d="M 0.3124794,10.737744 C 0.2916924,10.60459 0.3719684,10.436 0.4402572,10.261902 c 0.011381,-0.02902 0.02243,-0.05819 0.032729,-0.08734"
     stroke="#191919"
     stroke-width="0.35 px"
     style="fill:none;fill-opacity:1;fill-rule:evenodd;stroke-width:0.09260417;stroke-miterlimit:4;stroke-dasharray:none" />
  <path
     id="Shape2DView_nwe0046"
     d="m 3.7399646,16.612705 c -0.140161,0.01117 -0.233524,0.01846 -0.233524,0.01846"
     stroke="#191919"
     stroke-width="0.35 px"
     style="fill:none;fill-opacity:1;fill-rule:evenodd;stroke-width:0.09260417;stroke-miterlimit:4;stroke-dasharray:none" />
  <path
     id="Shape2DView_nwe0047"
     d="m 5.7557422,16.44527 c -0.4034072,0.03407 -0.814418,0.06902 -1.2045361,0.101376 -0.2600788,0.02157 -0.5108721,0.04199 -0.7070437,0.05773 -0.036852,0.003 -0.071777,0.0057 -0.1041978,0.0083"
     stroke="#191919"
     stroke-width="0.35 px"
     style="fill:none;fill-opacity:1;fill-rule:evenodd;stroke-width:0.09260417;stroke-miterlimit:4;stroke-dasharray:none" />
  <path
     id="Shape2DView_nwe0048"
     d="M 3.7355792,1.777513 C 3.8543581,1.786983 4.0090367,1.799391 4.1740484,1.81286 4.6525111,1.851913 5.2178487,1.899847 5.7557422,1.94527"
     stroke="#191919"
     stroke-width="0.35 px"
     style="fill:none;fill-opacity:1;fill-rule:evenodd;stroke-width:0.0926042;stroke-miterlimit:4;stroke-dasharray:none" />
  <path
     id="Shape2DView_nwe0049"
     d="m 3.5068079,1.7590429 c 0,0 0.034025,0.00265 0.09295,0.00729 0.036562,0.00288 0.08271,0.00652 0.1361198,0.01076"
     stroke="#191919"
     stroke-width="0.35 px"
     style="fill:none;fill-opacity:1;fill-rule:evenodd;stroke-width:0.0926042;stroke-miterlimit:4;stroke-dasharray:none" />
  <path
     id="Shape2DView_nwe0051"
     d="m 5.5784237,16.69527 h 6.124e-4 0.00184 0.00306 0.00428 0.00551 0.00673 0.00794 0.00916 0.010372 0.011582 0.012788 0.01399 0.015188 0.016381"
     stroke="#191919"
     stroke-width="0.35 px"
     style="fill:none;fill-opacity:1;fill-rule:evenodd;stroke-width:0.09260417;stroke-miterlimit:4;stroke-dasharray:none" />
  <path
     id="Shape2DView_nwe0052"
     d="m 5.5784237,16.695131 v 1.39e-4"
     stroke="#191919"
     stroke-width="0.35 px"
     style="fill:none;fill-opacity:1;fill-rule:evenodd;stroke-width:0.09260417;stroke-miterlimit:4;stroke-dasharray:none" />
  <path
     id="Shape2DView_nwe0053"
     d="m 6.3284237,16.69527 h -0.63057"
     stroke="#191919"
     stroke-width="0.35 px"
     style="fill:none;fill-opacity:1;fill-rule:evenodd;stroke-width:0.09260417;stroke-miterlimit:4;stroke-dasharray:none" />
  <path
     id="Shape2DView_nwe0056"
     d="M 16.712004,16.69527 H 14.80718"
     stroke="#191919"
     stroke-width="0.35 px"
     style="fill:none;fill-opacity:1;fill-rule:evenodd;stroke-width:0.09260417;stroke-miterlimit:4;stroke-dasharray:none" />
  <path
     id="Shape2DView_nwe0057"
     d="m 16.879163,16.631167 a 0.25,-0.25 0 0 1 -0.167161,0.0641"
     stroke="#191919"
     stroke-width="0.35 px"
     style="fill:none;fill-opacity:1;fill-rule:evenodd;stroke-width:0.09260417;stroke-miterlimit:4;stroke-dasharray:none" />
  <path
     id="Shape2DView_nwe0063"
     d="m 14.68775,16.69527 h 0.01638 0.01519 0.01399 0.01279 0.01158 0.01037 0.0092 0.0079 0.0067 0.0055 0.0043 0.0031 0.0018 6.13e-4"
     stroke="#191919"
     stroke-width="0.35 px"
     style="fill:none;fill-opacity:1;fill-rule:evenodd;stroke-width:0.09260417;stroke-miterlimit:4;stroke-dasharray:none" />
  <path
     id="Shape2DView_nwe0064"
     d="m 14.68775,16.69527 h -0.05789"
     stroke="#191919"
     stroke-width="0.35 px"
     style="fill:none;fill-opacity:1;fill-rule:evenodd;stroke-width:0.09260417;stroke-miterlimit:4;stroke-dasharray:none" />
  <path
     id="Shape2DView_nwe0065"
     d="m 19.912618,10.17456 c 0.04131,0.116958 0.09482,0.232051 0.129493,0.339578 0.026,0.08064 0.04141,0.157033 0.03101,0.223606"
     stroke="#191919"
     stroke-width="0.35 px"
     style="fill:none;fill-opacity:1;fill-rule:evenodd;stroke-width:0.09260417;stroke-miterlimit:4;stroke-dasharray:none" />
  <path
     id="Shape2DView_nwe0066"
     d="m 20.06819,10.017385 a 0.259464,1 86.005 0 1 1.72e-4,0.0017"
     stroke="#191919"
     stroke-width="0.35 px"
     style="fill:none;fill-opacity:1;fill-rule:evenodd;stroke-width:0.09260417;stroke-miterlimit:4;stroke-dasharray:none" />
  <path
     id="Shape2DView_nwe0067"
     d="m 20.068432,10.020064 a 0.259464,1 86.005 0 1 -0.15581,0.154496"
     stroke="#191919"
     stroke-width="0.35 px"
     style="fill:none;fill-opacity:1;fill-rule:evenodd;stroke-width:0.09260417;stroke-miterlimit:4;stroke-dasharray:none" />
  <path
     id="Shape2DView_nwe0068"
     d="m 19.863114,7.8079427 c -0.06976,0.2288499 -0.158054,0.4601282 -0.213646,0.6864006 -0.05559,0.2262724 -0.07848,0.4475389 -0.05119,0.6702612 0.04093,0.3340835 0.194762,0.6714425 0.314338,1.0099555"
     stroke="#191919"
     stroke-width="0.35 px"
     style="fill:none;fill-opacity:1;fill-rule:evenodd;stroke-width:0.09260417;stroke-miterlimit:4;stroke-dasharray:none" />
  <path
     id="Shape2DView_nwe0069"
     d="m 20.024986,7.9577668 a 1,0.258685 1.544 0 0 9.6e-5,-0.00176"
     stroke="#191919"
     stroke-width="0.35 px"
     style="fill:none;fill-opacity:1;fill-rule:evenodd;stroke-width:0.09260417;stroke-miterlimit:4;stroke-dasharray:none" />
  <path
     id="Shape2DView_nwe0070"
     d="M 20.025113,7.9550833 A 1,0.258685 1.544 0 0 19.863112,7.80794"
     stroke="#191919"
     stroke-width="0.35 px"
     style="fill:none;fill-opacity:1;fill-rule:evenodd;stroke-width:0.09260417;stroke-miterlimit:4;stroke-dasharray:none" />
  <path
     id="Shape2DView_nwe0071"
     d="m 19.999363,7.2378841 c 0.02641,0.1322885 -0.04669,0.3043481 -0.107352,0.4813361 -0.01011,0.029498 -0.01988,0.059133 -0.0289,0.088723"
     stroke="#191919"
     stroke-width="0.35 px"
     style="fill:none;fill-opacity:1;fill-rule:evenodd;stroke-width:0.09260417;stroke-miterlimit:4;stroke-dasharray:none" />
  <path
     id="Shape2DView_nwe0072"
     d="m 16.879163,16.631167 c 0,0 -0.137492,-0.01078 -0.33526,-0.02662 -0.09888,-0.0079 -0.212837,-0.01711 -0.3323,-0.02687 -0.08146,-0.0067 -0.165483,-0.01356 -0.251491,-0.02067"
     stroke="#191919"
     stroke-width="0.35 px"
     style="fill:none;fill-opacity:1;fill-rule:evenodd;stroke-width:0.09260417;stroke-miterlimit:4;stroke-dasharray:none" />
  <path
     id="Shape2DView_nwe0074"
     d="m 14.629862,16.69527 v -0.0016 -0.0047 -0.0078 -0.01073 -0.01356 -0.01622 -0.01868 -0.0209 -0.02286 -0.02454 -0.0259 -0.02694 -0.02764 -0.02799"
     stroke="#191919"
     stroke-width="0.35 px"
     style="fill:none;fill-opacity:1;fill-rule:evenodd;stroke-width:0.09260417;stroke-miterlimit:4;stroke-dasharray:none" />
  <path
     id="Shape2DView_nwe0075"
     d="m 15.960112,16.557004 c -0.418516,-0.03462 -0.884053,-0.07405 -1.33025,-0.111734"
     stroke="#191919"
     stroke-width="0.35 px"
     style="fill:none;fill-opacity:1;fill-rule:evenodd;stroke-width:0.09260417;stroke-miterlimit:4;stroke-dasharray:none" />
  <path
     id="Shape2DView_nwe0077"
     d="M 3.5064406,1.7593726 A 0.25,0.25 0 0 1 3.673602,1.69527"
     stroke="#191919"
     stroke-width="0.35 px"
     style="fill:none;fill-opacity:1;fill-rule:evenodd;stroke-width:0.0926042;stroke-miterlimit:4;stroke-dasharray:none" />
  <path
     id="Shape2DView_nwe0079"
     d="m 7.452802,9.19527 a 2.74,-2.74 0 0 0 5.48,0"
     stroke="#191919"
     stroke-width="0.35 px"
     style="fill:none;fill-opacity:1;fill-rule:evenodd;stroke-width:0.09260417;stroke-miterlimit:4;stroke-dasharray:none" />
  <path
     id="Shape2DView_nwe0080"
     d="m 12.932802,9.19527 a 2.74,-2.74 0 0 0 -5.48,0"
     stroke="#191919"
     stroke-width="0.35 px"
     style="fill:none;fill-opacity:1;fill-rule:evenodd;stroke-width:0.09260417;stroke-miterlimit:4;stroke-dasharray:none" />
  <circle
     cx="10.192802"
     cy="-9.1952696"
     r="1"
     stroke="#191919"
     stroke-width="0.35 px"
     style="fill:none;stroke-width:0.09260417;stroke-miterlimit:4;stroke-dasharray:none"
     id="circle83"
     transform="scale(1,-1)" />
  <circle
     cx="10.192802"
     cy="-9.1952696"
     r="1"
     stroke="#191919"
     stroke-width="0.35 px"
     style="fill:none;stroke-width:0.09260417;stroke-miterlimit:4;stroke-dasharray:none"
     id="circle85"
     transform="scale(1,-1)" />
  <path
     id="Shape2DView_nwe0083"
     d="m 9.202802,9.19527 a 0.99,-0.99 0 0 0 1.98,0"
     stroke="#191919"
     stroke-width="0.35 px"
     style="fill:none;fill-opacity:1;fill-rule:evenodd;stroke-width:0.09260417;stroke-miterlimit:4;stroke-dasharray:none" />
  <path
     id="Shape2DView_nwe0084"
     d="m 11.182802,9.19527 a 0.99,-0.99 0 0 0 -1.98,0"
     stroke="#191919"
     stroke-width="0.35 px"
     style="fill:none;fill-opacity:1;fill-rule:evenodd;stroke-width:0.09260417;stroke-miterlimit:4;stroke-dasharray:none" />
  <path
     id="Shape2DView_nwe0087"
     d="m 15.961778,1.8333907 c 0.08538,-0.00706 0.168821,-0.013923 0.249776,-0.020531 0.239227,-0.019526 0.456727,-0.036832 0.574619,-0.046157 0.05895,-0.00466 0.09299,-0.00733 0.09299,-0.00733"
     stroke="#191919"
     stroke-width="0.35 px"
     style="fill:none;fill-opacity:1;fill-rule:evenodd;stroke-width:0.0926042;stroke-miterlimit:4;stroke-dasharray:none" />
  <path
     id="Shape2DView_nwe0088"
     d="m 14.629862,1.9436642 c 0.446836,-0.037579 0.912561,-0.076827 1.331627,-0.1112769"
     stroke="#191919"
     stroke-width="0.35 px"
     style="fill:none;fill-opacity:1;fill-rule:evenodd;stroke-width:0.0926042;stroke-miterlimit:4;stroke-dasharray:none" />
  <path
     id="Shape2DView_nwe0089"
     d="m 14.629862,1.69527 a 0.125,0 -90 0 0 0,0.25"
     stroke="#191919"
     stroke-width="0.35 px"
     style="fill:none;fill-opacity:1;fill-rule:evenodd;stroke-width:0.0926042;stroke-miterlimit:4;stroke-dasharray:none" />
  <path
     id="Shape2DView_nwe0095"
     d="M 5.7557422,1.69527 V 1.69684 1.70154 1.7093 1.720029 1.73359 1.749813 1.768494 1.789398 1.812262 1.836799 1.8627 1.88964 1.917279 1.94527"
     stroke="#191919"
     stroke-width="0.35 px"
     style="fill:none;fill-opacity:1;fill-rule:evenodd;stroke-width:0.0926042;stroke-miterlimit:4;stroke-dasharray:none" />
  <path
     id="Shape2DView_nwe0097"
     d="m 5.7557422,16.69527 a 0,0 0 0 0 0,-0.25"
     stroke="#191919"
     stroke-width="0.35 px"
     style="fill:none;fill-opacity:1;fill-rule:evenodd;stroke-width:0.09260417;stroke-miterlimit:4;stroke-dasharray:none" />
  <circle
     cx="10.192802"
     cy="-9.1952696"
     r="2.75"
     stroke="#191919"
     stroke-width="0.35 px"
     style="fill:none;stroke-width:0.09260417;stroke-miterlimit:4;stroke-dasharray:none"
     id="circle103"
     transform="scale(1,-1)" />
  <circle
     cx="10.192802"
     cy="-9.1952696"
     r="3"
     stroke="#191919"
     stroke-width="0.35 px"
     style="fill:#e9c6af;stroke-width:0.09260417;stroke-miterlimit:4;stroke-dasharray:none"
     id="circle105"
     transform="scale(1,-1)" />
  <path
     id="Shape2DView_nwe0112"
     d="m 5.6978537,16.69527 v -1.42e-4"
     stroke="#191919"
     stroke-width="0.35 px"
     style="fill:none;fill-opacity:1;fill-rule:evenodd;stroke-width:0.09260417;stroke-miterlimit:4;stroke-dasharray:none" />
  <path
     id="Shape2DView_nwe0113"
     d="m 12.682802,9.19527 a 2.49,-2.49 0 0 1 -4.98,0"
     stroke="#191919"
     stroke-width="0.35 px"
     style="fill:none;fill-opacity:1;fill-rule:evenodd;stroke-width:0.09260417;stroke-miterlimit:4;stroke-dasharray:none" />
  <path
     id="Shape2DView_nwe0114"
     d="m 7.702802,9.19527 a 2.49,-2.49 0 0 1 4.98,0"
     stroke="#191919"
     stroke-width="0.35 px"
     style="fill:none;fill-opacity:1;fill-rule:evenodd;stroke-width:0.09260417;stroke-miterlimit:4;stroke-dasharray:none" />
  <circle
     cx="10.192802"
     cy="-9.1952696"
     r="1.1"
     stroke="#191919"
     stroke-width="0.35 px"
     style="fill:none;stroke-width:0.09260417;stroke-miterlimit:4;stroke-dasharray:none"
     id="circle115"
     transform="scale(1,-1)" />
  <path
     id="Shape2DView_nwe0116"
     d="m 10.932802,9.19527 c 0,0.986666 -1.48,0.986666 -1.48,0 v 0 c 0,-0.9866662 1.48,-0.9866662 1.48,0 z"
     stroke="#191919"
     stroke-width="0.35 px"
     style="fill:#4d4d4d;fill-opacity:1;fill-rule:evenodd;stroke-width:0.0926042;stroke-miterlimit:4;stroke-dasharray:none"
     sodipodi:nodetypes="ccccc" />
  <path
     id="Shape2DView_nwe0121"
     d="m 11.292802,9.19527 h -0.0112 -0.01106 -0.01078 -0.01036 -0.0098 -0.0091 -0.0084 -0.0075 -0.0065 -0.0054 -0.0043 -0.0031 -0.0019 -6.42e-4"
     stroke="#191919"
     stroke-width="0.35 px"
     style="fill:none;fill-opacity:1;fill-rule:evenodd;stroke-width:0.09260417;stroke-miterlimit:4;stroke-dasharray:none" />
  <path
     id="Shape2DView_nwe0123"
     d="m 0.3172265,10.020066 q 0.00982,-0.118288 0.019639,-0.2365762 0.029988,-0.4223751 0.059976,-0.8447502 -0.02162,-0.7424723 -0.036296,-0.983656"
     stroke="#191919"
     stroke-width="0.35 px"
     style="fill:none;fill-opacity:1;fill-rule:evenodd;stroke-width:0.09260417;stroke-miterlimit:4;stroke-dasharray:none" />
  <path
     id="Shape2DView_nwe0124"
     d="m 0.3862409,7.2378841 q -0.016732,0.2264289 -0.033464,0.4528578 0.00735,0.2091115 0.00889,0.2498091"
     stroke="#191919"
     stroke-width="0.35 px"
     style="fill:none;fill-opacity:1;fill-rule:evenodd;stroke-width:0.09260417;stroke-miterlimit:4;stroke-dasharray:none" />
  <path
     id="Shape2DView_nwe0125"
     d="m 0.3177263,10.034716 q -0.00299,0.03733 -0.019318,0.24591 0.00704,0.228559 0.014071,0.457118"
     stroke="#191919"
     stroke-width="0.35 px"
     style="fill:none;fill-opacity:1;fill-rule:evenodd;stroke-width:0.09260417;stroke-miterlimit:4;stroke-dasharray:none" />
  <path
     id="Shape2DView_nwe0126"
     d="m 20.073125,10.737744 q 0.03507,-0.496924 -0.0052,-0.703167"
     stroke="#191919"
     stroke-width="0.35 px"
     style="fill:none;fill-opacity:1;fill-rule:evenodd;stroke-width:0.09260417;stroke-miterlimit:4;stroke-dasharray:none" />
  <path
     id="Shape2DView_nwe0127"
     d="m 20.068377,10.020066 -0.07725,-0.9699499 0.02388,-0.8472112 0.01005,-0.2478213"
     stroke="#191919"
     stroke-width="0.35 px"
     style="fill:none;fill-opacity:1;fill-rule:evenodd;stroke-width:0.09260417;stroke-miterlimit:4;stroke-dasharray:none" />
  <path
     id="Shape2DView_nwe0128"
     d="m 20.023939,7.940551 q 0.0014,-0.036862 0.0089,-0.2500338 -0.01673,-0.2263165 -0.03347,-0.4526331"
     stroke="#191919"
     stroke-width="0.35 px"
     style="fill:none;fill-opacity:1;fill-rule:evenodd;stroke-width:0.09260417;stroke-miterlimit:4;stroke-dasharray:none" />
  <rect
     style="fill:#ff0000;stroke:#ff0000;stroke-width:0.09260417;stroke-miterlimit:4;stroke-dasharray:none"
     id="origin"
     width="1"
     height="1"
     x="10.192803"
     y="9.1952705"
     inkscape:label="origin" />
</svg>
