<?xml version="1.0" encoding="UTF-8" standalone="no"?>
<svg
   xmlns:dc="http://purl.org/dc/elements/1.1/"
   xmlns:cc="http://creativecommons.org/ns#"
   xmlns:rdf="http://www.w3.org/1999/02/22-rdf-syntax-ns#"
   xmlns:svg="http://www.w3.org/2000/svg"
   xmlns="http://www.w3.org/2000/svg"
   xmlns:sodipodi="http://sodipodi.sourceforge.net/DTD/sodipodi-0.dtd"
   xmlns:inkscape="http://www.inkscape.org/namespaces/inkscape"
   width="27.618679154035412mm"
   height="25.6789737402105mm"
   viewBox="0 0 27.618679154035412 25.6789737402105"
   version="1.1"
   id="svg66"
   sodipodi:docname="joystick.svg"
   inkscape:version="1.0.2 (e86c870879, 2021-01-15)">
  <metadata
     id="metadata72">
    <rdf:RDF>
      <cc:Work
         rdf:about="">
        <dc:format>image/svg+xml</dc:format>
        <dc:type
           rdf:resource="http://purl.org/dc/dcmitype/StillImage" />
      </cc:Work>
    </rdf:RDF>
  </metadata>
  <defs
     id="defs70" />
  <sodipodi:namedview
     pagecolor="#ffffff"
     bordercolor="#666666"
     borderopacity="1"
     objecttolerance="10"
     gridtolerance="10"
     guidetolerance="10"
     inkscape:pageopacity="0"
     inkscape:pageshadow="2"
     inkscape:window-width="1680"
     inkscape:window-height="995"
     id="namedview68"
     showgrid="false"
     inkscape:zoom="5.6568543"
     inkscape:cx="42.389777"
     inkscape:cy="31.148927"
     inkscape:window-x="0"
     inkscape:window-y="0"
     inkscape:window-maximized="1"
     inkscape:current-layer="svg66" />
  <path
     id="Shape2DView_nwe0005"
     d="M 2.905534,8.8394865 H 0.270771 v 0 7.9999995 0 h 2.634763 v 0 -7.9999996 z"
     stroke="#191919"
     stroke-width="0.35 px"
     style="fill:#e6e6e6;fill-opacity:1;fill-rule:evenodd;stroke-width:0.0926042;stroke-miterlimit:4;stroke-dasharray:none"
     sodipodi:nodetypes="ccccccccc" />
  <path
     id="Shape2DView_nwe0040"
     d="M 2.603145,15.789486 H 1.235176 L 1.214465,15.768776 V 9.9101972 l 0.020711,-0.020711 h 1.367969 0 v 5.8999998 z"
     stroke="#191919"
     stroke-width="0.35 px"
     style="display:inline;fill:#4d4d4d;fill-opacity:1;fill-rule:evenodd;stroke-width:0.0926042;stroke-miterlimit:4;stroke-dasharray:none"
     sodipodi:nodetypes="cccccccccc" />
  <path
     id="Shape2DView_nwe0000"
     d="M 2.749198,16.339486 H 0.770771 v 0 -6.9999995 0 h 1.978427"
     stroke="#191919"
     stroke-width="0.35 px"
     style="fill:none;fill-opacity:1;fill-rule:evenodd;stroke-width:0.0926042;stroke-miterlimit:4;stroke-dasharray:none"
     sodipodi:nodetypes="cccccc" />
  <path
     id="Shape2DView_nwe0034"
     d="m 14.80443,0.270771 c 6.941515,-0.009024 12.576026,5.6108658 12.58505,12.552376 0.009,6.941509 -5.610855,12.576031 -12.55237,12.585055 h 2e-6 C 7.8968064,25.415525 2.2641789,19.796138 2.2551556,12.855839 2.2461322,5.9155402 7.8641288,0.28152579 14.80443,0.270802 Z"
     stroke="#191919"
     stroke-width="0.35 px"
     style="display:inline;fill:#1a1a1a;fill-opacity:1;fill-rule:evenodd;stroke-width:0.0926042;stroke-miterlimit:4;stroke-dasharray:none"
     sodipodi:nodetypes="csccscc" />
  <path
     id="Shape2DView_nwe0006"
     d="M 1.364465,15.089487 A 0.55,-0.55 0 0 1 2.416171,14.864172"
     stroke="#191919"
     stroke-width="0.35 px"
     style="fill:none;fill-opacity:1;fill-rule:evenodd;stroke-width:0.0926042;stroke-miterlimit:4;stroke-dasharray:none" />
  <path
     id="Shape2DView_nwe0007"
     d="m 1.364465,10.589487 a 0.55,-0.55 0 0 1 1.098406,-0.04226"
     stroke="#191919"
     stroke-width="0.35 px"
     style="fill:none;fill-opacity:1;fill-rule:evenodd;stroke-width:0.0926042;stroke-miterlimit:4;stroke-dasharray:none" />
  <path
     id="Shape2DView_nwe0008"
     d="M 2.46284,15.131737 A 0.55,-0.55 0 0 1 1.364471,15.089482"
     stroke="#191919"
     stroke-width="0.35 px"
     style="fill:none;fill-opacity:1;fill-rule:evenodd;stroke-width:0.0926042;stroke-miterlimit:4;stroke-dasharray:none" />
  <path
     id="Shape2DView_nwe0009"
     d="M 2.416193,10.814805 A 0.55,-0.55 0 0 1 1.364471,10.589482"
     stroke="#191919"
     stroke-width="0.35 px"
     style="fill:none;fill-opacity:1;fill-rule:evenodd;stroke-width:0.0926042;stroke-miterlimit:4;stroke-dasharray:none" />
  <path
     id="Shape2DView_nwe0016"
     d="m 1.314465,16.189486 h 0.7"
     stroke="#191919"
     stroke-width="0.35 px"
     style="fill:none;fill-opacity:1;fill-rule:evenodd;stroke-width:0.0926042;stroke-miterlimit:4;stroke-dasharray:none" />
  <path
     id="Shape2DView_nwe0017"
     d="m 2.014465,15.839487 v 0.03919 0.0387 0.03772 0.03626 0.03435 0.03201 0.02927 0.02615 0.02271 0.01899 0.01502 0.01963 h -0.7 v 0 -0.0022 -0.0066 -0.01087 -0.01502 -0.01899 -0.02271 -0.02615 -0.02927 -0.03201 -0.03435 -0.03626 -0.03771 -0.0387 -0.03919 0 z"
     stroke="#191919"
     stroke-width="0.35 px"
     style="fill:#999999;fill-opacity:1;fill-rule:evenodd;stroke-width:0.0926042;stroke-miterlimit:4;stroke-dasharray:none"
     sodipodi:nodetypes="ccccccccccccccccccccccccccccccc" />
  <path
     id="Shape2DView_nwe0021"
     d="m 2.014465,9.8394825 v -0.039188 -0.038695 -0.037715 -0.036262 -0.034352 -0.03201 -0.029266 -0.026154 -0.022712 -0.018986 -0.01502 -0.010866 -0.00657 -0.0022 0 h -0.7 v 4e-6 0.0022 0.00657 0.010866 0.01502 0.018986 0.022712 0.026154 0.029266 0.03201 0.034352 0.036262 0.037715 0.038695 0.039188 z"
     stroke="#191919"
     stroke-width="0.35 px"
     style="fill:#999999;fill-opacity:1;fill-rule:evenodd;stroke-width:0.0926042;stroke-miterlimit:4;stroke-dasharray:none"
     sodipodi:nodetypes="cccccccccccccccccccccccccccccccc" />
  <path
     id="Shape2DView_nwe0029"
     d="m 2.414465,15.089487 c -0.0023,0.664357 -0.9976959,0.664352 -0.999994,-5e-6 l -6e-6,5e-6 c -3.3e-6,-0.66667 1.0000027,-0.666675 1.000006,-5e-6 z"
     stroke="#191919"
     stroke-width="0.35 px"
     style="fill:#1a1a1a;fill-opacity:1;fill-rule:evenodd;stroke-width:0.0926042;stroke-miterlimit:4;stroke-dasharray:none"
     sodipodi:nodetypes="ccccc" />
  <path
     id="Shape2DView_nwe0030"
     d="m 2.414465,10.589487 c -0.0023,0.664357 -0.9976959,0.664352 -0.999994,-5e-6 l -6e-6,5e-6 c -3.3e-6,-0.6666704 1.0000027,-0.6666754 1.000006,-5e-6 z"
     stroke="#191919"
     stroke-width="0.35 px"
     style="fill:#1a1a1a;fill-opacity:1;fill-rule:evenodd;stroke-width:0.0926042;stroke-miterlimit:4;stroke-dasharray:none"
     sodipodi:nodetypes="ccccc" />
  <path
     id="Shape2DView_nwe0031"
     d="M 14.833318,22.489478 C 9.5044198,22.495486 5.1793769,18.180923 5.1724485,12.852029 5.1655201,7.523136 9.4793292,3.1973403 14.808225,3.189492 l -1e-6,2.7e-6 c 5.329548,-0.00693 9.655606,4.3079044 9.662534,9.6374483 0.0069,5.329545 -4.307896,9.655611 -9.637444,9.662539 z"
     stroke="#191919"
     stroke-width="0.35 px"
     style="fill:#333333;fill-opacity:1;fill-rule:evenodd;stroke-width:0.0926042;stroke-miterlimit:4;stroke-dasharray:none"
     sodipodi:nodetypes="csccscc" />
  <path
     id="Shape2DView_nwe0052"
     d="m 1.314465,15.089487 h 0.0056 0.0055 0.0054 0.0052 0.0049 0.0046 0.0042 0.0037 0.0032 0.0027 0.0021 0.0016 9.4e-4 3.14e-4"
     stroke="#191919"
     stroke-width="0.35 px"
     style="fill:none;fill-opacity:1;fill-rule:evenodd;stroke-width:0.0926042;stroke-miterlimit:4;stroke-dasharray:none" />
  <path
     id="Shape2DView_nwe0053"
     d="m 1.314465,10.589487 h 0.0056 0.0055 0.0054 0.0052 0.0049 0.0046 0.0042 0.0037 0.0032 0.0027 0.0021 0.0016 9.4e-4 3.14e-4"
     stroke="#191919"
     stroke-width="0.35 px"
     style="fill:none;fill-opacity:1;fill-rule:evenodd;stroke-width:0.0926042;stroke-miterlimit:4;stroke-dasharray:none" />
  <path
     id="Shape2DView_nwe0054"
     d="m 2.364465,15.089487 h 0.0056 0.0055 0.0054 0.0052 0.0049 0.0046 0.0042 0.0037 0.0032 0.0027 0.0021 0.0016 9.4e-4 3.14e-4"
     stroke="#191919"
     stroke-width="0.35 px"
     style="fill:none;fill-opacity:1;fill-rule:evenodd;stroke-width:0.0926042;stroke-miterlimit:4;stroke-dasharray:none" />
  <path
     id="Shape2DView_nwe0055"
     d="m 1.464465,15.089487 h -0.0056 -0.0055 -0.0054 -0.0052 -0.0049 -0.0046 -0.0042 -0.0037 -0.0032 -0.0027 -0.0021 -0.0016 -9.4e-4 -3.14e-4"
     stroke="#191919"
     stroke-width="0.35 px"
     style="fill:none;fill-opacity:1;fill-rule:evenodd;stroke-width:0.0926042;stroke-miterlimit:4;stroke-dasharray:none" />
  <path
     id="Shape2DView_nwe0056"
     d="m 1.414465,10.589487 h 3.14e-4 9.4e-4 0.0016 0.0021 0.0027 0.0032 0.0037 0.0042 0.0046 0.0049 0.0052 0.0054 0.0055 0.0056"
     stroke="#191919"
     stroke-width="0.35 px"
     style="fill:none;fill-opacity:1;fill-rule:evenodd;stroke-width:0.0926042;stroke-miterlimit:4;stroke-dasharray:none" />
  <path
     id="Shape2DView_nwe0057"
     d="m 2.414465,10.589487 h -3.14e-4 -9.4e-4 -0.0016 -0.0021 -0.0027 -0.0032 -0.0037 -0.0042 -0.0046 -0.0049 -0.0052 -0.0054 -0.0055 -0.0056"
     stroke="#191919"
     stroke-width="0.35 px"
     style="fill:none;fill-opacity:1;fill-rule:evenodd;stroke-width:0.0926042;stroke-miterlimit:4;stroke-dasharray:none" />
  <rect
     fill="#ff0000"
     id="origin"
     width="1"
     height="1"
     x="14.870771"
     y="-12.489502"
     style="stroke-width:0.0926042;stroke-miterlimit:4;stroke-dasharray:none"
     transform="scale(1,-1)" />
</svg>
