<?xml version="1.0" encoding="UTF-8" standalone="no"?>
<svg
   xmlns:dc="http://purl.org/dc/elements/1.1/"
   xmlns:cc="http://creativecommons.org/ns#"
   xmlns:rdf="http://www.w3.org/1999/02/22-rdf-syntax-ns#"
   xmlns:svg="http://www.w3.org/2000/svg"
   xmlns="http://www.w3.org/2000/svg"
   xmlns:sodipodi="http://sodipodi.sourceforge.net/DTD/sodipodi-0.dtd"
   xmlns:inkscape="http://www.inkscape.org/namespaces/inkscape"
   width="15.708000000000014mm"
   height="8.108mm"
   viewBox="0 0 15.708000000000014 8.108"
   version="1.1"
   id="svg171"
   sodipodi:docname="KRE3.svg"
   inkscape:version="1.0.2 (e86c870879, 2021-01-15)">
  <metadata
     id="metadata177">
    <rdf:RDF>
      <cc:Work
         rdf:about="">
        <dc:format>image/svg+xml</dc:format>
        <dc:type
           rdf:resource="http://purl.org/dc/dcmitype/StillImage" />
      </cc:Work>
    </rdf:RDF>
  </metadata>
  <defs
     id="defs175" />
  <sodipodi:namedview
     pagecolor="#ffffff"
     bordercolor="#666666"
     borderopacity="1"
     objecttolerance="10"
     gridtolerance="10"
     guidetolerance="10"
     inkscape:pageopacity="0"
     inkscape:pageshadow="2"
     inkscape:window-width="1366"
     inkscape:window-height="713"
     id="namedview173"
     showgrid="false"
     inkscape:zoom="12.598719"
     inkscape:cx="39.103868"
     inkscape:cy="25.500564"
     inkscape:window-x="0"
     inkscape:window-y="0"
     inkscape:window-maximized="1"
     inkscape:current-layer="svg171" />
  <path
     id="Shape2DView_nwe0022"
     d="M 0.1540004,7.954 H 15.154 v -2e-7 -1.0309399 0 L 15.554,7.154 v 0 -1.4 0 l -0.4,0.2309401 V 5.954 v -4.8 0 -1 0 H 0.1540004 v 0 1 0 4.8 0 z"
     stroke="#191919"
     stroke-width="0.35 px"
     style="fill:#0032ce;fill-opacity:1;fill-rule:evenodd;stroke-width:0.0926042;stroke-miterlimit:4;stroke-dasharray:none"
     sodipodi:nodetypes="ccccccccccccccccccccccc" />
  <path
     id="Shape2DView_nwe0000"
     d="m 12.654,1.854 c -2.399999,2.7e-6 -2.399995,3.6000027 4e-6,3.6 l -4e-6,0 c 2.399999,2.7e-6 2.400003,-3.5999973 4e-6,-3.6 z"
     stroke="#191919"
     stroke-width="0.35 px"
     style="fill:#b3b3b3;fill-opacity:1;fill-rule:evenodd;stroke-width:0.0926042;stroke-miterlimit:4;stroke-dasharray:none"
     sodipodi:nodetypes="ccccc" />
  <path
     id="Shape2DView_nwe0001"
     d="m 7.6540004,1.854 c -2.3999989,2.4e-6 -2.3999953,3.6000024 3.6e-6,3.6 l -3.6e-6,0 c 2.3999986,2.4e-6 2.4000026,-3.5999976 3.6e-6,-3.6 z"
     stroke="#191919"
     stroke-width="0.35 px"
     style="fill:#b3b3b3;fill-opacity:1;fill-rule:evenodd;stroke-width:0.0926042;stroke-miterlimit:4;stroke-dasharray:none"
     sodipodi:nodetypes="ccccc" />
  <path
     id="Shape2DView_nwe0002"
     d="m 12.654,6.954 q -0.354576,0.042631 -0.5,-0.5 0.145424,-0.5426314 0.5,-0.5"
     stroke="#191919"
     stroke-width="0.35 px"
     style="fill:none;fill-opacity:1;fill-rule:evenodd;stroke-width:0.0926042;stroke-miterlimit:4;stroke-dasharray:none" />
  <path
     id="Shape2DView_nwe0003"
     d="m 12.654,5.954 a 0.5,-0.5 0 0 0 4e-6,1"
     stroke="#191919"
     stroke-width="0.35 px"
     style="fill:none;fill-opacity:1;fill-rule:evenodd;stroke-width:0.0926042;stroke-miterlimit:4;stroke-dasharray:none" />
  <path
     id="Shape2DView_nwe0004"
     d="m 7.6540004,6.954 q -0.3545763,0.042631 -0.5,-0.5 0.1454237,-0.5426314 0.5,-0.5"
     stroke="#191919"
     stroke-width="0.35 px"
     style="fill:none;fill-opacity:1;fill-rule:evenodd;stroke-width:0.0926042;stroke-miterlimit:4;stroke-dasharray:none" />
  <path
     id="Shape2DView_nwe0005"
     d="m 7.6540004,5.954 a 0.5,-0.5 0 0 0 3.6e-6,1"
     stroke="#191919"
     stroke-width="0.35 px"
     style="fill:none;fill-opacity:1;fill-rule:evenodd;stroke-width:0.0926042;stroke-miterlimit:4;stroke-dasharray:none" />
  <path
     id="Shape2DView_nwe0006"
     d="m 2.6540004,6.954 q -0.3545763,0.042631 -0.5,-0.5 0.1454237,-0.5426314 0.5,-0.5"
     stroke="#191919"
     stroke-width="0.35 px"
     style="fill:none;fill-opacity:1;fill-rule:evenodd;stroke-width:0.0926042;stroke-miterlimit:4;stroke-dasharray:none" />
  <path
     id="Shape2DView_nwe0007"
     d="m 2.6540004,5.954 a 0.5,-0.5 0 0 0 3.6e-6,1"
     stroke="#191919"
     stroke-width="0.35 px"
     style="fill:none;fill-opacity:1;fill-rule:evenodd;stroke-width:0.0926042;stroke-miterlimit:4;stroke-dasharray:none" />
  <path
     id="Shape2DView_nwe0009"
     d="m 2.6540004,5.954 q 0.3545763,-0.042631 0.5,0.5 -0.1454237,0.5426314 -0.5,0.5"
     stroke="#191919"
     stroke-width="0.35 px"
     style="fill:none;fill-opacity:1;fill-rule:evenodd;stroke-width:0.0926042;stroke-miterlimit:4;stroke-dasharray:none" />
  <path
     id="Shape2DView_nwe0010"
     d="m 7.6540004,5.954 q 0.3545763,-0.042631 0.5,0.5 -0.1454237,0.5426314 -0.5,0.5"
     stroke="#191919"
     stroke-width="0.35 px"
     style="fill:none;fill-opacity:1;fill-rule:evenodd;stroke-width:0.0926042;stroke-miterlimit:4;stroke-dasharray:none" />
  <path
     id="Shape2DView_nwe0011"
     d="m 12.654,5.954 q 0.354577,-0.042631 0.5,0.5 -0.145423,0.5426314 -0.5,0.5"
     stroke="#191919"
     stroke-width="0.35 px"
     style="fill:none;fill-opacity:1;fill-rule:evenodd;stroke-width:0.0926042;stroke-miterlimit:4;stroke-dasharray:none" />
  <path
     id="Shape2DView_nwe0012"
     d="m 15.154,5.954 h -2.5"
     stroke="#191919"
     stroke-width="0.35 px"
     style="fill:none;fill-opacity:1;fill-rule:evenodd;stroke-width:0.0926042;stroke-miterlimit:4;stroke-dasharray:none" />
  <path
     id="Shape2DView_nwe0016"
     d="m 2.6540004,5.954 h -2.5"
     stroke="#191919"
     stroke-width="0.35 px"
     style="fill:none;fill-opacity:1;fill-rule:evenodd;stroke-width:0.0926042;stroke-miterlimit:4;stroke-dasharray:none" />
  <path
     id="Shape2DView_nwe0017"
     d="m 7.6540004,5.954 h -5"
     stroke="#191919"
     stroke-width="0.35 px"
     style="fill:none;fill-opacity:1;fill-rule:evenodd;stroke-width:0.0926042;stroke-miterlimit:4;stroke-dasharray:none" />
  <path
     id="Shape2DView_nwe0018"
     d="M 12.654,5.954 H 7.6540004"
     stroke="#191919"
     stroke-width="0.35 px"
     style="fill:none;fill-opacity:1;fill-rule:evenodd;stroke-width:0.0926042;stroke-miterlimit:4;stroke-dasharray:none" />
  <path
     id="Shape2DView_nwe0021"
     d="M 15.154,1.154 H 0.1540004"
     stroke="#191919"
     stroke-width="0.35 px"
     style="fill:none;fill-opacity:1;fill-rule:evenodd;stroke-width:0.0926042;stroke-miterlimit:4;stroke-dasharray:none" />
  <path
     id="Shape2DView_nwe0023"
     d="M 10.384184,1.6201695 H 10.123817"
     stroke="#191919"
     stroke-width="0.35 px"
     style="fill:none;fill-opacity:1;fill-rule:evenodd;stroke-width:0.0926042;stroke-miterlimit:4;stroke-dasharray:none" />
  <path
     id="Shape2DView_nwe0024"
     d="m 10.384184,5.6201695 v -4"
     stroke="#191919"
     stroke-width="0.35 px"
     style="fill:none;fill-opacity:1;fill-rule:evenodd;stroke-width:0.0926042;stroke-miterlimit:4;stroke-dasharray:none" />
  <path
     id="Shape2DView_nwe0025"
     d="m 10.123817,5.6201695 h 0.260367"
     stroke="#191919"
     stroke-width="0.35 px"
     style="fill:none;fill-opacity:1;fill-rule:evenodd;stroke-width:0.0926042;stroke-miterlimit:4;stroke-dasharray:none" />
  <path
     id="Shape2DView_nwe0026"
     d="m 10.123817,1.6201695 v 4"
     stroke="#191919"
     stroke-width="0.35 px"
     style="fill:none;fill-opacity:1;fill-rule:evenodd;stroke-width:0.0926042;stroke-miterlimit:4;stroke-dasharray:none" />
  <path
     id="Shape2DView_nwe0029"
     d="M 5.3841841,1.6201695 H 5.1238166"
     stroke="#191919"
     stroke-width="0.35 px"
     style="fill:none;fill-opacity:1;fill-rule:evenodd;stroke-width:0.0926042;stroke-miterlimit:4;stroke-dasharray:none" />
  <path
     id="Shape2DView_nwe0030"
     d="m 5.3841841,5.6201695 v -4"
     stroke="#191919"
     stroke-width="0.35 px"
     style="fill:none;fill-opacity:1;fill-rule:evenodd;stroke-width:0.0926042;stroke-miterlimit:4;stroke-dasharray:none" />
  <path
     id="Shape2DView_nwe0031"
     d="M 5.1238166,5.6201695 H 5.3841841"
     stroke="#191919"
     stroke-width="0.35 px"
     style="fill:none;fill-opacity:1;fill-rule:evenodd;stroke-width:0.0926042;stroke-miterlimit:4;stroke-dasharray:none" />
  <path
     id="Shape2DView_nwe0032"
     d="m 5.1238166,1.6201695 v 4"
     stroke="#191919"
     stroke-width="0.35 px"
     style="fill:none;fill-opacity:1;fill-rule:evenodd;stroke-width:0.0926042;stroke-miterlimit:4;stroke-dasharray:none" />
  <path
     id="Shape2DView_nwe0033"
     d="m 2.6540004,5.454 c 2.399999,2.4e-6 2.4000026,-3.5999976 3.6e-6,-3.6 l -3.6e-6,0 c -2.39999893,2.4e-6 -2.39999533,3.6000024 3.6e-6,3.6 z"
     stroke="#191919"
     stroke-width="0.35 px"
     style="fill:#b3b3b3;fill-opacity:1;fill-rule:evenodd;stroke-width:0.0926042;stroke-miterlimit:4;stroke-dasharray:none"
     sodipodi:nodetypes="ccccc" />
  <path
     id="Shape2DView_nwe0039"
     d="m 2.6540004,6.954 a 0.5,-0.5 0 0 0 3.6e-6,-1"
     stroke="#191919"
     stroke-width="0.35 px"
     style="fill:none;fill-opacity:1;fill-rule:evenodd;stroke-width:0.0926042;stroke-miterlimit:4;stroke-dasharray:none" />
  <path
     id="Shape2DView_nwe0040"
     d="m 7.6540004,6.954 a 0.5,-0.5 0 0 0 3.6e-6,-1"
     stroke="#191919"
     stroke-width="0.35 px"
     style="fill:none;fill-opacity:1;fill-rule:evenodd;stroke-width:0.0926042;stroke-miterlimit:4;stroke-dasharray:none" />
  <path
     id="Shape2DView_nwe0041"
     d="m 12.654,6.954 a 0.5,-0.5 0 0 0 4e-6,-1"
     stroke="#191919"
     stroke-width="0.35 px"
     style="fill:none;fill-opacity:1;fill-rule:evenodd;stroke-width:0.0926042;stroke-miterlimit:4;stroke-dasharray:none" />
  <path
     id="Shape2DView_nwe0044"
     d="m 4.3675173,4.2052347 c 0,0 -0.072362,-0.00215 -0.1923483,-0.00573 -0.119986,-0.00357 -0.2844141,-0.00847 -0.4456594,-0.013268"
     stroke="#191919"
     stroke-width="0.35 px"
     style="fill:none;fill-opacity:1;fill-rule:evenodd;stroke-width:0.0926042;stroke-miterlimit:4;stroke-dasharray:none" />
  <path
     id="Shape2DView_nwe0045"
     d="M 3.121317,4.759267 C 3.119777,4.811101 3.118237,4.8625583 3.116727,4.9135992"
     stroke="#191919"
     stroke-width="0.35 px"
     style="fill:none;fill-opacity:1;fill-rule:evenodd;stroke-width:0.0926042;stroke-miterlimit:4;stroke-dasharray:none" />
  <path
     id="Shape2DView_nwe0046"
     d="M 3.1167224,4.9135992 C 2.9500119,4.9125892 2.7834128,4.9078392 2.61682,4.9028802"
     stroke="#191919"
     stroke-width="0.35 px"
     style="fill:none;fill-opacity:1;fill-rule:evenodd;stroke-width:0.0926042;stroke-miterlimit:4;stroke-dasharray:none" />
  <path
     id="Shape2DView_nwe0047"
     d="M 2.61682,4.90288 C 2.4502271,4.89792 2.2836405,4.89275 2.1171652,4.883841"
     stroke="#191919"
     stroke-width="0.35 px"
     style="fill:none;fill-opacity:1;fill-rule:evenodd;stroke-width:0.0926042;stroke-miterlimit:4;stroke-dasharray:none" />
  <path
     id="Shape2DView_nwe0048"
     d="m 2.1171652,4.8838414 c 0.00152,-0.051119 0.00305,-0.1025745 0.00459,-0.1543322"
     stroke="#191919"
     stroke-width="0.35 px"
     style="fill:none;fill-opacity:1;fill-rule:evenodd;stroke-width:0.0926042;stroke-miterlimit:4;stroke-dasharray:none" />
  <path
     id="Shape2DView_nwe0049"
     d="m 1.5487334,4.1213166 c -0.081069,-0.00241 -0.1627782,-0.00485 -0.2386533,-0.0071 -0.075875,-0.00226 -0.1472743,-0.00438 -0.206852,-0.00616 -0.1191555,-0.00355 -0.1925025,-0.00573 -0.1925025,-0.00573"
     stroke="#191919"
     stroke-width="0.35 px"
     style="fill:none;fill-opacity:1;fill-rule:evenodd;stroke-width:0.0926042;stroke-miterlimit:4;stroke-dasharray:none" />
  <path
     id="Shape2DView_nwe0050"
     d="m 0.9404834,3.1027653 c 0,0 0.072362,0.00215 0.1923484,0.00573 0.119986,0.00357 0.2844141,0.00847 0.4456594,0.013268"
     stroke="#191919"
     stroke-width="0.35 px"
     style="fill:none;fill-opacity:1;fill-rule:evenodd;stroke-width:0.0926042;stroke-miterlimit:4;stroke-dasharray:none" />
  <path
     id="Shape2DView_nwe0051"
     d="m 2.1866838,2.548733 c 0.00154,-0.051834 0.00308,-0.1032913 0.00459,-0.1543322"
     stroke="#191919"
     stroke-width="0.35 px"
     style="fill:none;fill-opacity:1;fill-rule:evenodd;stroke-width:0.0926042;stroke-miterlimit:4;stroke-dasharray:none" />
  <path
     id="Shape2DView_nwe0052"
     d="m 2.1912784,2.3944008 c 0.1667104,0.00101 0.3333096,0.00576 0.4999024,0.010719 0.1665929,0.00496 0.3331795,0.01013 0.4996547,0.019039"
     stroke="#191919"
     stroke-width="0.35 px"
     style="fill:none;fill-opacity:1;fill-rule:evenodd;stroke-width:0.0926042;stroke-miterlimit:4;stroke-dasharray:none" />
  <path
     id="Shape2DView_nwe0053"
     d="m 3.1908355,2.4241586 c -0.00152,0.051119 -0.00305,0.1025745 -0.00459,0.1543322"
     stroke="#191919"
     stroke-width="0.35 px"
     style="fill:none;fill-opacity:1;fill-rule:evenodd;stroke-width:0.0926042;stroke-miterlimit:4;stroke-dasharray:none" />
  <path
     id="Shape2DView_nwe0054"
     d="m 3.7592674,3.1866834 c 0.081069,0.00241 0.1627781,0.00485 0.2386532,0.0071 0.075875,0.00226 0.1472743,0.00438 0.2068521,0.00616 0.1191554,0.00355 0.1925025,0.00573 0.1925025,0.00573"
     stroke="#191919"
     stroke-width="0.35 px"
     style="fill:none;fill-opacity:1;fill-rule:evenodd;stroke-width:0.0926042;stroke-miterlimit:4;stroke-dasharray:none" />
  <path
     id="Shape2DView_nwe0055"
     d="M 2.1691007,3.1393425 1.5784912,3.1217595"
     stroke="#191919"
     stroke-width="0.35 px"
     style="fill:none;fill-opacity:1;fill-rule:evenodd;stroke-width:0.0926042;stroke-miterlimit:4;stroke-dasharray:none" />
  <path
     id="Shape2DView_nwe0056"
     d="M 2.1866838,2.548733 2.1691007,3.1393425"
     stroke="#191919"
     stroke-width="0.35 px"
     style="fill:none;fill-opacity:1;fill-rule:evenodd;stroke-width:0.0926042;stroke-miterlimit:4;stroke-dasharray:none" />
  <path
     id="Shape2DView_nwe0057"
     d="M 3.1686579,3.1691003 3.1862409,2.5784908"
     stroke="#191919"
     stroke-width="0.35 px"
     style="fill:none;fill-opacity:1;fill-rule:evenodd;stroke-width:0.0926042;stroke-miterlimit:4;stroke-dasharray:none" />
  <path
     id="Shape2DView_nwe0058"
     d="M 3.7592674,3.1866834 3.1686579,3.1691004"
     stroke="#191919"
     stroke-width="0.35 px"
     style="fill:none;fill-opacity:1;fill-rule:evenodd;stroke-width:0.0926042;stroke-miterlimit:4;stroke-dasharray:none" />
  <path
     id="Shape2DView_nwe0059"
     d="m 3.1389,4.1686575 0.5906096,0.017583"
     stroke="#191919"
     stroke-width="0.35 px"
     style="fill:none;fill-opacity:1;fill-rule:evenodd;stroke-width:0.0926042;stroke-miterlimit:4;stroke-dasharray:none" />
  <path
     id="Shape2DView_nwe0060"
     d="M 3.121317,4.759267 3.1389,4.1686575"
     stroke="#191919"
     stroke-width="0.35 px"
     style="fill:none;fill-opacity:1;fill-rule:evenodd;stroke-width:0.0926042;stroke-miterlimit:4;stroke-dasharray:none" />
  <path
     id="Shape2DView_nwe0061"
     d="M 2.1393429,4.1388997 2.1217599,4.7295092"
     stroke="#191919"
     stroke-width="0.35 px"
     style="fill:none;fill-opacity:1;fill-rule:evenodd;stroke-width:0.0926042;stroke-miterlimit:4;stroke-dasharray:none" />
  <path
     id="Shape2DView_nwe0062"
     d="m 1.5487334,4.1213166 0.5906095,0.017583"
     stroke="#191919"
     stroke-width="0.35 px"
     style="fill:none;fill-opacity:1;fill-rule:evenodd;stroke-width:0.0926042;stroke-miterlimit:4;stroke-dasharray:none" />
  <path
     id="Shape2DView_nwe0067"
     d="M 1.6415567,3.123637 1.6117987,4.1231941"
     stroke="#191919"
     stroke-width="0.35 px"
     style="fill:none;fill-opacity:1;fill-rule:evenodd;stroke-width:0.0926042;stroke-miterlimit:4;stroke-dasharray:none" />
  <path
     id="Shape2DView_nwe0068"
     d="M 1.8894536,4.1314602 1.9192116,3.1319031"
     stroke="#191919"
     stroke-width="0.35 px"
     style="fill:none;fill-opacity:1;fill-rule:evenodd;stroke-width:0.0926042;stroke-miterlimit:4;stroke-dasharray:none" />
  <path
     id="Shape2DView_nwe0069"
     d="M 3.4185471,3.1765398 3.3887891,4.1760969"
     stroke="#191919"
     stroke-width="0.35 px"
     style="fill:none;fill-opacity:1;fill-rule:evenodd;stroke-width:0.0926042;stroke-miterlimit:4;stroke-dasharray:none" />
  <path
     id="Shape2DView_nwe0070"
     d="m 2.1765402,2.8894532 0.9995571,0.029758"
     stroke="#191919"
     stroke-width="0.35 px"
     style="fill:none;fill-opacity:1;fill-rule:evenodd;stroke-width:0.0926042;stroke-miterlimit:4;stroke-dasharray:none" />
  <path
     id="Shape2DView_nwe0071"
     d="M 3.1314606,4.4185468 2.1319034,4.3887888"
     stroke="#191919"
     stroke-width="0.35 px"
     style="fill:none;fill-opacity:1;fill-rule:evenodd;stroke-width:0.0926042;stroke-miterlimit:4;stroke-dasharray:none" />
  <path
     id="Shape2DView_nwe0072"
     d="M 3.6664441,4.184363 3.6962021,3.1848059"
     stroke="#191919"
     stroke-width="0.35 px"
     style="fill:none;fill-opacity:1;fill-rule:evenodd;stroke-width:0.0926042;stroke-miterlimit:4;stroke-dasharray:none" />
  <path
     id="Shape2DView_nwe0073"
     d="M 2.1912784,2.3944008 2.1866884,2.548733"
     stroke="#191919"
     stroke-width="0.35 px"
     style="fill:none;fill-opacity:1;fill-rule:evenodd;stroke-width:0.0926042;stroke-miterlimit:4;stroke-dasharray:none" />
  <path
     id="Shape2DView_nwe0074"
     d="M 4.3972752,3.2056775 3.7592674,3.1866835"
     stroke="#191919"
     stroke-width="0.35 px"
     style="fill:none;fill-opacity:1;fill-rule:evenodd;stroke-width:0.0926042;stroke-miterlimit:4;stroke-dasharray:none" />
  <path
     id="Shape2DView_nwe0075"
     d="m 3.7295096,4.1862405 0.6380077,0.018994"
     stroke="#191919"
     stroke-width="0.35 px"
     style="fill:none;fill-opacity:1;fill-rule:evenodd;stroke-width:0.0926042;stroke-miterlimit:4;stroke-dasharray:none" />
  <path
     id="Shape2DView_nwe0076"
     d="M 3.1167224,4.9135992 3.1213124,4.759267"
     stroke="#191919"
     stroke-width="0.35 px"
     style="fill:none;fill-opacity:1;fill-rule:evenodd;stroke-width:0.0926042;stroke-miterlimit:4;stroke-dasharray:none" />
  <path
     id="Shape2DView_nwe0077"
     d="m 9.3675173,4.2052347 c 0,0 -0.072362,-0.00215 -0.1923483,-0.00573 -0.119986,-0.00357 -0.2844141,-0.00847 -0.4456594,-0.013268"
     stroke="#191919"
     stroke-width="0.35 px"
     style="fill:none;fill-opacity:1;fill-rule:evenodd;stroke-width:0.0926042;stroke-miterlimit:4;stroke-dasharray:none" />
  <path
     id="Shape2DView_nwe0078"
     d="M 8.121317,4.759267 C 8.119777,4.811101 8.118237,4.8625583 8.116727,4.9135992"
     stroke="#191919"
     stroke-width="0.35 px"
     style="fill:none;fill-opacity:1;fill-rule:evenodd;stroke-width:0.0926042;stroke-miterlimit:4;stroke-dasharray:none" />
  <path
     id="Shape2DView_nwe0079"
     d="M 8.1167224,4.9135992 C 7.9500119,4.9125892 7.7834128,4.9078392 7.61682,4.9028802"
     stroke="#191919"
     stroke-width="0.35 px"
     style="fill:none;fill-opacity:1;fill-rule:evenodd;stroke-width:0.0926042;stroke-miterlimit:4;stroke-dasharray:none" />
  <path
     id="Shape2DView_nwe0080"
     d="M 7.61682,4.90288 C 7.4502271,4.89792 7.2836405,4.89275 7.1171652,4.883841"
     stroke="#191919"
     stroke-width="0.35 px"
     style="fill:none;fill-opacity:1;fill-rule:evenodd;stroke-width:0.0926042;stroke-miterlimit:4;stroke-dasharray:none" />
  <path
     id="Shape2DView_nwe0081"
     d="m 7.1171652,4.8838414 c 0.00152,-0.051119 0.00305,-0.1025745 0.00459,-0.1543322"
     stroke="#191919"
     stroke-width="0.35 px"
     style="fill:none;fill-opacity:1;fill-rule:evenodd;stroke-width:0.0926042;stroke-miterlimit:4;stroke-dasharray:none" />
  <path
     id="Shape2DView_nwe0082"
     d="m 6.5487334,4.1213166 c -0.081069,-0.00241 -0.1627782,-0.00485 -0.2386533,-0.0071 -0.075875,-0.00226 -0.1472743,-0.00438 -0.206852,-0.00616 -0.1191555,-0.00355 -0.1925025,-0.00573 -0.1925025,-0.00573"
     stroke="#191919"
     stroke-width="0.35 px"
     style="fill:none;fill-opacity:1;fill-rule:evenodd;stroke-width:0.0926042;stroke-miterlimit:4;stroke-dasharray:none" />
  <path
     id="Shape2DView_nwe0083"
     d="m 5.9404834,3.1027653 c 0,0 0.072362,0.00215 0.1923484,0.00573 0.119986,0.00357 0.2844141,0.00847 0.4456594,0.013268"
     stroke="#191919"
     stroke-width="0.35 px"
     style="fill:none;fill-opacity:1;fill-rule:evenodd;stroke-width:0.0926042;stroke-miterlimit:4;stroke-dasharray:none" />
  <path
     id="Shape2DView_nwe0084"
     d="m 7.1866838,2.548733 c 0.00154,-0.051834 0.00308,-0.1032913 0.00459,-0.1543322"
     stroke="#191919"
     stroke-width="0.35 px"
     style="fill:none;fill-opacity:1;fill-rule:evenodd;stroke-width:0.0926042;stroke-miterlimit:4;stroke-dasharray:none" />
  <path
     id="Shape2DView_nwe0085"
     d="m 7.1912784,2.3944008 c 0.1667104,0.00101 0.3333096,0.00576 0.4999024,0.010719 0.1665929,0.00496 0.3331795,0.01013 0.4996547,0.019039"
     stroke="#191919"
     stroke-width="0.35 px"
     style="fill:none;fill-opacity:1;fill-rule:evenodd;stroke-width:0.0926042;stroke-miterlimit:4;stroke-dasharray:none" />
  <path
     id="Shape2DView_nwe0086"
     d="m 8.1908355,2.4241586 c -0.00152,0.051119 -0.00305,0.1025745 -0.00459,0.1543322"
     stroke="#191919"
     stroke-width="0.35 px"
     style="fill:none;fill-opacity:1;fill-rule:evenodd;stroke-width:0.0926042;stroke-miterlimit:4;stroke-dasharray:none" />
  <path
     id="Shape2DView_nwe0087"
     d="m 8.7592674,3.1866834 c 0.081069,0.00241 0.1627781,0.00485 0.2386532,0.0071 0.075875,0.00226 0.1472743,0.00438 0.2068521,0.00616 0.1191554,0.00355 0.1925025,0.00573 0.1925025,0.00573"
     stroke="#191919"
     stroke-width="0.35 px"
     style="fill:none;fill-opacity:1;fill-rule:evenodd;stroke-width:0.0926042;stroke-miterlimit:4;stroke-dasharray:none" />
  <path
     id="Shape2DView_nwe0088"
     d="M 7.1691007,3.1393425 6.5784912,3.1217595"
     stroke="#191919"
     stroke-width="0.35 px"
     style="fill:none;fill-opacity:1;fill-rule:evenodd;stroke-width:0.0926042;stroke-miterlimit:4;stroke-dasharray:none" />
  <path
     id="Shape2DView_nwe0089"
     d="M 7.1866838,2.548733 7.1691007,3.1393425"
     stroke="#191919"
     stroke-width="0.35 px"
     style="fill:none;fill-opacity:1;fill-rule:evenodd;stroke-width:0.0926042;stroke-miterlimit:4;stroke-dasharray:none" />
  <path
     id="Shape2DView_nwe0090"
     d="M 8.1686579,3.1691003 8.1862409,2.5784908"
     stroke="#191919"
     stroke-width="0.35 px"
     style="fill:none;fill-opacity:1;fill-rule:evenodd;stroke-width:0.0926042;stroke-miterlimit:4;stroke-dasharray:none" />
  <path
     id="Shape2DView_nwe0091"
     d="M 8.7592674,3.1866834 8.1686579,3.1691004"
     stroke="#191919"
     stroke-width="0.35 px"
     style="fill:none;fill-opacity:1;fill-rule:evenodd;stroke-width:0.0926042;stroke-miterlimit:4;stroke-dasharray:none" />
  <path
     id="Shape2DView_nwe0092"
     d="m 8.1389,4.1686575 0.5906096,0.017583"
     stroke="#191919"
     stroke-width="0.35 px"
     style="fill:none;fill-opacity:1;fill-rule:evenodd;stroke-width:0.0926042;stroke-miterlimit:4;stroke-dasharray:none" />
  <path
     id="Shape2DView_nwe0093"
     d="M 8.121317,4.759267 8.1389,4.1686575"
     stroke="#191919"
     stroke-width="0.35 px"
     style="fill:none;fill-opacity:1;fill-rule:evenodd;stroke-width:0.0926042;stroke-miterlimit:4;stroke-dasharray:none" />
  <path
     id="Shape2DView_nwe0094"
     d="M 7.1393429,4.1388997 7.1217599,4.7295092"
     stroke="#191919"
     stroke-width="0.35 px"
     style="fill:none;fill-opacity:1;fill-rule:evenodd;stroke-width:0.0926042;stroke-miterlimit:4;stroke-dasharray:none" />
  <path
     id="Shape2DView_nwe0095"
     d="m 6.5487334,4.1213166 0.5906095,0.017583"
     stroke="#191919"
     stroke-width="0.35 px"
     style="fill:none;fill-opacity:1;fill-rule:evenodd;stroke-width:0.0926042;stroke-miterlimit:4;stroke-dasharray:none" />
  <path
     id="Shape2DView_nwe0100"
     d="M 6.6415567,3.123637 6.6117988,4.1231941"
     stroke="#191919"
     stroke-width="0.35 px"
     style="fill:none;fill-opacity:1;fill-rule:evenodd;stroke-width:0.0926042;stroke-miterlimit:4;stroke-dasharray:none" />
  <path
     id="Shape2DView_nwe0101"
     d="M 6.8894536,4.1314602 6.9192114,3.1319031"
     stroke="#191919"
     stroke-width="0.35 px"
     style="fill:none;fill-opacity:1;fill-rule:evenodd;stroke-width:0.0926042;stroke-miterlimit:4;stroke-dasharray:none" />
  <path
     id="Shape2DView_nwe0102"
     d="M 8.4185471,3.1765398 8.3887893,4.1760969"
     stroke="#191919"
     stroke-width="0.35 px"
     style="fill:none;fill-opacity:1;fill-rule:evenodd;stroke-width:0.0926042;stroke-miterlimit:4;stroke-dasharray:none" />
  <path
     id="Shape2DView_nwe0103"
     d="m 7.1765402,2.8894532 0.9995571,0.029758"
     stroke="#191919"
     stroke-width="0.35 px"
     style="fill:none;fill-opacity:1;fill-rule:evenodd;stroke-width:0.0926042;stroke-miterlimit:4;stroke-dasharray:none" />
  <path
     id="Shape2DView_nwe0104"
     d="M 8.1314606,4.4185468 7.1319034,4.3887888"
     stroke="#191919"
     stroke-width="0.35 px"
     style="fill:none;fill-opacity:1;fill-rule:evenodd;stroke-width:0.0926042;stroke-miterlimit:4;stroke-dasharray:none" />
  <path
     id="Shape2DView_nwe0105"
     d="M 8.6664441,4.184363 8.6962021,3.1848059"
     stroke="#191919"
     stroke-width="0.35 px"
     style="fill:none;fill-opacity:1;fill-rule:evenodd;stroke-width:0.0926042;stroke-miterlimit:4;stroke-dasharray:none" />
  <path
     id="Shape2DView_nwe0106"
     d="M 7.1912784,2.3944008 7.1866884,2.548733"
     stroke="#191919"
     stroke-width="0.35 px"
     style="fill:none;fill-opacity:1;fill-rule:evenodd;stroke-width:0.0926042;stroke-miterlimit:4;stroke-dasharray:none" />
  <path
     id="Shape2DView_nwe0107"
     d="M 9.3972752,3.2056775 8.7592674,3.1866835"
     stroke="#191919"
     stroke-width="0.35 px"
     style="fill:none;fill-opacity:1;fill-rule:evenodd;stroke-width:0.0926042;stroke-miterlimit:4;stroke-dasharray:none" />
  <path
     id="Shape2DView_nwe0108"
     d="m 8.7295096,4.1862405 0.6380077,0.018994"
     stroke="#191919"
     stroke-width="0.35 px"
     style="fill:none;fill-opacity:1;fill-rule:evenodd;stroke-width:0.0926042;stroke-miterlimit:4;stroke-dasharray:none" />
  <path
     id="Shape2DView_nwe0109"
     d="M 8.1167224,4.9135992 8.1213124,4.759267"
     stroke="#191919"
     stroke-width="0.35 px"
     style="fill:none;fill-opacity:1;fill-rule:evenodd;stroke-width:0.0926042;stroke-miterlimit:4;stroke-dasharray:none" />
  <path
     id="Shape2DView_nwe0110"
     d="m 14.367517,4.2052347 c 0,0 -0.07236,-0.00215 -0.192348,-0.00573 -0.119986,-0.00357 -0.284414,-0.00847 -0.445659,-0.013268"
     stroke="#191919"
     stroke-width="0.35 px"
     style="fill:none;fill-opacity:1;fill-rule:evenodd;stroke-width:0.0926042;stroke-miterlimit:4;stroke-dasharray:none" />
  <path
     id="Shape2DView_nwe0111"
     d="m 13.121317,4.759267 c -0.0015,0.051834 -0.0031,0.1032913 -0.0046,0.1543322"
     stroke="#191919"
     stroke-width="0.35 px"
     style="fill:none;fill-opacity:1;fill-rule:evenodd;stroke-width:0.0926042;stroke-miterlimit:4;stroke-dasharray:none" />
  <path
     id="Shape2DView_nwe0112"
     d="m 13.116722,4.9135992 c -0.16671,-0.00101 -0.333309,-0.00576 -0.499902,-0.010719"
     stroke="#191919"
     stroke-width="0.35 px"
     style="fill:none;fill-opacity:1;fill-rule:evenodd;stroke-width:0.0926042;stroke-miterlimit:4;stroke-dasharray:none" />
  <path
     id="Shape2DView_nwe0113"
     d="M 12.61682,4.90288 C 12.450227,4.89792 12.283641,4.89275 12.117165,4.883841"
     stroke="#191919"
     stroke-width="0.35 px"
     style="fill:none;fill-opacity:1;fill-rule:evenodd;stroke-width:0.0926042;stroke-miterlimit:4;stroke-dasharray:none" />
  <path
     id="Shape2DView_nwe0114"
     d="m 12.117165,4.8838414 c 0.0015,-0.051119 0.003,-0.1025745 0.0046,-0.1543322"
     stroke="#191919"
     stroke-width="0.35 px"
     style="fill:none;fill-opacity:1;fill-rule:evenodd;stroke-width:0.0926042;stroke-miterlimit:4;stroke-dasharray:none" />
  <path
     id="Shape2DView_nwe0115"
     d="m 11.548733,4.1213166 c -0.08107,-0.00241 -0.162778,-0.00485 -0.238653,-0.0071 -0.07587,-0.00226 -0.147274,-0.00438 -0.206852,-0.00616 -0.119155,-0.00355 -0.192502,-0.00573 -0.192502,-0.00573"
     stroke="#191919"
     stroke-width="0.35 px"
     style="fill:none;fill-opacity:1;fill-rule:evenodd;stroke-width:0.0926042;stroke-miterlimit:4;stroke-dasharray:none" />
  <path
     id="Shape2DView_nwe0116"
     d="m 10.940483,3.1027653 c 0,0 0.07236,0.00215 0.192349,0.00573 0.119986,0.00357 0.284414,0.00847 0.445659,0.013268"
     stroke="#191919"
     stroke-width="0.35 px"
     style="fill:none;fill-opacity:1;fill-rule:evenodd;stroke-width:0.0926042;stroke-miterlimit:4;stroke-dasharray:none" />
  <path
     id="Shape2DView_nwe0117"
     d="m 12.186684,2.548733 c 0.0015,-0.051834 0.0031,-0.1032913 0.0046,-0.1543322"
     stroke="#191919"
     stroke-width="0.35 px"
     style="fill:none;fill-opacity:1;fill-rule:evenodd;stroke-width:0.0926042;stroke-miterlimit:4;stroke-dasharray:none" />
  <path
     id="Shape2DView_nwe0118"
     d="m 12.191278,2.3944008 c 0.166711,0.00101 0.33331,0.00576 0.499903,0.010719 0.166593,0.00496 0.333179,0.01013 0.499654,0.019039"
     stroke="#191919"
     stroke-width="0.35 px"
     style="fill:none;fill-opacity:1;fill-rule:evenodd;stroke-width:0.0926042;stroke-miterlimit:4;stroke-dasharray:none" />
  <path
     id="Shape2DView_nwe0119"
     d="m 13.190835,2.4241586 c -0.0015,0.051119 -0.003,0.1025745 -0.0046,0.1543322"
     stroke="#191919"
     stroke-width="0.35 px"
     style="fill:none;fill-opacity:1;fill-rule:evenodd;stroke-width:0.0926042;stroke-miterlimit:4;stroke-dasharray:none" />
  <path
     id="Shape2DView_nwe0120"
     d="m 13.759267,3.1866834 c 0.08107,0.00241 0.162778,0.00485 0.238654,0.0071 0.07587,0.00226 0.147274,0.00438 0.206852,0.00616 0.119155,0.00355 0.192502,0.00573 0.192502,0.00573"
     stroke="#191919"
     stroke-width="0.35 px"
     style="fill:none;fill-opacity:1;fill-rule:evenodd;stroke-width:0.0926042;stroke-miterlimit:4;stroke-dasharray:none" />
  <path
     id="Shape2DView_nwe0121"
     d="m 12.169101,3.1393425 -0.59061,-0.017583"
     stroke="#191919"
     stroke-width="0.35 px"
     style="fill:none;fill-opacity:1;fill-rule:evenodd;stroke-width:0.0926042;stroke-miterlimit:4;stroke-dasharray:none" />
  <path
     id="Shape2DView_nwe0122"
     d="m 12.186684,2.548733 -0.01758,0.5906095"
     stroke="#191919"
     stroke-width="0.35 px"
     style="fill:none;fill-opacity:1;fill-rule:evenodd;stroke-width:0.0926042;stroke-miterlimit:4;stroke-dasharray:none" />
  <path
     id="Shape2DView_nwe0123"
     d="m 13.168658,3.1691003 0.01758,-0.5906095"
     stroke="#191919"
     stroke-width="0.35 px"
     style="fill:none;fill-opacity:1;fill-rule:evenodd;stroke-width:0.0926042;stroke-miterlimit:4;stroke-dasharray:none" />
  <path
     id="Shape2DView_nwe0124"
     d="M 13.759267,3.1866834 13.168658,3.1691004"
     stroke="#191919"
     stroke-width="0.35 px"
     style="fill:none;fill-opacity:1;fill-rule:evenodd;stroke-width:0.0926042;stroke-miterlimit:4;stroke-dasharray:none" />
  <path
     id="Shape2DView_nwe0125"
     d="m 13.1389,4.1686575 0.59061,0.017583"
     stroke="#191919"
     stroke-width="0.35 px"
     style="fill:none;fill-opacity:1;fill-rule:evenodd;stroke-width:0.0926042;stroke-miterlimit:4;stroke-dasharray:none" />
  <path
     id="Shape2DView_nwe0126"
     d="M 13.121317,4.759267 13.1389,4.1686575"
     stroke="#191919"
     stroke-width="0.35 px"
     style="fill:none;fill-opacity:1;fill-rule:evenodd;stroke-width:0.0926042;stroke-miterlimit:4;stroke-dasharray:none" />
  <path
     id="Shape2DView_nwe0127"
     d="M 12.139343,4.1388997 12.12176,4.7295092"
     stroke="#191919"
     stroke-width="0.35 px"
     style="fill:none;fill-opacity:1;fill-rule:evenodd;stroke-width:0.0926042;stroke-miterlimit:4;stroke-dasharray:none" />
  <path
     id="Shape2DView_nwe0128"
     d="m 11.548733,4.1213166 0.59061,0.017583"
     stroke="#191919"
     stroke-width="0.35 px"
     style="fill:none;fill-opacity:1;fill-rule:evenodd;stroke-width:0.0926042;stroke-miterlimit:4;stroke-dasharray:none" />
  <path
     id="Shape2DView_nwe0133"
     d="m 11.641557,3.123637 -0.02976,0.9995571"
     stroke="#191919"
     stroke-width="0.35 px"
     style="fill:none;fill-opacity:1;fill-rule:evenodd;stroke-width:0.0926042;stroke-miterlimit:4;stroke-dasharray:none" />
  <path
     id="Shape2DView_nwe0134"
     d="m 11.889454,4.1314602 0.02976,-0.9995571"
     stroke="#191919"
     stroke-width="0.35 px"
     style="fill:none;fill-opacity:1;fill-rule:evenodd;stroke-width:0.0926042;stroke-miterlimit:4;stroke-dasharray:none" />
  <path
     id="Shape2DView_nwe0135"
     d="m 13.418547,3.1765398 -0.02976,0.9995571"
     stroke="#191919"
     stroke-width="0.35 px"
     style="fill:none;fill-opacity:1;fill-rule:evenodd;stroke-width:0.0926042;stroke-miterlimit:4;stroke-dasharray:none" />
  <path
     id="Shape2DView_nwe0136"
     d="m 12.17654,2.8894532 0.999557,0.029758"
     stroke="#191919"
     stroke-width="0.35 px"
     style="fill:none;fill-opacity:1;fill-rule:evenodd;stroke-width:0.0926042;stroke-miterlimit:4;stroke-dasharray:none" />
  <path
     id="Shape2DView_nwe0137"
     d="M 13.131461,4.4185468 12.131903,4.3887888"
     stroke="#191919"
     stroke-width="0.35 px"
     style="fill:none;fill-opacity:1;fill-rule:evenodd;stroke-width:0.0926042;stroke-miterlimit:4;stroke-dasharray:none" />
  <path
     id="Shape2DView_nwe0138"
     d="m 13.666444,4.184363 0.02976,-0.9995571"
     stroke="#191919"
     stroke-width="0.35 px"
     style="fill:none;fill-opacity:1;fill-rule:evenodd;stroke-width:0.0926042;stroke-miterlimit:4;stroke-dasharray:none" />
  <path
     id="Shape2DView_nwe0139"
     d="m 12.191278,2.3944008 -0.0046,0.1543322"
     stroke="#191919"
     stroke-width="0.35 px"
     style="fill:none;fill-opacity:1;fill-rule:evenodd;stroke-width:0.0926042;stroke-miterlimit:4;stroke-dasharray:none" />
  <path
     id="Shape2DView_nwe0140"
     d="M 14.397275,3.2056775 13.759267,3.1866835"
     stroke="#191919"
     stroke-width="0.35 px"
     style="fill:none;fill-opacity:1;fill-rule:evenodd;stroke-width:0.0926042;stroke-miterlimit:4;stroke-dasharray:none" />
  <path
     id="Shape2DView_nwe0141"
     d="m 13.72951,4.1862405 0.638007,0.018994"
     stroke="#191919"
     stroke-width="0.35 px"
     style="fill:none;fill-opacity:1;fill-rule:evenodd;stroke-width:0.0926042;stroke-miterlimit:4;stroke-dasharray:none" />
  <path
     id="Shape2DView_nwe0142"
     d="m 13.116722,4.9135992 0.0046,-0.1543322"
     stroke="#191919"
     stroke-width="0.35 px"
     style="fill:none;fill-opacity:1;fill-rule:evenodd;stroke-width:0.0926042;stroke-miterlimit:4;stroke-dasharray:none" />
  <path
     id="Shape2DView_nwe0150"
     d="M 3.121317,4.759267 A 1.2,-1.2 0 0 0 3.729514,4.18624"
     stroke="#191919"
     stroke-width="0.35 px"
     style="fill:none;fill-opacity:1;fill-rule:evenodd;stroke-width:0.0926042;stroke-miterlimit:4;stroke-dasharray:none" />
  <path
     id="Shape2DView_nwe0151"
     d="M 1.5487334,4.1213166 A 1.2,-1.2 0 0 0 2.121764,4.72951"
     stroke="#191919"
     stroke-width="0.35 px"
     style="fill:none;fill-opacity:1;fill-rule:evenodd;stroke-width:0.0926042;stroke-miterlimit:4;stroke-dasharray:none" />
  <path
     id="Shape2DView_nwe0152"
     d="M 2.1866838,2.548733 A 1.2,-1.2 0 0 0 1.578494,3.12176"
     stroke="#191919"
     stroke-width="0.35 px"
     style="fill:none;fill-opacity:1;fill-rule:evenodd;stroke-width:0.0926042;stroke-miterlimit:4;stroke-dasharray:none" />
  <path
     id="Shape2DView_nwe0153"
     d="M 3.7592674,3.1866834 A 1.2,-1.2 0 0 0 3.186244,2.578491"
     stroke="#191919"
     stroke-width="0.35 px"
     style="fill:none;fill-opacity:1;fill-rule:evenodd;stroke-width:0.0926042;stroke-miterlimit:4;stroke-dasharray:none" />
  <path
     id="Shape2DView_nwe0155"
     d="M 8.121317,4.759267 A 1.2,-1.2 0 0 0 8.729514,4.18624"
     stroke="#191919"
     stroke-width="0.35 px"
     style="fill:none;fill-opacity:1;fill-rule:evenodd;stroke-width:0.0926042;stroke-miterlimit:4;stroke-dasharray:none" />
  <path
     id="Shape2DView_nwe0156"
     d="M 6.5487334,4.1213166 A 1.2,-1.2 0 0 0 7.121764,4.72951"
     stroke="#191919"
     stroke-width="0.35 px"
     style="fill:none;fill-opacity:1;fill-rule:evenodd;stroke-width:0.0926042;stroke-miterlimit:4;stroke-dasharray:none" />
  <path
     id="Shape2DView_nwe0157"
     d="M 7.1866838,2.548733 A 1.2,-1.2 0 0 0 6.578491,3.12176"
     stroke="#191919"
     stroke-width="0.35 px"
     style="fill:none;fill-opacity:1;fill-rule:evenodd;stroke-width:0.0926042;stroke-miterlimit:4;stroke-dasharray:none" />
  <path
     id="Shape2DView_nwe0158"
     d="M 8.7592674,3.1866834 A 1.2,-1.2 0 0 0 8.186244,2.578491"
     stroke="#191919"
     stroke-width="0.35 px"
     style="fill:none;fill-opacity:1;fill-rule:evenodd;stroke-width:0.0926042;stroke-miterlimit:4;stroke-dasharray:none" />
  <path
     id="Shape2DView_nwe0160"
     d="M 13.121317,4.759267 A 1.2,-1.2 0 0 0 13.729514,4.18624"
     stroke="#191919"
     stroke-width="0.35 px"
     style="fill:none;fill-opacity:1;fill-rule:evenodd;stroke-width:0.0926042;stroke-miterlimit:4;stroke-dasharray:none" />
  <path
     id="Shape2DView_nwe0161"
     d="M 11.548733,4.1213166 A 1.2,-1.2 0 0 0 12.121764,4.72951"
     stroke="#191919"
     stroke-width="0.35 px"
     style="fill:none;fill-opacity:1;fill-rule:evenodd;stroke-width:0.0926042;stroke-miterlimit:4;stroke-dasharray:none" />
  <path
     id="Shape2DView_nwe0162"
     d="M 12.186684,2.548733 A 1.2,-1.2 0 0 0 11.578494,3.12176"
     stroke="#191919"
     stroke-width="0.35 px"
     style="fill:none;fill-opacity:1;fill-rule:evenodd;stroke-width:0.0926042;stroke-miterlimit:4;stroke-dasharray:none" />
  <path
     id="Shape2DView_nwe0163"
     d="M 13.759267,3.1866834 A 1.2,-1.2 0 0 0 13.186244,2.578491"
     stroke="#191919"
     stroke-width="0.35 px"
     style="fill:none;fill-opacity:1;fill-rule:evenodd;stroke-width:0.0926042;stroke-miterlimit:4;stroke-dasharray:none" />
  <path
     id="Shape2DView_nwe0165"
     d="m 2.6004363,5.4532028 1.008e-4,-0.00339 3.012e-4,-0.010119 4.983e-4,-0.016738 6.898e-4,-0.023168 8.733e-4,-0.029336 0.00105,-0.035174 0.00121,-0.040614 0.00136,-0.045595 0.00149,-0.050062 0.00161,-0.053963 0.0017,-0.057255 0.00178,-0.059901 0.00184,-0.06187 0.00188,-0.063141"
     stroke="#191919"
     stroke-width="0.35 px"
     style="fill:none;fill-opacity:1;fill-rule:evenodd;stroke-width:0.0926042;stroke-miterlimit:4;stroke-dasharray:none" />
  <path
     id="Shape2DView_nwe0166"
     d="m 7.6004363,5.4532028 1.008e-4,-0.00339 3.012e-4,-0.010119 4.983e-4,-0.016738 6.898e-4,-0.023168 8.733e-4,-0.029336 0.00105,-0.035174 0.00121,-0.040614 0.00136,-0.045595 0.00149,-0.050062 0.00161,-0.053963 0.0017,-0.057255 0.00178,-0.059901 0.00184,-0.06187 0.00188,-0.063141"
     stroke="#191919"
     stroke-width="0.35 px"
     style="fill:none;fill-opacity:1;fill-rule:evenodd;stroke-width:0.0926042;stroke-miterlimit:4;stroke-dasharray:none" />
  <path
     id="Shape2DView_nwe0167"
     d="m 12.600436,5.4532028 1.01e-4,-0.00339 3.01e-4,-0.010119 4.99e-4,-0.016738 6.89e-4,-0.023168 8.74e-4,-0.029336 0.001,-0.035174 0.0012,-0.040614 0.0014,-0.045595 0.0015,-0.050062 0.0016,-0.053963 0.0017,-0.057255 0.0018,-0.059901 0.0018,-0.06187 0.0019,-0.063141"
     stroke="#191919"
     stroke-width="0.35 px"
     style="fill:none;fill-opacity:1;fill-rule:evenodd;stroke-width:0.0926042;stroke-miterlimit:4;stroke-dasharray:none" />
  <g
     id="Rectangle"
     transform="matrix(1,0,0,-1,6.058394,1.6382)"
     style="display:none">
    <rect
       fill="#ff0000"
       id="origin"
       width="1"
       height="1"
       x="0"
       y="0" />
    <title
       id="title168">b'Rectangle'</title>
  </g>
  <path
     style="fill:none;stroke:#000000;stroke-width:0.09260417;stroke-linecap:butt;stroke-linejoin:miter;stroke-opacity:1;stroke-miterlimit:4;stroke-dasharray:none"
     d="m 15.154,5.9539999 v 0.96906"
     id="path1164" />
</svg>
