<?xml version="1.0" encoding="UTF-8" standalone="no"?>
<svg
   xmlns:dc="http://purl.org/dc/elements/1.1/"
   xmlns:cc="http://creativecommons.org/ns#"
   xmlns:rdf="http://www.w3.org/1999/02/22-rdf-syntax-ns#"
   xmlns:svg="http://www.w3.org/2000/svg"
   xmlns="http://www.w3.org/2000/svg"
   xmlns:sodipodi="http://sodipodi.sourceforge.net/DTD/sodipodi-0.dtd"
   xmlns:inkscape="http://www.inkscape.org/namespaces/inkscape"
   width="81.6mm"
   height="37.599999999999994mm"
   viewBox="0 0 81.6 37.599999999999994"
   version="1.1"
   id="svg227"
   sodipodi:docname="LCD16x2.svg"
   inkscape:version="1.0.2 (e86c870879, 2021-01-15)">
  <metadata
     id="metadata233">
    <rdf:RDF>
      <cc:Work
         rdf:about="">
        <dc:format>image/svg+xml</dc:format>
        <dc:type
           rdf:resource="http://purl.org/dc/dcmitype/StillImage" />
      </cc:Work>
    </rdf:RDF>
  </metadata>
  <defs
     id="defs231" />
  <sodipodi:namedview
     pagecolor="#ffffff"
     bordercolor="#666666"
     borderopacity="1"
     objecttolerance="10"
     gridtolerance="10"
     guidetolerance="10"
     inkscape:pageopacity="0"
     inkscape:pageshadow="2"
     inkscape:window-width="1366"
     inkscape:window-height="713"
     id="namedview229"
     showgrid="false"
     inkscape:zoom="1.3378216"
     inkscape:cx="89.013795"
     inkscape:cy="32.260484"
     inkscape:window-x="0"
     inkscape:window-y="0"
     inkscape:window-maximized="1"
     inkscape:current-layer="svg227"
     inkscape:document-rotation="0" />
  <path
     style="display:inline;fill:#5f6d9a;fill-opacity:1;stroke:#000000;stroke-width:0.0926042;stroke-linecap:butt;stroke-linejoin:miter;stroke-miterlimit:4;stroke-dasharray:none;stroke-opacity:1"
     d="m 33.700001,36.8 h 40.1 -10e-7 7 v 0 -36 0 h -80 v 0 36 0 z"
     id="path1262"
     sodipodi:nodetypes="ccccccccccccc" />
  <path
     id="Shape2DView_nwe0007"
     d="M 71.8,36.8 H 71.26"
     stroke="#191919"
     stroke-width="0.35 px"
     style="fill:none;fill-opacity:1;fill-rule:evenodd;stroke-width:0.09260417;stroke-miterlimit:4;stroke-dasharray:none;stroke:#000000" />
  <path
     id="Shape2DView_nwe0008"
     d="M 69.26,36.8 H 68.72"
     stroke="#191919"
     stroke-width="0.35 px"
     style="fill:none;fill-opacity:1;fill-rule:evenodd;stroke-width:0.09260417;stroke-miterlimit:4;stroke-dasharray:none;stroke:#000000" />
  <path
     id="Shape2DView_nwe0009"
     d="M 66.72,36.8 H 66.18"
     stroke="#191919"
     stroke-width="0.35 px"
     style="fill:none;fill-opacity:1;fill-rule:evenodd;stroke-width:0.09260417;stroke-miterlimit:4;stroke-dasharray:none;stroke:#000000" />
  <path
     id="Shape2DView_nwe0010"
     d="M 64.18,36.8 H 63.64"
     stroke="#191919"
     stroke-width="0.35 px"
     style="fill:none;fill-opacity:1;fill-rule:evenodd;stroke-width:0.09260417;stroke-miterlimit:4;stroke-dasharray:none;stroke:#000000" />
  <path
     id="Shape2DView_nwe0011"
     d="M 61.64,36.8 H 61.1"
     stroke="#191919"
     stroke-width="0.35 px"
     style="fill:none;fill-opacity:1;fill-rule:evenodd;stroke-width:0.09260417;stroke-miterlimit:4;stroke-dasharray:none;stroke:#000000" />
  <path
     id="Shape2DView_nwe0012"
     d="M 59.1,36.8 H 58.56"
     stroke="#191919"
     stroke-width="0.35 px"
     style="fill:none;fill-opacity:1;fill-rule:evenodd;stroke-width:0.09260417;stroke-miterlimit:4;stroke-dasharray:none;stroke:#000000" />
  <path
     id="Shape2DView_nwe0013"
     d="M 56.56,36.8 H 56.02"
     stroke="#191919"
     stroke-width="0.35 px"
     style="fill:none;fill-opacity:1;fill-rule:evenodd;stroke-width:0.09260417;stroke-miterlimit:4;stroke-dasharray:none;stroke:#000000" />
  <path
     id="Shape2DView_nwe0014"
     d="M 54.02,36.8 H 53.48"
     stroke="#191919"
     stroke-width="0.35 px"
     style="fill:none;fill-opacity:1;fill-rule:evenodd;stroke-width:0.09260417;stroke-miterlimit:4;stroke-dasharray:none;stroke:#000000" />
  <path
     id="Shape2DView_nwe0015"
     d="M 51.48,36.8 H 50.94"
     stroke="#191919"
     stroke-width="0.35 px"
     style="fill:none;fill-opacity:1;fill-rule:evenodd;stroke-width:0.09260417;stroke-miterlimit:4;stroke-dasharray:none;stroke:#000000" />
  <path
     id="Shape2DView_nwe0016"
     d="M 48.94,36.8 H 48.4"
     stroke="#191919"
     stroke-width="0.35 px"
     style="fill:none;fill-opacity:1;fill-rule:evenodd;stroke-width:0.09260417;stroke-miterlimit:4;stroke-dasharray:none;stroke:#000000" />
  <path
     id="Shape2DView_nwe0017"
     d="M 46.4,36.8 H 45.86"
     stroke="#191919"
     stroke-width="0.35 px"
     style="fill:none;fill-opacity:1;fill-rule:evenodd;stroke-width:0.09260417;stroke-miterlimit:4;stroke-dasharray:none;stroke:#000000" />
  <path
     id="Shape2DView_nwe0018"
     d="M 43.86,36.8 H 43.32"
     stroke="#191919"
     stroke-width="0.35 px"
     style="fill:none;fill-opacity:1;fill-rule:evenodd;stroke-width:0.09260417;stroke-miterlimit:4;stroke-dasharray:none;stroke:#000000" />
  <path
     id="Shape2DView_nwe0019"
     d="M 41.32,36.8 H 40.78"
     stroke="#191919"
     stroke-width="0.35 px"
     style="fill:none;fill-opacity:1;fill-rule:evenodd;stroke-width:0.09260417;stroke-miterlimit:4;stroke-dasharray:none;stroke:#000000" />
  <path
     id="Shape2DView_nwe0020"
     d="M 38.78,36.8 H 38.24"
     stroke="#191919"
     stroke-width="0.35 px"
     style="fill:none;fill-opacity:1;fill-rule:evenodd;stroke-width:0.09260417;stroke-miterlimit:4;stroke-dasharray:none;stroke:#000000" />
  <path
     id="Shape2DView_nwe0021"
     d="M 36.24,36.8 H 35.7"
     stroke="#191919"
     stroke-width="0.35 px"
     style="fill:none;fill-opacity:1;fill-rule:evenodd;stroke-width:0.09260417;stroke-miterlimit:4;stroke-dasharray:none;stroke:#000000" />
  <circle
     cx="3.3"
     cy="-3.3"
     r="1.25"
     stroke="#191919"
     stroke-width="0.35 px"
     style="fill:#1a1a1a;stroke-width:0.09260417;stroke-miterlimit:4;stroke-dasharray:none;stroke:#000000"
     id="circle27"
     transform="scale(1,-1)" />
  <path
     id="Shape2DView_nwe0026"
     d="M 6.1,6.3 A 0.4,-0.4 0 0 0 5.7,6.7"
     stroke="#191919"
     stroke-width="0.35 px"
     style="fill:none;fill-opacity:1;fill-rule:evenodd;stroke-width:0.09260417;stroke-miterlimit:4;stroke-dasharray:none;stroke:#000000" />
  <path
     id="Shape2DView_nwe0027"
     d="M 5.2,7.2 A 0.4,-0.4 0 0 0 4.8,7.6"
     stroke="#191919"
     stroke-width="0.35 px"
     style="fill:none;fill-opacity:1;fill-rule:evenodd;stroke-width:0.09260417;stroke-miterlimit:4;stroke-dasharray:none;stroke:#000000" />
  <path
     id="Shape2DView_nwe0028"
     d="M 5.2,30.5 A 0.4,-0.4 0 0 1 4.8,30.1"
     stroke="#191919"
     stroke-width="0.35 px"
     style="fill:none;fill-opacity:1;fill-rule:evenodd;stroke-width:0.09260417;stroke-miterlimit:4;stroke-dasharray:none;stroke:#000000" />
  <path
     id="Shape2DView_nwe0029"
     d="M 6.1,31.43 A 0.4,-0.4 0 0 1 5.7,31.03"
     stroke="#191919"
     stroke-width="0.35 px"
     style="fill:none;fill-opacity:1;fill-rule:evenodd;stroke-width:0.09260417;stroke-miterlimit:4;stroke-dasharray:none;stroke:#000000" />
  <path
     id="Shape2DView_nwe0030"
     d="m 76.8,30.1 a 0.4,-0.4 0 0 1 -0.4,0.4"
     stroke="#191919"
     stroke-width="0.35 px"
     style="fill:none;fill-opacity:1;fill-rule:evenodd;stroke-width:0.09260417;stroke-miterlimit:4;stroke-dasharray:none;stroke:#000000" />
  <path
     id="Shape2DView_nwe0031"
     d="m 76.4,7.2 a 0.4,-0.4 0 0 1 0.4,0.4"
     stroke="#191919"
     stroke-width="0.35 px"
     style="fill:none;fill-opacity:1;fill-rule:evenodd;stroke-width:0.09260417;stroke-miterlimit:4;stroke-dasharray:none;stroke:#000000" />
  <circle
     cx="78.300003"
     cy="-3.3"
     r="1.25"
     stroke="#191919"
     stroke-width="0.35 px"
     style="fill:#1a1a1a;stroke-width:0.09260417;stroke-miterlimit:4;stroke-dasharray:none;stroke:#000000"
     id="circle35"
     transform="scale(1,-1)" />
  <circle
     cx="78.300003"
     cy="-34.299999"
     r="1.25"
     stroke="#191919"
     stroke-width="0.35 px"
     style="fill:#1a1a1a;stroke-width:0.09260417;stroke-miterlimit:4;stroke-dasharray:none;stroke:#000000"
     id="circle37"
     transform="scale(1,-1)" />
  <circle
     cx="3.3"
     cy="-34.299999"
     r="1.25"
     stroke="#191919"
     stroke-width="0.35 px"
     style="fill:#1a1a1a;stroke-width:0.09260417;stroke-miterlimit:4;stroke-dasharray:none;stroke:#000000"
     id="circle39"
     transform="scale(1,-1)" />
  <path
     id="Shape2DView_nwe0084"
     d="M 75.5,31.43 H 6.1 v 0 L 6.055216,31.42747 6.010993,31.41997 5.96789,31.40755 5.926448,31.39039 5.887189,31.36869 5.850606,31.34273 5.817159,31.31284 5.787269,31.27939 5.761312,31.24281 5.739614,31.20355 5.722448,31.16211 5.71003,31.11901 5.70252,31.07479 5.7,31.03 v 0 -0.53 0 H 5.2 v 0 L 5.155214,30.4975 5.110991,30.49 5.067888,30.47758 5.026446,30.46042 4.987187,30.43872 4.950604,30.41276 4.917157,30.38287 4.887267,30.34942 4.86131,30.31284 4.839612,30.27358 4.822446,30.23214 4.810028,30.18904 4.802518,30.14482 4.8,30.1 v 0 -22.5 0 L 4.802518,7.555216 4.810028,7.510993 4.822446,7.46789 4.839612,7.426448 4.86131,7.387189 4.887267,7.350606 4.917157,7.317159 4.950604,7.287269 4.987187,7.261312 5.026446,7.239614 5.067888,7.222448 5.110991,7.21003 5.155214,7.20252 5.2,7.2 v 0 h 0.5 v 0 -0.5 0 L 5.70252,6.655214 5.71003,6.610991 5.722448,6.567888 5.739614,6.526446 5.761312,6.487187 5.787269,6.450604 5.817159,6.417157 5.850606,6.387267 5.887189,6.36131 5.926448,6.339612 5.96789,6.322446 6.010993,6.310028 6.055216,6.302518 6.1,6.3 v 0 h 69.4 v 0 c 0.220914,0 0.4,0.1790861 0.4,0.4 v 0 0.5 0 h 0.5 v 0 l 0.04479,0.00252 0.04422,0.00751 0.0431,0.012418 0.04144,0.017166 0.03926,0.021698 0.03658,0.025957 0.03345,0.02989 0.02989,0.033447 0.02596,0.036583 0.0217,0.039259 0.01717,0.041442 0.01242,0.043103 0.0075,0.044223 L 76.8,7.6 v 0 22.5 0 l -0.0025,0.04482 -0.0075,0.04422 -0.01242,0.0431 -0.01717,0.04144 -0.0217,0.03926 -0.02596,0.03658 -0.02989,0.03345 -0.03345,0.02989 -0.03658,0.02596 -0.03926,0.0217 -0.04144,0.01716 L 76.48901,30.49 76.44479,30.4975 76.4,30.5 v 0 h -0.5 v 0 0.53 0 c 0,0.220914 -0.179086,0.4 -0.4,0.4 z"
     stroke="#191919"
     stroke-width="0.35 px"
     style="fill:#1a1a1a;fill-opacity:1;fill-rule:evenodd;stroke-width:0.09260417;stroke-miterlimit:4;stroke-dasharray:none;stroke:#000000"
     sodipodi:nodetypes="ccccccccccccccccccccccccccccccccccccccccccccccccccccccccccccccccccccccccccccccccccccccccccccccccccccccccccccccccccccccc" />
  <path
     id="Shape2DView_nwe0085"
     d="M 75.9,7.2 H 75.5"
     stroke="#191919"
     stroke-width="0.35 px"
     style="fill:none;fill-opacity:1;fill-rule:evenodd;stroke-width:0.09260417;stroke-miterlimit:4;stroke-dasharray:none;stroke:#000000" />
  <path
     id="Shape2DView_nwe0090"
     d="M 75.9,30.5 H 75.5"
     stroke="#191919"
     stroke-width="0.35 px"
     style="fill:none;fill-opacity:1;fill-rule:evenodd;stroke-width:0.09260417;stroke-miterlimit:4;stroke-dasharray:none;stroke:#000000" />
  <path
     id="Shape2DView_nwe0150"
     d="M 75.5,6.7 H 5.7"
     stroke="#191919"
     stroke-width="0.35 px"
     style="fill:none;fill-opacity:1;fill-rule:evenodd;stroke-width:0.09260417;stroke-miterlimit:4;stroke-dasharray:none;stroke:#000000" />
  <path
     id="Shape2DView_nwe0151"
     d="M 75.5,6.7 V 6.655214 6.610991 6.567888 6.526446 6.487187 6.450604 6.417157 6.387267 6.36131 6.339612 6.322446 6.310028 6.302518 6.3"
     stroke="#191919"
     stroke-width="0.35 px"
     style="fill:none;fill-opacity:1;fill-rule:evenodd;stroke-width:0.09260417;stroke-miterlimit:4;stroke-dasharray:none;stroke:#000000" />
  <path
     id="Shape2DView_nwe0152"
     d="m 75.5,6.7 h 0.04479 0.04422 0.0431 0.04144 0.03926 0.03658 0.03345 0.02989 0.02596 0.0217 0.01716 0.01242 0.0075 0.0025"
     stroke="#191919"
     stroke-width="0.35 px"
     style="fill:none;fill-opacity:1;fill-rule:evenodd;stroke-width:0.09260417;stroke-miterlimit:4;stroke-dasharray:none;stroke:#000000" />
  <path
     id="Shape2DView_nwe0153"
     d="M 75.5,7.2 V 6.7"
     stroke="#191919"
     stroke-width="0.35 px"
     style="fill:none;fill-opacity:1;fill-rule:evenodd;stroke-width:0.09260417;stroke-miterlimit:4;stroke-dasharray:none;stroke:#000000" />
  <path
     id="Shape2DView_nwe0154"
     d="M 5.2,7.2 V 30.5"
     stroke="#191919"
     stroke-width="0.35 px"
     style="fill:none;fill-opacity:1;fill-rule:evenodd;stroke-width:0.09260417;stroke-miterlimit:4;stroke-dasharray:none;stroke:#000000" />
  <path
     id="Shape2DView_nwe0155"
     d="M 75.5,31.03 H 5.7"
     stroke="#191919"
     stroke-width="0.35 px"
     style="fill:none;fill-opacity:1;fill-rule:evenodd;stroke-width:0.09260417;stroke-miterlimit:4;stroke-dasharray:none;stroke:#000000" />
  <path
     id="Shape2DView_nwe0156"
     d="m 75.5,30.5 v 0.53"
     stroke="#191919"
     stroke-width="0.35 px"
     style="fill:none;fill-opacity:1;fill-rule:evenodd;stroke-width:0.09260417;stroke-miterlimit:4;stroke-dasharray:none;stroke:#000000" />
  <path
     id="Shape2DView_nwe0157"
     d="M 76.4,7.2 V 30.5"
     stroke="#191919"
     stroke-width="0.35 px"
     style="fill:none;fill-opacity:1;fill-rule:evenodd;stroke-width:0.09260417;stroke-miterlimit:4;stroke-dasharray:none;stroke:#000000" />
  <path
     id="Shape2DView_nwe0158"
     d="m 75.5,31.03 h 0.04479 0.04422 0.0431 0.04144 0.03926 0.03658 0.03345 0.02989 0.02596 0.0217 0.01716 0.01242 0.0075 0.0025"
     stroke="#191919"
     stroke-width="0.35 px"
     style="fill:none;fill-opacity:1;fill-rule:evenodd;stroke-width:0.09260417;stroke-miterlimit:4;stroke-dasharray:none;stroke:#000000" />
  <path
     id="Shape2DView_nwe0159"
     d="m 75.5,31.03 v 0.04479 0.04422 0.0431 0.04144 0.03926 0.03658 0.03345 0.02989 0.02596 0.0217 0.01716 0.01242 0.0075 0.0025"
     stroke="#191919"
     stroke-width="0.35 px"
     style="fill:none;fill-opacity:1;fill-rule:evenodd;stroke-width:0.09260417;stroke-miterlimit:4;stroke-dasharray:none;stroke:#000000" />
  <path
     id="Shape2DView_nwe0004"
     d="m 71.8,34.3 c 0,-1.333333 2,-1.333333 2,0 v 0 2.5 0 h -2 v 0 z"
     stroke="#191919"
     stroke-width="0.35 px"
     style="fill:#b3b3b3;fill-opacity:1;fill-rule:evenodd;stroke-width:0.09260417;stroke-miterlimit:4;stroke-dasharray:none;stroke:#000000"
     sodipodi:nodetypes="ccccccccc" />
  <path
     id="Shape2DView_nwe0035"
     d="m 73.3,34.3 c 0,-0.666666 -1,-0.666666 -1,0 v 0 c 0,0.666666 1,0.666666 1,0 z"
     stroke="#191919"
     stroke-width="0.35 px"
     style="display:inline;fill:#000000;fill-opacity:1;fill-rule:evenodd;stroke-width:0.0926042;stroke-miterlimit:4;stroke-dasharray:none;stroke:#000000"
     sodipodi:nodetypes="ccccc" />
  <path
     id="Shape2DView_nwe0160"
     d="m 71.8,34.3 a 1,1 0 0 0 2,0"
     stroke="#191919"
     stroke-width="0.35 px"
     style="fill:none;fill-opacity:1;fill-rule:evenodd;stroke-width:0.09260417;stroke-miterlimit:4;stroke-dasharray:none;stroke:#000000" />
  <path
     id="Shape2DView_nwe0161"
     d="M 72.3,34.3 H 71.8"
     stroke="#191919"
     stroke-width="0.35 px"
     style="fill:none;fill-opacity:1;fill-rule:evenodd;stroke-width:0.09260417;stroke-miterlimit:4;stroke-dasharray:none;stroke:#000000" />
  <path
     id="Shape2DView_nwe0162"
     d="M 73.8,34.3 H 73.3"
     stroke="#191919"
     stroke-width="0.35 px"
     style="fill:none;fill-opacity:1;fill-rule:evenodd;stroke-width:0.09260417;stroke-miterlimit:4;stroke-dasharray:none;stroke:#000000" />
  <path
     id="Shape2DView_nwe0209"
     d="m 73.3,26.8 h -65 v 0 c -0.2761424,0 -0.5,-0.223858 -0.5,-0.5 v 0 -15 0 c 0,-0.276142 0.2238576,-0.5 0.5,-0.5 v 0 h 65 v 0 c 0.276142,0 0.5,0.223858 0.5,0.5 v 0 15 0 c 0,0.276142 -0.223858,0.5 -0.5,0.5 z"
     stroke="#191919"
     stroke-width="0.35 px"
     style="fill:#008200;fill-opacity:1;fill-rule:evenodd;stroke-width:0.09260417;stroke-miterlimit:4;stroke-dasharray:none;stroke:#000000"
     sodipodi:nodetypes="ccccccccccccccccc" />
  <rect
     fill="#ff0000"
     id="origin"
     width="1"
     height="1"
     x="8.8000002"
     y="-3.3"
     transform="scale(1,-1)"
     style="stroke-width:0.09260417;stroke-miterlimit:4;stroke-dasharray:none;stroke:#000000" />
  <path
     id="Shape2DView_nwe0004-6"
     d="m 66.72,34.3 c 0,-1.333333 2,-1.333333 2,0 v 0 2.5 0 h -2 v 0 z"
     stroke="#191919"
     stroke-width="0.35 px"
     style="fill:#b3b3b3;fill-opacity:1;fill-rule:evenodd;stroke-width:0.09260417;stroke-miterlimit:4;stroke-dasharray:none;stroke:#000000"
     sodipodi:nodetypes="ccccccccc" />
  <path
     id="Shape2DView_nwe0035-5"
     d="m 68.22,34.3 c 0,-0.666666 -1,-0.666666 -1,0 v 0 c 0,0.666666 1,0.666666 1,0 z"
     stroke="#191919"
     stroke-width="0.35 px"
     style="display:inline;fill:#000000;fill-opacity:1;fill-rule:evenodd;stroke-width:0.0926042;stroke-miterlimit:4;stroke-dasharray:none;stroke:#000000"
     sodipodi:nodetypes="ccccc" />
  <path
     id="Shape2DView_nwe0160-3"
     d="m 66.72,34.3 a 1,1 0 0 0 2,0"
     stroke="#191919"
     stroke-width="0.35 px"
     style="fill:none;fill-opacity:1;fill-rule:evenodd;stroke-width:0.09260417;stroke-miterlimit:4;stroke-dasharray:none;stroke:#000000" />
  <path
     id="Shape2DView_nwe0161-5"
     d="m 67.22,34.3 h -0.5"
     stroke="#191919"
     stroke-width="0.35 px"
     style="fill:none;fill-opacity:1;fill-rule:evenodd;stroke-width:0.09260417;stroke-miterlimit:4;stroke-dasharray:none;stroke:#000000" />
  <path
     id="Shape2DView_nwe0162-6"
     d="m 68.72,34.3 h -0.5"
     stroke="#191919"
     stroke-width="0.35 px"
     style="fill:none;fill-opacity:1;fill-rule:evenodd;stroke-width:0.09260417;stroke-miterlimit:4;stroke-dasharray:none;stroke:#000000" />
  <path
     id="Shape2DView_nwe0004-9"
     d="m 69.26,34.3 c 0,-1.333333 2,-1.333333 2,0 v 0 2.5 0 h -2 v 0 z"
     stroke="#191919"
     stroke-width="0.35 px"
     style="fill:#b3b3b3;fill-opacity:1;fill-rule:evenodd;stroke-width:0.09260417;stroke-miterlimit:4;stroke-dasharray:none;stroke:#000000"
     sodipodi:nodetypes="ccccccccc" />
  <path
     id="Shape2DView_nwe0035-2"
     d="m 70.76,34.3 c 0,-0.666666 -1,-0.666666 -1,0 v 0 c 0,0.666666 1,0.666666 1,0 z"
     stroke="#191919"
     stroke-width="0.35 px"
     style="display:inline;fill:#000000;fill-opacity:1;fill-rule:evenodd;stroke-width:0.0926042;stroke-miterlimit:4;stroke-dasharray:none;stroke:#000000"
     sodipodi:nodetypes="ccccc" />
  <path
     id="Shape2DView_nwe0160-7"
     d="m 69.26,34.3 a 1,1 0 0 0 2,0"
     stroke="#191919"
     stroke-width="0.35 px"
     style="fill:none;fill-opacity:1;fill-rule:evenodd;stroke-width:0.09260417;stroke-miterlimit:4;stroke-dasharray:none;stroke:#000000" />
  <path
     id="Shape2DView_nwe0161-0"
     d="m 69.76,34.3 h -0.5"
     stroke="#191919"
     stroke-width="0.35 px"
     style="fill:none;fill-opacity:1;fill-rule:evenodd;stroke-width:0.09260417;stroke-miterlimit:4;stroke-dasharray:none;stroke:#000000" />
  <path
     id="Shape2DView_nwe0162-9"
     d="m 71.26,34.3 h -0.5"
     stroke="#191919"
     stroke-width="0.35 px"
     style="fill:none;fill-opacity:1;fill-rule:evenodd;stroke-width:0.09260417;stroke-miterlimit:4;stroke-dasharray:none;stroke:#000000" />
  <path
     id="Shape2DView_nwe0004-0"
     d="m 64.18,34.3 c 0,-1.333333 2,-1.333333 2,0 v 0 2.5 0 h -2 v 0 z"
     stroke="#191919"
     stroke-width="0.35 px"
     style="fill:#b3b3b3;fill-opacity:1;fill-rule:evenodd;stroke-width:0.09260417;stroke-miterlimit:4;stroke-dasharray:none;stroke:#000000"
     sodipodi:nodetypes="ccccccccc" />
  <path
     id="Shape2DView_nwe0035-26"
     d="m 65.68,34.3 c 0,-0.666666 -1,-0.666666 -1,0 v 0 c 0,0.666666 1,0.666666 1,0 z"
     stroke="#191919"
     stroke-width="0.35 px"
     style="display:inline;fill:#000000;fill-opacity:1;fill-rule:evenodd;stroke-width:0.0926042;stroke-miterlimit:4;stroke-dasharray:none;stroke:#000000"
     sodipodi:nodetypes="ccccc" />
  <path
     id="Shape2DView_nwe0160-1"
     d="m 64.18,34.3 a 1,1 0 0 0 2,0"
     stroke="#191919"
     stroke-width="0.35 px"
     style="fill:none;fill-opacity:1;fill-rule:evenodd;stroke-width:0.09260417;stroke-miterlimit:4;stroke-dasharray:none;stroke:#000000" />
  <path
     id="Shape2DView_nwe0161-8"
     d="m 64.68,34.3 h -0.5"
     stroke="#191919"
     stroke-width="0.35 px"
     style="fill:none;fill-opacity:1;fill-rule:evenodd;stroke-width:0.09260417;stroke-miterlimit:4;stroke-dasharray:none;stroke:#000000" />
  <path
     id="Shape2DView_nwe0162-7"
     d="m 66.18,34.3 h -0.5"
     stroke="#191919"
     stroke-width="0.35 px"
     style="fill:none;fill-opacity:1;fill-rule:evenodd;stroke-width:0.09260417;stroke-miterlimit:4;stroke-dasharray:none;stroke:#000000" />
  <path
     id="Shape2DView_nwe0004-2"
     d="m 61.64,34.3 c 0,-1.333333 2,-1.333333 2,0 v 0 2.5 0 h -2 v 0 z"
     stroke="#191919"
     stroke-width="0.35 px"
     style="fill:#b3b3b3;fill-opacity:1;fill-rule:evenodd;stroke-width:0.09260417;stroke-miterlimit:4;stroke-dasharray:none;stroke:#000000"
     sodipodi:nodetypes="ccccccccc" />
  <path
     id="Shape2DView_nwe0035-23"
     d="m 63.14,34.3 c 0,-0.666666 -1,-0.666666 -1,0 v 0 c 0,0.666666 1,0.666666 1,0 z"
     stroke="#191919"
     stroke-width="0.35 px"
     style="display:inline;fill:#000000;fill-opacity:1;fill-rule:evenodd;stroke-width:0.0926042;stroke-miterlimit:4;stroke-dasharray:none;stroke:#000000"
     sodipodi:nodetypes="ccccc" />
  <path
     id="Shape2DView_nwe0160-75"
     d="m 61.64,34.3 a 1,1 0 0 0 2,0"
     stroke="#191919"
     stroke-width="0.35 px"
     style="fill:none;fill-opacity:1;fill-rule:evenodd;stroke-width:0.09260417;stroke-miterlimit:4;stroke-dasharray:none;stroke:#000000" />
  <path
     id="Shape2DView_nwe0161-9"
     d="m 62.14,34.3 h -0.5"
     stroke="#191919"
     stroke-width="0.35 px"
     style="fill:none;fill-opacity:1;fill-rule:evenodd;stroke-width:0.09260417;stroke-miterlimit:4;stroke-dasharray:none;stroke:#000000" />
  <path
     id="Shape2DView_nwe0162-2"
     d="m 63.64,34.3 h -0.5"
     stroke="#191919"
     stroke-width="0.35 px"
     style="fill:none;fill-opacity:1;fill-rule:evenodd;stroke-width:0.09260417;stroke-miterlimit:4;stroke-dasharray:none;stroke:#000000" />
  <path
     id="Shape2DView_nwe0004-97"
     d="m 56.56,34.3 c 0,-1.333333 2,-1.333333 2,0 v 0 2.5 0 h -2 v 0 z"
     stroke="#191919"
     stroke-width="0.35 px"
     style="fill:#b3b3b3;fill-opacity:1;fill-rule:evenodd;stroke-width:0.09260417;stroke-miterlimit:4;stroke-dasharray:none;stroke:#000000"
     sodipodi:nodetypes="ccccccccc" />
  <path
     id="Shape2DView_nwe0035-6"
     d="m 58.06,34.3 c 0,-0.666666 -1,-0.666666 -1,0 v 0 c 0,0.666666 1,0.666666 1,0 z"
     stroke="#191919"
     stroke-width="0.35 px"
     style="display:inline;fill:#000000;fill-opacity:1;fill-rule:evenodd;stroke-width:0.0926042;stroke-miterlimit:4;stroke-dasharray:none;stroke:#000000"
     sodipodi:nodetypes="ccccc" />
  <path
     id="Shape2DView_nwe0160-12"
     d="m 56.56,34.3 a 1,1 0 0 0 2,0"
     stroke="#191919"
     stroke-width="0.35 px"
     style="fill:none;fill-opacity:1;fill-rule:evenodd;stroke-width:0.09260417;stroke-miterlimit:4;stroke-dasharray:none;stroke:#000000" />
  <path
     id="Shape2DView_nwe0161-93"
     d="m 57.06,34.3 h -0.5"
     stroke="#191919"
     stroke-width="0.35 px"
     style="fill:none;fill-opacity:1;fill-rule:evenodd;stroke-width:0.09260417;stroke-miterlimit:4;stroke-dasharray:none;stroke:#000000" />
  <path
     id="Shape2DView_nwe0162-1"
     d="m 58.56,34.3 h -0.5"
     stroke="#191919"
     stroke-width="0.35 px"
     style="fill:none;fill-opacity:1;fill-rule:evenodd;stroke-width:0.09260417;stroke-miterlimit:4;stroke-dasharray:none;stroke:#000000" />
  <path
     id="Shape2DView_nwe0004-7"
     d="m 59.1,34.3 c 0,-1.333333 2,-1.333333 2,0 v 0 2.5 0 h -2 v 0 z"
     stroke="#191919"
     stroke-width="0.35 px"
     style="fill:#b3b3b3;fill-opacity:1;fill-rule:evenodd;stroke-width:0.09260417;stroke-miterlimit:4;stroke-dasharray:none;stroke:#000000"
     sodipodi:nodetypes="ccccccccc" />
  <path
     id="Shape2DView_nwe0035-4"
     d="m 60.6,34.3 c 0,-0.666666 -1,-0.666666 -1,0 v 0 c 0,0.666666 1,0.666666 1,0 z"
     stroke="#191919"
     stroke-width="0.35 px"
     style="display:inline;fill:#000000;fill-opacity:1;fill-rule:evenodd;stroke-width:0.0926042;stroke-miterlimit:4;stroke-dasharray:none;stroke:#000000"
     sodipodi:nodetypes="ccccc" />
  <path
     id="Shape2DView_nwe0160-5"
     d="m 59.1,34.3 a 1,1 0 0 0 2,0"
     stroke="#191919"
     stroke-width="0.35 px"
     style="fill:none;fill-opacity:1;fill-rule:evenodd;stroke-width:0.09260417;stroke-miterlimit:4;stroke-dasharray:none;stroke:#000000" />
  <path
     id="Shape2DView_nwe0161-03"
     d="M 59.6,34.3 H 59.1"
     stroke="#191919"
     stroke-width="0.35 px"
     style="fill:none;fill-opacity:1;fill-rule:evenodd;stroke-width:0.09260417;stroke-miterlimit:4;stroke-dasharray:none;stroke:#000000" />
  <path
     id="Shape2DView_nwe0162-61"
     d="M 61.1,34.3 H 60.6"
     stroke="#191919"
     stroke-width="0.35 px"
     style="fill:none;fill-opacity:1;fill-rule:evenodd;stroke-width:0.09260417;stroke-miterlimit:4;stroke-dasharray:none;stroke:#000000" />
  <path
     id="Shape2DView_nwe0004-63"
     d="m 54.02,34.3 c 0,-1.333333 2,-1.333333 2,0 v 0 2.5 0 h -2 v 0 z"
     stroke="#191919"
     stroke-width="0.35 px"
     style="fill:#b3b3b3;fill-opacity:1;fill-rule:evenodd;stroke-width:0.09260417;stroke-miterlimit:4;stroke-dasharray:none;stroke:#000000"
     sodipodi:nodetypes="ccccccccc" />
  <path
     id="Shape2DView_nwe0035-0"
     d="m 55.52,34.3 c 0,-0.666666 -1,-0.666666 -1,0 v 0 c 0,0.666666 1,0.666666 1,0 z"
     stroke="#191919"
     stroke-width="0.35 px"
     style="display:inline;fill:#000000;fill-opacity:1;fill-rule:evenodd;stroke-width:0.0926042;stroke-miterlimit:4;stroke-dasharray:none;stroke:#000000"
     sodipodi:nodetypes="ccccc" />
  <path
     id="Shape2DView_nwe0160-6"
     d="m 54.02,34.3 a 1,1 0 0 0 2,0"
     stroke="#191919"
     stroke-width="0.35 px"
     style="fill:none;fill-opacity:1;fill-rule:evenodd;stroke-width:0.09260417;stroke-miterlimit:4;stroke-dasharray:none;stroke:#000000" />
  <path
     id="Shape2DView_nwe0161-1"
     d="m 54.52,34.3 h -0.5"
     stroke="#191919"
     stroke-width="0.35 px"
     style="fill:none;fill-opacity:1;fill-rule:evenodd;stroke-width:0.09260417;stroke-miterlimit:4;stroke-dasharray:none;stroke:#000000" />
  <path
     id="Shape2DView_nwe0162-5"
     d="m 56.02,34.3 h -0.5"
     stroke="#191919"
     stroke-width="0.35 px"
     style="fill:none;fill-opacity:1;fill-rule:evenodd;stroke-width:0.09260417;stroke-miterlimit:4;stroke-dasharray:none;stroke:#000000" />
  <path
     id="Shape2DView_nwe0004-4"
     d="m 51.48,34.3 c 0,-1.333333 2,-1.333333 2,0 v 0 2.5 0 h -2 v 0 z"
     stroke="#191919"
     stroke-width="0.35 px"
     style="fill:#b3b3b3;fill-opacity:1;fill-rule:evenodd;stroke-width:0.09260417;stroke-miterlimit:4;stroke-dasharray:none;stroke:#000000"
     sodipodi:nodetypes="ccccccccc" />
  <path
     id="Shape2DView_nwe0035-56"
     d="m 52.98,34.3 c 0,-0.666666 -1,-0.666666 -1,0 v 0 c 0,0.666666 1,0.666666 1,0 z"
     stroke="#191919"
     stroke-width="0.35 px"
     style="display:inline;fill:#000000;fill-opacity:1;fill-rule:evenodd;stroke-width:0.0926042;stroke-miterlimit:4;stroke-dasharray:none;stroke:#000000"
     sodipodi:nodetypes="ccccc" />
  <path
     id="Shape2DView_nwe0160-9"
     d="m 51.48,34.3 a 1,1 0 0 0 2,0"
     stroke="#191919"
     stroke-width="0.35 px"
     style="fill:none;fill-opacity:1;fill-rule:evenodd;stroke-width:0.09260417;stroke-miterlimit:4;stroke-dasharray:none;stroke:#000000" />
  <path
     id="Shape2DView_nwe0161-3"
     d="m 51.98,34.3 h -0.5"
     stroke="#191919"
     stroke-width="0.35 px"
     style="fill:none;fill-opacity:1;fill-rule:evenodd;stroke-width:0.09260417;stroke-miterlimit:4;stroke-dasharray:none;stroke:#000000" />
  <path
     id="Shape2DView_nwe0162-74"
     d="m 53.48,34.3 h -0.5"
     stroke="#191919"
     stroke-width="0.35 px"
     style="fill:none;fill-opacity:1;fill-rule:evenodd;stroke-width:0.09260417;stroke-miterlimit:4;stroke-dasharray:none;stroke:#000000" />
  <path
     id="Shape2DView_nwe0004-5"
     d="m 41.32,34.3 c 0,-1.333333 2,-1.333333 2,0 v 0 2.5 0 h -2 v 0 z"
     stroke="#191919"
     stroke-width="0.35 px"
     style="fill:#b3b3b3;fill-opacity:1;fill-rule:evenodd;stroke-width:0.09260417;stroke-miterlimit:4;stroke-dasharray:none;stroke:#000000"
     sodipodi:nodetypes="ccccccccc" />
  <path
     id="Shape2DView_nwe0035-7"
     d="m 42.82,34.3 c 0,-0.666666 -1,-0.666666 -1,0 v 0 c 0,0.666666 1,0.666666 1,0 z"
     stroke="#191919"
     stroke-width="0.35 px"
     style="display:inline;fill:#000000;fill-opacity:1;fill-rule:evenodd;stroke-width:0.0926042;stroke-miterlimit:4;stroke-dasharray:none;stroke:#000000"
     sodipodi:nodetypes="ccccc" />
  <path
     id="Shape2DView_nwe0160-4"
     d="m 41.32,34.3 a 1,1 0 0 0 2,0"
     stroke="#191919"
     stroke-width="0.35 px"
     style="fill:none;fill-opacity:1;fill-rule:evenodd;stroke-width:0.09260417;stroke-miterlimit:4;stroke-dasharray:none;stroke:#000000" />
  <path
     id="Shape2DView_nwe0161-4"
     d="m 41.82,34.3 h -0.5"
     stroke="#191919"
     stroke-width="0.35 px"
     style="fill:none;fill-opacity:1;fill-rule:evenodd;stroke-width:0.09260417;stroke-miterlimit:4;stroke-dasharray:none;stroke:#000000" />
  <path
     id="Shape2DView_nwe0162-3"
     d="m 43.32,34.3 h -0.5"
     stroke="#191919"
     stroke-width="0.35 px"
     style="fill:none;fill-opacity:1;fill-rule:evenodd;stroke-width:0.09260417;stroke-miterlimit:4;stroke-dasharray:none;stroke:#000000" />
  <path
     id="Shape2DView_nwe0004-8"
     d="m 43.86,34.3 c 0,-1.333333 2,-1.333333 2,0 v 0 2.5 0 h -2 v 0 z"
     stroke="#191919"
     stroke-width="0.35 px"
     style="fill:#b3b3b3;fill-opacity:1;fill-rule:evenodd;stroke-width:0.09260417;stroke-miterlimit:4;stroke-dasharray:none;stroke:#000000"
     sodipodi:nodetypes="ccccccccc" />
  <path
     id="Shape2DView_nwe0035-8"
     d="m 45.36,34.3 c 0,-0.666666 -1,-0.666666 -1,0 v 0 c 0,0.666666 1,0.666666 1,0 z"
     stroke="#191919"
     stroke-width="0.35 px"
     style="display:inline;fill:#1a1a1a;fill-opacity:1;fill-rule:evenodd;stroke-width:0.0926042;stroke-miterlimit:4;stroke-dasharray:none;stroke:#000000"
     sodipodi:nodetypes="ccccc" />
  <path
     id="Shape2DView_nwe0160-43"
     d="m 43.86,34.3 a 1,1 0 0 0 2,0"
     stroke="#191919"
     stroke-width="0.35 px"
     style="fill:none;fill-opacity:1;fill-rule:evenodd;stroke-width:0.09260417;stroke-miterlimit:4;stroke-dasharray:none;stroke:#000000" />
  <path
     id="Shape2DView_nwe0161-14"
     d="m 44.36,34.3 h -0.5"
     stroke="#191919"
     stroke-width="0.35 px"
     style="fill:none;fill-opacity:1;fill-rule:evenodd;stroke-width:0.09260417;stroke-miterlimit:4;stroke-dasharray:none;stroke:#000000" />
  <path
     id="Shape2DView_nwe0162-92"
     d="m 45.86,34.3 h -0.5"
     stroke="#191919"
     stroke-width="0.35 px"
     style="fill:none;fill-opacity:1;fill-rule:evenodd;stroke-width:0.09260417;stroke-miterlimit:4;stroke-dasharray:none;stroke:#000000" />
  <path
     id="Shape2DView_nwe0004-89"
     d="m 46.4,34.3 c 0,-1.333333 2,-1.333333 2,0 v 0 2.5 0 h -2 v 0 z"
     stroke="#191919"
     stroke-width="0.35 px"
     style="fill:#b3b3b3;fill-opacity:1;fill-rule:evenodd;stroke-width:0.09260417;stroke-miterlimit:4;stroke-dasharray:none;stroke:#000000"
     sodipodi:nodetypes="ccccccccc" />
  <path
     id="Shape2DView_nwe0035-64"
     d="m 47.9,34.3 c 0,-0.666666 -1,-0.666666 -1,0 v 0 c 0,0.666666 1,0.666666 1,0 z"
     stroke="#191919"
     stroke-width="0.35 px"
     style="display:inline;fill:#000000;fill-opacity:1;fill-rule:evenodd;stroke-width:0.0926042;stroke-miterlimit:4;stroke-dasharray:none;stroke:#000000"
     sodipodi:nodetypes="ccccc" />
  <path
     id="Shape2DView_nwe0160-95"
     d="m 46.4,34.3 a 1,1 0 0 0 2,0"
     stroke="#191919"
     stroke-width="0.35 px"
     style="fill:none;fill-opacity:1;fill-rule:evenodd;stroke-width:0.09260417;stroke-miterlimit:4;stroke-dasharray:none;stroke:#000000" />
  <path
     id="Shape2DView_nwe0161-04"
     d="M 46.9,34.3 H 46.4"
     stroke="#191919"
     stroke-width="0.35 px"
     style="fill:none;fill-opacity:1;fill-rule:evenodd;stroke-width:0.09260417;stroke-miterlimit:4;stroke-dasharray:none;stroke:#000000" />
  <path
     id="Shape2DView_nwe0162-8"
     d="M 48.4,34.3 H 47.9"
     stroke="#191919"
     stroke-width="0.35 px"
     style="fill:none;fill-opacity:1;fill-rule:evenodd;stroke-width:0.09260417;stroke-miterlimit:4;stroke-dasharray:none;stroke:#000000" />
  <path
     id="Shape2DView_nwe0004-1"
     d="m 48.94,34.3 c 0,-1.333333 2,-1.333333 2,0 v 0 2.5 0 h -2 v 0 z"
     stroke="#191919"
     stroke-width="0.35 px"
     style="fill:#b3b3b3;fill-opacity:1;fill-rule:evenodd;stroke-width:0.09260417;stroke-miterlimit:4;stroke-dasharray:none;stroke:#000000"
     sodipodi:nodetypes="ccccccccc" />
  <path
     id="Shape2DView_nwe0035-72"
     d="m 50.44,34.3 c 0,-0.666666 -1,-0.666666 -1,0 v 0 c 0,0.666666 1,0.666666 1,0 z"
     stroke="#191919"
     stroke-width="0.35 px"
     style="display:inline;fill:#000000;fill-opacity:1;fill-rule:evenodd;stroke-width:0.0926042;stroke-miterlimit:4;stroke-dasharray:none;stroke:#000000"
     sodipodi:nodetypes="ccccc" />
  <path
     id="Shape2DView_nwe0160-2"
     d="m 48.94,34.3 a 1,1 0 0 0 2,0"
     stroke="#191919"
     stroke-width="0.35 px"
     style="fill:none;fill-opacity:1;fill-rule:evenodd;stroke-width:0.09260417;stroke-miterlimit:4;stroke-dasharray:none;stroke:#000000" />
  <path
     id="Shape2DView_nwe0161-6"
     d="m 49.44,34.3 h -0.5"
     stroke="#191919"
     stroke-width="0.35 px"
     style="fill:none;fill-opacity:1;fill-rule:evenodd;stroke-width:0.09260417;stroke-miterlimit:4;stroke-dasharray:none;stroke:#000000" />
  <path
     id="Shape2DView_nwe0162-10"
     d="m 50.94,34.3 h -0.5"
     stroke="#191919"
     stroke-width="0.35 px"
     style="fill:none;fill-opacity:1;fill-rule:evenodd;stroke-width:0.09260417;stroke-miterlimit:4;stroke-dasharray:none;stroke:#000000" />
  <path
     id="Shape2DView_nwe0004-15"
     d="m 33.7,34.3 c 0,-1.333333 2,-1.333333 2,0 v 0 2.5 0 h -2 v 0 z"
     stroke="#191919"
     stroke-width="0.35 px"
     style="fill:#b3b3b3;fill-opacity:1;fill-rule:evenodd;stroke-width:0.09260417;stroke-miterlimit:4;stroke-dasharray:none;stroke:#000000"
     sodipodi:nodetypes="ccccccccc" />
  <path
     id="Shape2DView_nwe0035-49"
     d="m 35.2,34.3 c 0,-0.666666 -1,-0.666666 -1,0 v 0 c 0,0.666666 1,0.666666 1,0 z"
     stroke="#191919"
     stroke-width="0.35 px"
     style="display:inline;fill:#1a1a1a;fill-opacity:1;fill-rule:evenodd;stroke-width:0.0926042;stroke-miterlimit:4;stroke-dasharray:none;stroke:#000000"
     sodipodi:nodetypes="ccccc" />
  <path
     id="Shape2DView_nwe0160-0"
     d="m 33.7,34.3 a 1,1 0 0 0 2,0"
     stroke="#191919"
     stroke-width="0.35 px"
     style="fill:none;fill-opacity:1;fill-rule:evenodd;stroke-width:0.09260417;stroke-miterlimit:4;stroke-dasharray:none;stroke:#000000" />
  <path
     id="Shape2DView_nwe0161-91"
     d="M 34.2,34.3 H 33.7"
     stroke="#191919"
     stroke-width="0.35 px"
     style="fill:none;fill-opacity:1;fill-rule:evenodd;stroke-width:0.09260417;stroke-miterlimit:4;stroke-dasharray:none;stroke:#000000" />
  <path
     id="Shape2DView_nwe0162-77"
     d="M 35.7,34.3 H 35.2"
     stroke="#191919"
     stroke-width="0.35 px"
     style="fill:none;fill-opacity:1;fill-rule:evenodd;stroke-width:0.09260417;stroke-miterlimit:4;stroke-dasharray:none;stroke:#000000" />
  <path
     id="Shape2DView_nwe0004-159"
     d="m 36.24,34.3 c 0,-1.333333 2,-1.333333 2,0 v 0 2.5 0 h -2 v 0 z"
     stroke="#191919"
     stroke-width="0.35 px"
     style="fill:#b3b3b3;fill-opacity:1;fill-rule:evenodd;stroke-width:0.09260417;stroke-miterlimit:4;stroke-dasharray:none;stroke:#000000"
     sodipodi:nodetypes="ccccccccc" />
  <path
     id="Shape2DView_nwe0035-67"
     d="m 37.74,34.3 c 0,-0.666666 -1,-0.666666 -1,0 v 0 c 0,0.666666 1,0.666666 1,0 z"
     stroke="#191919"
     stroke-width="0.35 px"
     style="display:inline;fill:#000000;fill-opacity:1;fill-rule:evenodd;stroke-width:0.0926042;stroke-miterlimit:4;stroke-dasharray:none;stroke:#000000"
     sodipodi:nodetypes="ccccc" />
  <path
     id="Shape2DView_nwe0160-36"
     d="m 36.24,34.3 a 1,1 0 0 0 2,0"
     stroke="#191919"
     stroke-width="0.35 px"
     style="fill:none;fill-opacity:1;fill-rule:evenodd;stroke-width:0.09260417;stroke-miterlimit:4;stroke-dasharray:none;stroke:#000000" />
  <path
     id="Shape2DView_nwe0161-56"
     d="m 36.74,34.3 h -0.5"
     stroke="#191919"
     stroke-width="0.35 px"
     style="fill:none;fill-opacity:1;fill-rule:evenodd;stroke-width:0.09260417;stroke-miterlimit:4;stroke-dasharray:none;stroke:#000000" />
  <path
     id="Shape2DView_nwe0162-39"
     d="m 38.24,34.3 h -0.5"
     stroke="#191919"
     stroke-width="0.35 px"
     style="fill:none;fill-opacity:1;fill-rule:evenodd;stroke-width:0.09260417;stroke-miterlimit:4;stroke-dasharray:none;stroke:#000000" />
  <path
     id="Shape2DView_nwe0004-81"
     d="m 38.78,34.3 c 0,-1.333333 2,-1.333333 2,0 v 0 2.5 0 h -2 v 0 z"
     stroke="#191919"
     stroke-width="0.35 px"
     style="fill:#b3b3b3;fill-opacity:1;fill-rule:evenodd;stroke-width:0.09260417;stroke-miterlimit:4;stroke-dasharray:none;stroke:#000000"
     sodipodi:nodetypes="ccccccccc" />
  <path
     id="Shape2DView_nwe0035-3"
     d="m 40.28,34.3 c 0,-0.666666 -1,-0.666666 -1,0 v 0 c 0,0.666666 1,0.666666 1,0 z"
     stroke="#191919"
     stroke-width="0.35 px"
     style="display:inline;fill:#000000;fill-opacity:1;fill-rule:evenodd;stroke-width:0.0926042;stroke-miterlimit:4;stroke-dasharray:none;stroke:#000000"
     sodipodi:nodetypes="ccccc" />
  <path
     id="Shape2DView_nwe0160-90"
     d="m 38.78,34.3 a 1,1 0 0 0 2,0"
     stroke="#191919"
     stroke-width="0.35 px"
     style="fill:none;fill-opacity:1;fill-rule:evenodd;stroke-width:0.09260417;stroke-miterlimit:4;stroke-dasharray:none;stroke:#000000" />
  <path
     id="Shape2DView_nwe0161-88"
     d="m 39.28,34.3 h -0.5"
     stroke="#191919"
     stroke-width="0.35 px"
     style="fill:none;fill-opacity:1;fill-rule:evenodd;stroke-width:0.09260417;stroke-miterlimit:4;stroke-dasharray:none;stroke:#000000" />
  <path
     id="Shape2DView_nwe0162-50"
     d="m 40.78,34.3 h -0.5"
     stroke="#191919"
     stroke-width="0.35 px"
     style="fill:none;fill-opacity:1;fill-rule:evenodd;stroke-width:0.09260417;stroke-miterlimit:4;stroke-dasharray:none;stroke:#000000" />
</svg>
