<?xml version="1.0" encoding="UTF-8" standalone="no"?>
<svg
   xmlns:dc="http://purl.org/dc/elements/1.1/"
   xmlns:cc="http://creativecommons.org/ns#"
   xmlns:rdf="http://www.w3.org/1999/02/22-rdf-syntax-ns#"
   xmlns:svg="http://www.w3.org/2000/svg"
   xmlns="http://www.w3.org/2000/svg"
   xmlns:sodipodi="http://sodipodi.sourceforge.net/DTD/sodipodi-0.dtd"
   xmlns:inkscape="http://www.inkscape.org/namespaces/inkscape"
   width="8.16mm"
   height="8.16mm"
   viewBox="0 0 8.16 8.16"
   version="1.1"
   id="svg89"
   sodipodi:docname="push_switch_w_lock.svg"
   inkscape:version="1.0.2 (e86c870879, 2021-01-15)">
  <metadata
     id="metadata95">
    <rdf:RDF>
      <cc:Work
         rdf:about="">
        <dc:format>image/svg+xml</dc:format>
        <dc:type
           rdf:resource="http://purl.org/dc/dcmitype/StillImage" />
      </cc:Work>
    </rdf:RDF>
  </metadata>
  <defs
     id="defs93" />
  <sodipodi:namedview
     pagecolor="#ffffff"
     bordercolor="#666666"
     borderopacity="1"
     objecttolerance="10"
     gridtolerance="10"
     guidetolerance="10"
     inkscape:pageopacity="0"
     inkscape:pageshadow="2"
     inkscape:window-width="1366"
     inkscape:window-height="713"
     id="namedview91"
     showgrid="false"
     inkscape:zoom="17.703738"
     inkscape:cx="10.3129"
     inkscape:cy="18.009202"
     inkscape:window-x="0"
     inkscape:window-y="0"
     inkscape:window-maximized="1"
     inkscape:current-layer="svg89" />
  <g
     id="Shape2DView"
     transform="matrix(1,0,0,-1,4.08,4.08)"
     style="display:inline;stroke-width:0.0926042;stroke-miterlimit:4;stroke-dasharray:none">
    <path
       id="Shape2DView_nwe0009"
       d="M -4,3.5 C -4,3.7761424 -3.7761424,4 -3.5,4 v 0 h 7 V 4 C 3.7761424,4 4,3.7761424 4,3.5 v 0 -7 0 C 4,-3.7761424 3.7761424,-4 3.5,-4 v 0 h -7 v 0 C -3.7761424,-4 -4,-3.7761424 -4,-3.5 v 0 z"
       stroke="#191919"
       stroke-width="0.35 px"
       style="fill:#cccccc;fill-opacity:1;fill-rule:evenodd;stroke-width:0.0926042;stroke-miterlimit:4;stroke-dasharray:none"
       sodipodi:nodetypes="ccccccccccccccccc" />
    <path
       id="Shape2DView_nwe0000"
       d="m 2,-2 h -4 v 0 4 0 h 4 v 0 z"
       stroke="#191919"
       stroke-width="0.35 px"
       style="fill:#0066ff;fill-opacity:1;fill-rule:evenodd;stroke-width:0.0926042;stroke-miterlimit:4;stroke-dasharray:none"
       sodipodi:nodetypes="ccccccccc" />
    <path
       id="Shape2DView_nwe0012"
       d="M -1.6,-0.8 H -2"
       stroke="#191919"
       stroke-width="0.35 px"
       style="fill:none;fill-opacity:1;fill-rule:evenodd;stroke-width:0.0926042;stroke-miterlimit:4;stroke-dasharray:none" />
    <path
       id="Shape2DView_nwe0013"
       d="m -2,0.8 h 0.4"
       stroke="#191919"
       stroke-width="0.35 px"
       style="fill:none;fill-opacity:1;fill-rule:evenodd;stroke-width:0.0926042;stroke-miterlimit:4;stroke-dasharray:none" />
    <path
       id="Shape2DView_nwe0014"
       d="M -1.6,-1.2 H -2"
       stroke="#191919"
       stroke-width="0.35 px"
       style="fill:none;fill-opacity:1;fill-rule:evenodd;stroke-width:0.0926042;stroke-miterlimit:4;stroke-dasharray:none" />
    <path
       id="Shape2DView_nwe0015"
       d="M -1.6,1.2 H -2"
       stroke="#191919"
       stroke-width="0.35 px"
       style="fill:none;fill-opacity:1;fill-rule:evenodd;stroke-width:0.0926042;stroke-miterlimit:4;stroke-dasharray:none" />
    <path
       id="Shape2DView_nwe0016"
       d="M -0.7,-1.7 A 0.2,0.2 0 0 0 -0.9,-1.9"
       stroke="#191919"
       stroke-width="0.35 px"
       style="fill:none;fill-opacity:1;fill-rule:evenodd;stroke-width:0.0926042;stroke-miterlimit:4;stroke-dasharray:none" />
    <path
       id="Shape2DView_nwe0017"
       d="m -1.6,-1.9 h 0.7"
       stroke="#191919"
       stroke-width="0.35 px"
       style="fill:none;fill-opacity:1;fill-rule:evenodd;stroke-width:0.0926042;stroke-miterlimit:4;stroke-dasharray:none" />
    <path
       id="Shape2DView_nwe0018"
       d="m -1.6,-1.9 a 0.3,0.3 0 0 0 -0.3,0.3"
       stroke="#191919"
       stroke-width="0.35 px"
       style="fill:none;fill-opacity:1;fill-rule:evenodd;stroke-width:0.0926042;stroke-miterlimit:4;stroke-dasharray:none" />
    <path
       id="Shape2DView_nwe0019"
       d="M -1.9,-1.5 V -1.6"
       stroke="#191919"
       stroke-width="0.35 px"
       style="fill:none;fill-opacity:1;fill-rule:evenodd;stroke-width:0.0926042;stroke-miterlimit:4;stroke-dasharray:none" />
    <path
       id="Shape2DView_nwe0020"
       d="m -1.9,-1.5 a 0.3,0.3 0 0 0 0.3,0.3"
       stroke="#191919"
       stroke-width="0.35 px"
       style="fill:none;fill-opacity:1;fill-rule:evenodd;stroke-width:0.0926042;stroke-miterlimit:4;stroke-dasharray:none" />
    <path
       id="Shape2DView_nwe0021"
       d="M -1.6,1.2 A 0.3,0.3 0 0 0 -1.9,1.5"
       stroke="#191919"
       stroke-width="0.35 px"
       style="fill:none;fill-opacity:1;fill-rule:evenodd;stroke-width:0.0926042;stroke-miterlimit:4;stroke-dasharray:none" />
    <path
       id="Shape2DView_nwe0022"
       d="M -1.9,1.6 V 1.5"
       stroke="#191919"
       stroke-width="0.35 px"
       style="fill:none;fill-opacity:1;fill-rule:evenodd;stroke-width:0.0926042;stroke-miterlimit:4;stroke-dasharray:none" />
    <path
       id="Shape2DView_nwe0023"
       d="m -1.9,1.6 a 0.3,0.3 0 0 0 0.3,0.3"
       stroke="#191919"
       stroke-width="0.35 px"
       style="fill:none;fill-opacity:1;fill-rule:evenodd;stroke-width:0.0926042;stroke-miterlimit:4;stroke-dasharray:none" />
    <path
       id="Shape2DView_nwe0024"
       d="m -1.6,1.9 h 0.7"
       stroke="#191919"
       stroke-width="0.35 px"
       style="fill:none;fill-opacity:1;fill-rule:evenodd;stroke-width:0.0926042;stroke-miterlimit:4;stroke-dasharray:none" />
    <path
       id="Shape2DView_nwe0025"
       d="M -0.9,1.9 A 0.2,0.2 0 0 0 -0.7,1.7"
       stroke="#191919"
       stroke-width="0.35 px"
       style="fill:none;fill-opacity:1;fill-rule:evenodd;stroke-width:0.0926042;stroke-miterlimit:4;stroke-dasharray:none" />
    <path
       id="Shape2DView_nwe0026"
       d="M -0.7,1.7 V 1.5"
       stroke="#191919"
       stroke-width="0.35 px"
       style="fill:none;fill-opacity:1;fill-rule:evenodd;stroke-width:0.0926042;stroke-miterlimit:4;stroke-dasharray:none" />
    <path
       id="Shape2DView_nwe0027"
       d="M 1.65,1.5 A 0.25,0.25 0 0 0 1.9,1.25"
       stroke="#191919"
       stroke-width="0.35 px"
       style="fill:none;fill-opacity:1;fill-rule:evenodd;stroke-width:0.0926042;stroke-miterlimit:4;stroke-dasharray:none" />
    <path
       id="Shape2DView_nwe0028"
       d="M 1.9,1.25 A 0.25,0.25 0 0 0 1.65,1"
       stroke="#191919"
       stroke-width="0.35 px"
       style="fill:none;fill-opacity:1;fill-rule:evenodd;stroke-width:0.0926042;stroke-miterlimit:4;stroke-dasharray:none" />
    <path
       id="Shape2DView_nwe0029"
       d="M 1.6,1 H 1.65"
       stroke="#191919"
       stroke-width="0.35 px"
       style="fill:none;fill-opacity:1;fill-rule:evenodd;stroke-width:0.0926042;stroke-miterlimit:4;stroke-dasharray:none" />
    <path
       id="Shape2DView_nwe0030"
       d="M 1.6,-1 V 1"
       stroke="#191919"
       stroke-width="0.35 px"
       style="fill:none;fill-opacity:1;fill-rule:evenodd;stroke-width:0.0926042;stroke-miterlimit:4;stroke-dasharray:none" />
    <path
       id="Shape2DView_nwe0031"
       d="M 1.65,-1 H 1.6"
       stroke="#191919"
       stroke-width="0.35 px"
       style="fill:none;fill-opacity:1;fill-rule:evenodd;stroke-width:0.0926042;stroke-miterlimit:4;stroke-dasharray:none" />
    <path
       id="Shape2DView_nwe0032"
       d="M 1.65,-1 A 0.25,0.25 0 0 0 1.9,-1.25"
       stroke="#191919"
       stroke-width="0.35 px"
       style="fill:none;fill-opacity:1;fill-rule:evenodd;stroke-width:0.0926042;stroke-miterlimit:4;stroke-dasharray:none" />
    <path
       id="Shape2DView_nwe0033"
       d="M 1.9,-1.25 A 0.25,0.25 0 0 0 1.65,-1.5"
       stroke="#191919"
       stroke-width="0.35 px"
       style="fill:none;fill-opacity:1;fill-rule:evenodd;stroke-width:0.0926042;stroke-miterlimit:4;stroke-dasharray:none" />
    <path
       id="Shape2DView_nwe0034"
       d="m -0.7,-1.7 v 0.2"
       stroke="#191919"
       stroke-width="0.35 px"
       style="fill:none;fill-opacity:1;fill-rule:evenodd;stroke-width:0.0926042;stroke-miterlimit:4;stroke-dasharray:none" />
    <path
       id="Shape2DView_nwe0035"
       d="M -1.6,-1.2 V 1.2"
       stroke="#191919"
       stroke-width="0.35 px"
       style="fill:none;fill-opacity:1;fill-rule:evenodd;stroke-width:0.0926042;stroke-miterlimit:4;stroke-dasharray:none" />
    <path
       id="Shape2DView_nwe0036"
       d="M 1.65,1.5 H 1"
       stroke="#191919"
       stroke-width="0.35 px"
       style="fill:none;fill-opacity:1;fill-rule:evenodd;stroke-width:0.0926042;stroke-miterlimit:4;stroke-dasharray:none" />
    <path
       id="Shape2DView_nwe0037"
       d="M 1.65,-1.5 H 1"
       stroke="#191919"
       stroke-width="0.35 px"
       style="fill:none;fill-opacity:1;fill-rule:evenodd;stroke-width:0.0926042;stroke-miterlimit:4;stroke-dasharray:none" />
    <path
       id="Shape2DView_nwe0038"
       d="m -1,0.5 v -1"
       stroke="#191919"
       stroke-width="0.35 px"
       style="fill:none;fill-opacity:1;fill-rule:evenodd;stroke-width:0.0926042;stroke-miterlimit:4;stroke-dasharray:none" />
    <path
       id="Shape2DView_nwe0039"
       d="m 1,0.5 v -1"
       stroke="#191919"
       stroke-width="0.35 px"
       style="fill:none;fill-opacity:1;fill-rule:evenodd;stroke-width:0.0926042;stroke-miterlimit:4;stroke-dasharray:none" />
    <path
       id="Shape2DView_nwe0040"
       d="m 1,1.5 v -9.432e-4 -0.00282 -0.00466 -0.00644 -0.00814 -0.00973 V 1.456066 1.4435235 1.4298048 1.4150826 1.3995419 1.3833781 1.3667947 1.35"
       stroke="#191919"
       stroke-width="0.35 px"
       style="fill:none;fill-opacity:1;fill-rule:evenodd;stroke-width:0.0926042;stroke-miterlimit:4;stroke-dasharray:none" />
    <path
       id="Shape2DView_nwe0041"
       d="M -1,1.5 H 1"
       stroke="#191919"
       stroke-width="0.35 px"
       style="fill:none;fill-opacity:1;fill-rule:evenodd;stroke-width:0.0926042;stroke-miterlimit:4;stroke-dasharray:none" />
    <path
       id="Shape2DView_nwe0042"
       d="m -1,1.5 v -9.432e-4 -0.00282 -0.00466 -0.00644 -0.00814 -0.00973 V 1.456066 1.4435235 1.4298048 1.4150826 1.3995419 1.3833781 1.3667947 1.35"
       stroke="#191919"
       stroke-width="0.35 px"
       style="fill:none;fill-opacity:1;fill-rule:evenodd;stroke-width:0.0926042;stroke-miterlimit:4;stroke-dasharray:none" />
    <path
       id="Shape2DView_nwe0043"
       d="m 1,-1.35 v -0.016795 -0.016583 -0.016164 -0.015541 -0.014722 -0.013719 -0.012543 -0.011209 -0.00973 -0.00814 -0.00644 -0.00466 -0.00282 V -1.5"
       stroke="#191919"
       stroke-width="0.35 px"
       style="fill:none;fill-opacity:1;fill-rule:evenodd;stroke-width:0.0926042;stroke-miterlimit:4;stroke-dasharray:none" />
    <path
       id="Shape2DView_nwe0044"
       d="m -1,-1.35 v -0.016795 -0.016583 -0.016164 -0.015541 -0.014722 -0.013719 -0.012543 -0.011209 -0.00973 -0.00814 -0.00644 -0.00466 -0.00282 V -1.5"
       stroke="#191919"
       stroke-width="0.35 px"
       style="fill:none;fill-opacity:1;fill-rule:evenodd;stroke-width:0.0926042;stroke-miterlimit:4;stroke-dasharray:none" />
    <path
       id="Shape2DView_nwe0045"
       d="M -1,-1.5 H 1"
       stroke="#191919"
       stroke-width="0.35 px"
       style="fill:none;fill-opacity:1;fill-rule:evenodd;stroke-width:0.0926042;stroke-miterlimit:4;stroke-dasharray:none" />
    <path
       id="Shape2DView_nwe0046"
       d="M -1,-0.5 H 1"
       stroke="#191919"
       stroke-width="0.35 px"
       style="fill:none;fill-opacity:1;fill-rule:evenodd;stroke-width:0.0926042;stroke-miterlimit:4;stroke-dasharray:none" />
    <path
       id="Shape2DView_nwe0047"
       d="m -1,-0.65 v -0.7"
       stroke="#191919"
       stroke-width="0.35 px"
       style="fill:none;fill-opacity:1;fill-rule:evenodd;stroke-width:0.0926042;stroke-miterlimit:4;stroke-dasharray:none" />
    <path
       id="Shape2DView_nwe0048"
       d="m 1,-0.65 v -0.7"
       stroke="#191919"
       stroke-width="0.35 px"
       style="fill:none;fill-opacity:1;fill-rule:evenodd;stroke-width:0.0926042;stroke-miterlimit:4;stroke-dasharray:none" />
    <path
       id="Shape2DView_nwe0049"
       d="m 1,-0.5 v -9.4317e-4 -0.002818 -0.004657 -0.006437 -0.008137 -0.009734 -0.0112087 -0.0125425 -0.0137187 -0.0147223 -0.0155407 -0.0161637 -0.0165835 V -0.65"
       stroke="#191919"
       stroke-width="0.35 px"
       style="fill:none;fill-opacity:1;fill-rule:evenodd;stroke-width:0.0926042;stroke-miterlimit:4;stroke-dasharray:none" />
    <path
       id="Shape2DView_nwe0050"
       d="m -1,-0.5 v -9.4317e-4 -0.002818 -0.004657 -0.006437 -0.008137 -0.009734 -0.0112087 -0.0125425 -0.0137187 -0.0147223 -0.0155407 -0.0161637 -0.0165835 V -0.65"
       stroke="#191919"
       stroke-width="0.35 px"
       style="fill:none;fill-opacity:1;fill-rule:evenodd;stroke-width:0.0926042;stroke-miterlimit:4;stroke-dasharray:none" />
    <path
       id="Shape2DView_nwe0051"
       d="M -1,0.5 H 1"
       stroke="#191919"
       stroke-width="0.35 px"
       style="fill:none;fill-opacity:1;fill-rule:evenodd;stroke-width:0.0926042;stroke-miterlimit:4;stroke-dasharray:none" />
    <path
       id="Shape2DView_nwe0052"
       d="M 1,1.35 V 0.65"
       stroke="#191919"
       stroke-width="0.35 px"
       style="fill:none;fill-opacity:1;fill-rule:evenodd;stroke-width:0.0926042;stroke-miterlimit:4;stroke-dasharray:none" />
    <path
       id="Shape2DView_nwe0053"
       d="M -1,1.35 V 0.65"
       stroke="#191919"
       stroke-width="0.35 px"
       style="fill:none;fill-opacity:1;fill-rule:evenodd;stroke-width:0.0926042;stroke-miterlimit:4;stroke-dasharray:none" />
    <path
       id="Shape2DView_nwe0054"
       d="m 1,0.5 v 9.4317e-4 0.002818 0.004657 0.006437 0.008137 0.009734 0.0112087 0.0125425 0.0137187 0.0147223 0.0155407 0.0161637 0.0165835 V 0.65"
       stroke="#191919"
       stroke-width="0.35 px"
       style="fill:none;fill-opacity:1;fill-rule:evenodd;stroke-width:0.0926042;stroke-miterlimit:4;stroke-dasharray:none" />
    <path
       id="Shape2DView_nwe0055"
       d="m -1,0.5 v 9.4317e-4 0.002818 0.004657 0.006437 0.008137 0.009734 0.0112087 0.0125425 0.0137187 0.0147223 0.0155407 0.0161637 0.0165835 V 0.65"
       stroke="#191919"
       stroke-width="0.35 px"
       style="fill:none;fill-opacity:1;fill-rule:evenodd;stroke-width:0.0926042;stroke-miterlimit:4;stroke-dasharray:none" />
    <path
       id="Shape2DView_nwe0056"
       d="m -2,0.25 h 0.016366 0.016692 0.016996 0.017275 0.017531 0.017762 0.017968 0.018149 0.018305 0.018435 0.018539 0.018617 0.018669 H -1.75"
       stroke="#191919"
       stroke-width="0.35 px"
       style="fill:none;fill-opacity:1;fill-rule:evenodd;stroke-width:0.0926042;stroke-miterlimit:4;stroke-dasharray:none" />
    <path
       id="Shape2DView_nwe0057"
       d="m -2,-0.25 h 0.016366 0.016692 0.016996 0.017275 0.017531 0.017762 0.017968 0.018149 0.018305 0.018435 0.018539 0.018617 0.018669 H -1.75"
       stroke="#191919"
       stroke-width="0.35 px"
       style="fill:none;fill-opacity:1;fill-rule:evenodd;stroke-width:0.0926042;stroke-miterlimit:4;stroke-dasharray:none" />
    <path
       id="Shape2DView_nwe0058"
       d="M -1.75,-0.25 H -1.6"
       stroke="#191919"
       stroke-width="0.35 px"
       style="fill:none;fill-opacity:1;fill-rule:evenodd;stroke-width:0.0926042;stroke-miterlimit:4;stroke-dasharray:none" />
    <path
       id="Shape2DView_nwe0059"
       d="M -1.75,0.25 H -1.6"
       stroke="#191919"
       stroke-width="0.35 px"
       style="fill:none;fill-opacity:1;fill-rule:evenodd;stroke-width:0.0926042;stroke-miterlimit:4;stroke-dasharray:none" />
    <path
       id="Shape2DView_nwe0060"
       d="m 3.5,3.5 v -7"
       stroke="#191919"
       stroke-width="0.35 px"
       style="fill:none;fill-opacity:1;fill-rule:evenodd;stroke-width:0.0926042;stroke-miterlimit:4;stroke-dasharray:none" />
    <path
       id="Shape2DView_nwe0061"
       d="m -3.5,3.5 h 7"
       stroke="#191919"
       stroke-width="0.35 px"
       style="fill:none;fill-opacity:1;fill-rule:evenodd;stroke-width:0.0926042;stroke-miterlimit:4;stroke-dasharray:none" />
    <path
       id="Shape2DView_nwe0062"
       d="m -3.5,-3.5 v 7"
       stroke="#191919"
       stroke-width="0.35 px"
       style="fill:none;fill-opacity:1;fill-rule:evenodd;stroke-width:0.0926042;stroke-miterlimit:4;stroke-dasharray:none" />
    <path
       id="Shape2DView_nwe0063"
       d="m 3.5,-3.5 h -7"
       stroke="#191919"
       stroke-width="0.35 px"
       style="fill:none;fill-opacity:1;fill-rule:evenodd;stroke-width:0.0926042;stroke-miterlimit:4;stroke-dasharray:none" />
    <path
       id="Shape2DView_nwe0068"
       d="M 4,-3.5 H 3.9968561 3.987464 3.9719417 3.9504844 3.9233621 3.8909157 3.8535534 3.8117449 3.766016 3.7169419 3.6651395 3.6112605 3.5559822 3.5"
       stroke="#191919"
       stroke-width="0.35 px"
       style="fill:none;fill-opacity:1;fill-rule:evenodd;stroke-width:0.0926042;stroke-miterlimit:4;stroke-dasharray:none" />
    <path
       id="Shape2DView_nwe0069"
       d="M 4,3.5 H 3.9968561 3.987464 3.9719417 3.9504844 3.9233621 3.8909157 3.8535534 3.8117449 3.766016 3.7169419 3.6651395 3.6112605 3.5559822 3.5"
       stroke="#191919"
       stroke-width="0.35 px"
       style="fill:none;fill-opacity:1;fill-rule:evenodd;stroke-width:0.0926042;stroke-miterlimit:4;stroke-dasharray:none" />
    <path
       id="Shape2DView_nwe0070"
       d="M 3.5,4 V 3.9968561 3.987464 3.9719417 3.9504844 3.9233621 3.8909157 3.8535534 3.8117449 3.766016 3.7169419 3.6651395 3.6112605 3.5559822 3.5"
       stroke="#191919"
       stroke-width="0.35 px"
       style="fill:none;fill-opacity:1;fill-rule:evenodd;stroke-width:0.0926042;stroke-miterlimit:4;stroke-dasharray:none" />
    <path
       id="Shape2DView_nwe0071"
       d="M -3.5,4 V 3.9968561 3.987464 3.9719417 3.9504844 3.9233621 3.8909157 3.8535534 3.8117449 3.766016 3.7169419 3.6651395 3.6112605 3.5559822 3.5"
       stroke="#191919"
       stroke-width="0.35 px"
       style="fill:none;fill-opacity:1;fill-rule:evenodd;stroke-width:0.0926042;stroke-miterlimit:4;stroke-dasharray:none" />
    <path
       id="Shape2DView_nwe0072"
       d="m -4,3.5 h 0.00314 0.00939 0.015522 0.021457 0.027122 0.032446 0.037362 0.041809 0.045729 0.049074 0.051802 0.053879 H -3.55599 -3.5"
       stroke="#191919"
       stroke-width="0.35 px"
       style="fill:none;fill-opacity:1;fill-rule:evenodd;stroke-width:0.0926042;stroke-miterlimit:4;stroke-dasharray:none" />
    <path
       id="Shape2DView_nwe0073"
       d="m -4,-3.5 h 0.00314 0.00939 0.015522 0.021457 0.027122 0.032446 0.037362 0.041809 0.045729 0.049074 0.051802 0.053879 H -3.55599 -3.5"
       stroke="#191919"
       stroke-width="0.35 px"
       style="fill:none;fill-opacity:1;fill-rule:evenodd;stroke-width:0.0926042;stroke-miterlimit:4;stroke-dasharray:none" />
    <path
       id="Shape2DView_nwe0074"
       d="m -3.5,-4 v 0.00314 0.00939 0.015522 0.021457 0.027122 0.032446 0.037362 0.041809 0.045729 0.049074 0.051802 0.053879 V -3.55599 -3.5"
       stroke="#191919"
       stroke-width="0.35 px"
       style="fill:none;fill-opacity:1;fill-rule:evenodd;stroke-width:0.0926042;stroke-miterlimit:4;stroke-dasharray:none" />
    <path
       id="Shape2DView_nwe0075"
       d="m 3.5,-4 v 0.00314 0.00939 0.015522 0.021457 0.027122 0.032446 0.037362 0.041809 0.045729 0.049074 0.051802 0.053879 V -3.55599 -3.5"
       stroke="#191919"
       stroke-width="0.35 px"
       style="fill:none;fill-opacity:1;fill-rule:evenodd;stroke-width:0.0926042;stroke-miterlimit:4;stroke-dasharray:none" />
    <path
       id="Shape2DView_nwe0076"
       d="M -1,1.35 H 1"
       stroke="#191919"
       stroke-width="0.35 px"
       style="fill:none;fill-opacity:1;fill-rule:evenodd;stroke-width:0.0926042;stroke-miterlimit:4;stroke-dasharray:none" />
    <path
       id="Shape2DView_nwe0077"
       d="M -1,-1.35 H 1"
       stroke="#191919"
       stroke-width="0.35 px"
       style="fill:none;fill-opacity:1;fill-rule:evenodd;stroke-width:0.0926042;stroke-miterlimit:4;stroke-dasharray:none" />
    <path
       id="Shape2DView_nwe0078"
       d="M -1,-0.65 H 1"
       stroke="#191919"
       stroke-width="0.35 px"
       style="fill:none;fill-opacity:1;fill-rule:evenodd;stroke-width:0.0926042;stroke-miterlimit:4;stroke-dasharray:none" />
    <path
       id="Shape2DView_nwe0079"
       d="M -1,0.65 H 1"
       stroke="#191919"
       stroke-width="0.35 px"
       style="fill:none;fill-opacity:1;fill-rule:evenodd;stroke-width:0.0926042;stroke-miterlimit:4;stroke-dasharray:none" />
    <path
       id="Shape2DView_nwe0080"
       d="m -1.75,-0.25 v 0.006268 0.0184898 0.0297843 0.0395854 0.0474015 0.0528407 V 0 v 0.05563023 0.0528407 0.0474015 0.0395854 0.0297843 0.0184898 V 0.25"
       stroke="#191919"
       stroke-width="0.35 px"
       style="fill:none;fill-opacity:1;fill-rule:evenodd;stroke-width:0.0926042;stroke-miterlimit:4;stroke-dasharray:none" />
    <path
       id="Shape2DView_nwe0081"
       d="m 1.6,1 7.962e-4,-3.2e-7"
       stroke="#191919"
       stroke-width="0.35 px"
       style="fill:none;fill-opacity:1;fill-rule:evenodd;stroke-width:0.0926042;stroke-miterlimit:4;stroke-dasharray:none" />
    <path
       id="Shape2DView_nwe0082"
       d="M 2,-0.91658031 1.7320416,-0.99124741"
       stroke="#191919"
       stroke-width="0.35 px"
       style="fill:none;fill-opacity:1;fill-rule:evenodd;stroke-width:0.0926042;stroke-miterlimit:4;stroke-dasharray:none" />
    <path
       id="Shape2DView_nwe0083"
       d="M 1.6089671,-0.99995984 1.6,-1"
       stroke="#191919"
       stroke-width="0.35 px"
       style="fill:none;fill-opacity:1;fill-rule:evenodd;stroke-width:0.0926042;stroke-miterlimit:4;stroke-dasharray:none" />
    <title
       id="title82">b'Shape2DView'</title>
  </g>
  <g
     id="Rectangle"
     transform="matrix(1,0,0,-1,4.08,4.08)"
     style="display:inline;stroke-width:0.09260417;stroke-miterlimit:4;stroke-dasharray:none">
    <rect
       fill="#ff0000"
       id="origin"
       width="1"
       height="1"
       x="0"
       y="0"
       style="stroke-width:0.09260417;stroke-miterlimit:4;stroke-dasharray:none" />
    <title
       id="title86">b'Rectangle'</title>
  </g>
</svg>
