<?xml version="1.0" encoding="UTF-8" standalone="no"?>
<svg
   xmlns:dc="http://purl.org/dc/elements/1.1/"
   xmlns:cc="http://creativecommons.org/ns#"
   xmlns:rdf="http://www.w3.org/1999/02/22-rdf-syntax-ns#"
   xmlns:svg="http://www.w3.org/2000/svg"
   xmlns="http://www.w3.org/2000/svg"
   xmlns:sodipodi="http://sodipodi.sourceforge.net/DTD/sodipodi-0.dtd"
   xmlns:inkscape="http://www.inkscape.org/namespaces/inkscape"
   width="18.869999999999997mm"
   height="32.77mm"
   viewBox="0 0 18.869999999999997 32.77"
   version="1.1"
   id="svg49"
   sodipodi:docname="servo.svg"
   inkscape:version="1.0.2 (e86c870879, 2021-01-15)">
  <metadata
     id="metadata55">
    <rdf:RDF>
      <cc:Work
         rdf:about="">
        <dc:format>image/svg+xml</dc:format>
        <dc:type
           rdf:resource="http://purl.org/dc/dcmitype/StillImage" />
      </cc:Work>
    </rdf:RDF>
  </metadata>
  <defs
     id="defs53" />
  <sodipodi:namedview
     pagecolor="#ffffff"
     bordercolor="#666666"
     borderopacity="1"
     objecttolerance="10"
     gridtolerance="10"
     guidetolerance="10"
     inkscape:pageopacity="0"
     inkscape:pageshadow="2"
     inkscape:window-width="1366"
     inkscape:window-height="713"
     id="namedview51"
     showgrid="false"
     inkscape:zoom="4"
     inkscape:cx="40.859345"
     inkscape:cy="60.412777"
     inkscape:window-x="0"
     inkscape:window-y="0"
     inkscape:window-maximized="1"
     inkscape:current-layer="svg49" />
  <path
     id="Shape2DView_nwe0016"
     d="M 12.334253,32.328339 H 7.0690146 v 0 -0.984157 0 c 0.6948091,-0.594296 0.2744261,-1.731978 -0.6397019,-1.731978 -0.914128,0 -1.334511,1.137682 -0.6397019,1.731978 v 0 0.984157 0 H 0.52437223 v 0 c -0.10870682,0 -0.19683116,-0.08812 -0.19683135,-0.196831 v 0 -4.723953 0 -16.041755 0 -6.003356 0 -4.72395239 0 c 0,-0.10870695 0.0881244,-0.19683135 0.19683135,-0.19683135 v 0 H 5.7896108 v 0 0.98415674 0 c -0.6948091,0.5942961 -0.2744261,1.7319782 0.6397019,1.7319782 0.914128,0 1.334511,-1.1376821 0.6397019,-1.7319782 v 0 -0.98415674 0 h 5.2652384 v 0 c 0.108707,-3.6e-7 0.196832,0.0881241 0.196832,0.19683135 v 0 4.72395239 0 22.045111 0 4.723953 0 c 0,0.108707 -0.08812,0.196831 -0.196832,0.196831 z"
     stroke="#191919"
     stroke-width="0.35 px"
     style="fill:#000091;fill-opacity:1;fill-rule:evenodd;stroke-width:0.0926041;stroke-miterlimit:4;stroke-dasharray:none"
     sodipodi:nodetypes="cccccsccccccccccccccccccccccscccccccccccccccc" />
  <path
     id="Shape2DView_nwe0008"
     d="M 12.432669,27.505971 H 0.42595655 v 0 c -0.0543552,0 -0.0984181,-0.04406 -0.0984157,-0.09842 v 10e-7 l 3e-8,-22.045108 v 0 c -1.8e-7,-0.054354 0.0440621,-0.098416 0.0984157,-0.098416 l -3e-8,3e-7 H 6.4293127 v 0 h 6.0033563 v 0 c 0.05435,-2.4e-6 0.09842,0.044061 0.09842,0.098416 l -4e-6,-3e-7 v 6.003356 0 16.041755 0 c 2e-6,0.05436 -0.04406,0.09842 -0.09842,0.09842 z"
     stroke="#191919"
     stroke-width="0.35 px"
     style="fill:#0000c7;fill-opacity:1;fill-rule:evenodd;stroke-width:0.0926041;stroke-miterlimit:4;stroke-dasharray:none"
     sodipodi:nodetypes="ccccccccccccccccccccc" />
  <path
     id="Shape2DView_nwe0031"
     d="m 9.1190496,16.842757 9.2e-6,-1.5e-5 m 0,0 C 14.9222,13.992843 12.889228,5.2654311 6.4293592,5.2654179 -0.03050968,5.2654047 -2.0635174,13.992808 3.7396123,16.842731 m 0,0 -2.05e-5,3.6e-5"
     stroke="#191919"
     stroke-width="0.35 px"
     style="fill:#0000ff;fill-opacity:1;fill-rule:evenodd;stroke-width:0.0926041;stroke-miterlimit:4;stroke-dasharray:none"
     sodipodi:nodetypes="cccsccc" />
  <circle
     cx="6.4293127"
     cy="-11.3658"
     r="2.3816595"
     stroke="#191919"
     stroke-width="0.35 px"
     style="fill:#ececec;stroke-width:0.0926041;stroke-miterlimit:4;stroke-dasharray:none"
     id="circle35"
     transform="scale(1,-1)" />
  <circle
     cx="6.4293127"
     cy="-11.3658"
     r="1.0825725"
     stroke="#191919"
     stroke-width="0.35 px"
     style="fill:#999999;stroke-width:0.0926041;stroke-miterlimit:4;stroke-dasharray:none"
     id="circle37"
     transform="scale(1,-1)" />
  <path
     id="Shape2DView_nwe0036"
     d="m 3.9543888,16.727057 a 5.9049405,5.9049405 0 1 1 4.9498518,3.5e-5"
     stroke="#191919"
     stroke-width="0.35 px"
     style="fill:none;fill-opacity:1;fill-rule:evenodd;stroke-width:0.0926041;stroke-miterlimit:4;stroke-dasharray:none" />
  <rect
     fill="#ff0000"
     id="origin"
     width="0.98415673"
     height="0.98415673"
     x="17.550283"
     y="-30.802896"
     style="stroke-width:0.0926041;stroke-miterlimit:4;stroke-dasharray:none"
     transform="scale(1,-1)" />
  <rect
     style="fill:#0000ff;fill-opacity:1;stroke:#000000;stroke-width:0.0926042;stroke-miterlimit:4;stroke-dasharray:none"
     id="rect941"
     width="10.824757"
     height="5.6248879"
     x="1.031183"
     y="20.874479" />
  <path
     style="fill:#0000ff;fill-opacity:1;stroke:#000000;stroke-width:0.106532;stroke-miterlimit:4;stroke-dasharray:none"
     id="path943"
     sodipodi:type="arc"
     sodipodi:cx="6.4646926"
     sodipodi:cy="17.194981"
     sodipodi:rx="2.7229412"
     sodipodi:ry="2.7229412"
     sodipodi:start="6.0580378"
     sodipodi:end="3.3492868"
     sodipodi:arc-type="arc"
     d="m 9.1189099,16.587084 a 2.7229412,2.7229412 0 0 1 -1.1067084,2.848349 2.7229412,2.7229412 0 0 1 -3.0556807,0.02667 2.7229412,2.7229412 0 0 1 -1.1562506,-2.8286"
     sodipodi:open="true" />
</svg>
