<?xml version="1.0" encoding="UTF-8" standalone="no"?>
<svg
   xmlns:dc="http://purl.org/dc/elements/1.1/"
   xmlns:cc="http://creativecommons.org/ns#"
   xmlns:rdf="http://www.w3.org/1999/02/22-rdf-syntax-ns#"
   xmlns:svg="http://www.w3.org/2000/svg"
   xmlns="http://www.w3.org/2000/svg"
   xmlns:sodipodi="http://sodipodi.sourceforge.net/DTD/sodipodi-0.dtd"
   xmlns:inkscape="http://www.inkscape.org/namespaces/inkscape"
   width="11.118mm"
   height="4.868mm"
   version="1.1"
   viewBox="0 0 11.118 4.868"
   id="svg47"
   sodipodi:docname="Crystal_HC18-U_Vertical.svg"
   inkscape:version="1.0.2 (e86c870879, 2021-01-15)">
  <metadata
     id="metadata53">
    <rdf:RDF>
      <cc:Work
         rdf:about="">
        <dc:format>image/svg+xml</dc:format>
        <dc:type
           rdf:resource="http://purl.org/dc/dcmitype/StillImage" />
      </cc:Work>
    </rdf:RDF>
  </metadata>
  <defs
     id="defs51" />
  <sodipodi:namedview
     pagecolor="#ffffff"
     bordercolor="#666666"
     borderopacity="1"
     objecttolerance="10"
     gridtolerance="10"
     guidetolerance="10"
     inkscape:pageopacity="0"
     inkscape:pageshadow="2"
     inkscape:window-width="1366"
     inkscape:window-height="713"
     id="namedview49"
     showgrid="false"
     inkscape:zoom="13.885984"
     inkscape:cx="10.82928"
     inkscape:cy="11.141752"
     inkscape:window-x="0"
     inkscape:window-y="0"
     inkscape:window-maximized="1"
     inkscape:current-layer="svg47" />
  <g
     id="Shape2DView"
     transform="matrix(1,0,0,-1,3.109,2.434)"
     stroke-width="0.092604"
     style="stroke-width:0.09260417;stroke-miterlimit:4;stroke-dasharray:none">
    <path
       d="M -0.675,2.325 C -1.9591,2.325 -3,1.2841 -3,0 c 0,-1.2841 1.0409,-2.325 2.325,-2.325 h 6.25 C 6.8591,-2.325 7.9,-1.2841 7.9,0 7.9,1.2841 6.8591,2.325 5.575,2.325 h -6.25"
       fill="#cccccc"
       fill-rule="evenodd"
       stroke="#000000"
       stroke-width="0.092604"
       id="path2"
       style="stroke-width:0.09260417;stroke-miterlimit:4;stroke-dasharray:none" />
    <path
       d="m 5.45,-2 h -6"
       fill="none"
       stroke="#000000"
       stroke-width="0.092604"
       id="path4"
       style="stroke-width:0.09260417;stroke-miterlimit:4;stroke-dasharray:none" />
    <path
       d="m -0.55,2 h 6"
       fill="none"
       stroke="#000000"
       stroke-width="0.092604"
       id="path6"
       style="stroke-width:0.09260417;stroke-miterlimit:4;stroke-dasharray:none" />
    <path
       d="m 7.45,0 a 2,2 0 0 0 -2,-2"
       fill="none"
       stroke="#000000"
       stroke-width="0.092604"
       id="path8"
       style="stroke-width:0.09260417;stroke-miterlimit:4;stroke-dasharray:none" />
    <path
       d="m 5.45,2 a 2,2 0 0 0 2,-2"
       fill="none"
       stroke="#000000"
       stroke-width="0.092604"
       id="path10"
       style="stroke-width:0.09260417;stroke-miterlimit:4;stroke-dasharray:none" />
    <path
       d="m -2.55,0 a 2,2 0 0 0 2,2"
       fill="none"
       stroke="#000000"
       stroke-width="0.092604"
       id="path12"
       style="stroke-width:0.09260417;stroke-miterlimit:4;stroke-dasharray:none" />
    <path
       d="m -0.55,-2 a 2,2 0 0 0 -2,2"
       fill="none"
       stroke="#000000"
       stroke-width="0.092604"
       id="path14"
       style="stroke-width:0.09260417;stroke-miterlimit:4;stroke-dasharray:none" />
    <path
       d="m 5.45,-2 v 0.00126 0.00376 0.00621 0.00858 0.010849 0.012979 0.014945 0.016723 0.018292 0.01963 0.020721 0.021552 0.022111 0.022393"
       fill="none"
       stroke="#000000"
       stroke-width="0.092604"
       id="path16"
       style="stroke-width:0.09260417;stroke-miterlimit:4;stroke-dasharray:none" />
    <path
       d="m 5.45,-1.8 h -6"
       fill="none"
       stroke="#000000"
       stroke-width="0.092604"
       id="path18"
       style="stroke-width:0.09260417;stroke-miterlimit:4;stroke-dasharray:none" />
    <path
       d="m -0.55,-2 v 0.00126 0.00376 0.00621 0.00858 0.010849 0.012979 0.014945 0.016723 0.018292 0.01963 0.020721 0.021552 0.022111 0.022393"
       fill="none"
       stroke="#000000"
       stroke-width="0.092604"
       id="path20"
       style="stroke-width:0.09260417;stroke-miterlimit:4;stroke-dasharray:none" />
    <path
       d="M 7.25,0 A 1.8,1.8 0 0 0 5.45,-1.8"
       fill="none"
       stroke="#000000"
       stroke-width="0.092604"
       id="path22"
       style="stroke-width:0.09260417;stroke-miterlimit:4;stroke-dasharray:none" />
    <path
       d="M 5.45,1.8 A 1.8,1.8 0 0 0 7.25,0"
       fill="none"
       stroke="#000000"
       stroke-width="0.092604"
       id="path24"
       style="stroke-width:0.09260417;stroke-miterlimit:4;stroke-dasharray:none" />
    <path
       d="M 5.45,2 V 1.99874 1.99498 1.98877 1.98019 1.969341 1.956362 1.941417 1.924694 1.906402 1.886772 1.866051 1.844499 1.822388 1.799995"
       fill="none"
       stroke="#000000"
       stroke-width="0.092604"
       id="path26"
       style="stroke-width:0.09260417;stroke-miterlimit:4;stroke-dasharray:none" />
    <path
       d="M -0.55,2 V 1.99874 1.99498 1.98877 1.98019 1.969341 1.956362 1.941417 1.924694 1.906402 1.886772 1.866051 1.844499 1.822388 1.799995"
       fill="none"
       stroke="#000000"
       stroke-width="0.092604"
       id="path28"
       style="stroke-width:0.09260417;stroke-miterlimit:4;stroke-dasharray:none" />
    <path
       d="m -0.55,1.8 h 6"
       fill="none"
       stroke="#000000"
       stroke-width="0.092604"
       id="path30"
       style="stroke-width:0.09260417;stroke-miterlimit:4;stroke-dasharray:none" />
    <path
       d="m -2.35,0 a 1.8,1.8 0 0 0 1.8,1.8"
       fill="none"
       stroke="#000000"
       stroke-width="0.092604"
       id="path32"
       style="stroke-width:0.09260417;stroke-miterlimit:4;stroke-dasharray:none" />
    <path
       d="M -0.55,-1.8 A 1.8,1.8 0 0 0 -2.35,0"
       fill="none"
       stroke="#000000"
       stroke-width="0.092604"
       id="path34"
       style="stroke-width:0.09260417;stroke-miterlimit:4;stroke-dasharray:none" />
    <path
       d="M 7.45,0 H 7.25"
       fill="none"
       stroke="#000000"
       stroke-width="0.092604"
       id="path36"
       style="stroke-width:0.09260417;stroke-miterlimit:4;stroke-dasharray:none" />
    <path
       d="m -2.55,0 h 0.2"
       fill="none"
       stroke="#000000"
       stroke-width="0.092604"
       id="path38"
       style="stroke-width:0.09260417;stroke-miterlimit:4;stroke-dasharray:none" />
    <title
       id="title40">b'Shape2DView'</title>
  </g>
  <g
     id="Rectangle"
     transform="matrix(1,0,0,-1,3.109,2.434)"
     style="stroke-width:0.09260417;stroke-miterlimit:4;stroke-dasharray:none">
    <rect
       id="origin"
       width="1"
       height="1"
       fill="#ff0000"
       x="0"
       y="0"
       style="stroke-width:0.09260417;stroke-miterlimit:4;stroke-dasharray:none" />
    <title
       id="title44">b'Rectangle'</title>
  </g>
</svg>
