<?xml version="1.0" encoding="UTF-8" standalone="no"?>
<svg
   xmlns:dc="http://purl.org/dc/elements/1.1/"
   xmlns:cc="http://creativecommons.org/ns#"
   xmlns:rdf="http://www.w3.org/1999/02/22-rdf-syntax-ns#"
   xmlns:svg="http://www.w3.org/2000/svg"
   xmlns="http://www.w3.org/2000/svg"
   xmlns:sodipodi="http://sodipodi.sourceforge.net/DTD/sodipodi-0.dtd"
   xmlns:inkscape="http://www.inkscape.org/namespaces/inkscape"
   width="2.2434319453541285mm"
   height="9.093988861673612mm"
   viewBox="0 0 2.2434319453541285 9.093988861673612"
   version="1.1"
   id="svg41"
   sodipodi:docname="Crystal_C26-LF_D2.1mm_L6.5mm_Horizontal.svg"
   inkscape:version="1.0.2 (e86c870879, 2021-01-15)">
  <metadata
     id="metadata47">
    <rdf:RDF>
      <cc:Work
         rdf:about="">
        <dc:format>image/svg+xml</dc:format>
        <dc:type
           rdf:resource="http://purl.org/dc/dcmitype/StillImage" />
      </cc:Work>
    </rdf:RDF>
  </metadata>
  <defs
     id="defs45" />
  <sodipodi:namedview
     pagecolor="#ffffff"
     bordercolor="#666666"
     borderopacity="1"
     objecttolerance="10"
     gridtolerance="10"
     guidetolerance="10"
     inkscape:pageopacity="0"
     inkscape:pageshadow="2"
     inkscape:window-width="1366"
     inkscape:window-height="713"
     id="namedview43"
     showgrid="false"
     inkscape:zoom="11.232741"
     inkscape:cx="-23.281337"
     inkscape:cy="19.212842"
     inkscape:window-x="0"
     inkscape:window-y="0"
     inkscape:window-maximized="1"
     inkscape:current-layer="svg41" />
  <path
     id="Shape2DView_nwe0017"
     d="M 0.02388943,1.047851 0.1100796,1.5403663 v 0 l 0.25928485,1.4816277 -10e-9,1e-7 0.30455904,-6e-7 h -1e-8 L 0.40558874,1.4886522 v 0 L 0.31939854,0.99613695 h 3e-8 C 0.28489254,0.79917342 -0.01061703,0.85088747 0.023889,1.047851 Z"
     stroke="#191919"
     stroke-width="0.35 px"
     style="fill:#cccccc;fill-opacity:1;fill-rule:evenodd;stroke-width:0.0926042;stroke-miterlimit:4;stroke-dasharray:none"
     sodipodi:nodetypes="ccccccccccccc" />
  <path
     id="Shape2DView_nwe0030"
     d="m 0.071644,8.821994 v -5.5 0 -0.1 0 -0.2 0 h 0.02632569 0.077657 0.12509425 0.16625877 0.19908636 0.22193095 0.23364698 0.233647 0.2219309 0.1990864 0.1662588 0.1250942 0.077657 0.026326 v 0 0.2 0 0.1 0 5.5 0 c -0.013429,0.1504536 -0.096763,0.2337869 -0.25,0.25 h 0 -0.020058 -0.059167 -0.09531 H 1.6204358 1.468751 1.2996607 1.121644 0.94362725 0.77453701 0.62285216 0.49617881 0.40086891 0.34170167 0.321644 v 0 c -0.15323768,-0.016213 -0.23657101,-0.099546 -0.25,-0.25 z"
     stroke="#191919"
     stroke-width="0.35 px"
     style="fill:#808080;fill-opacity:1;fill-rule:evenodd;stroke-width:0.0926042;stroke-miterlimit:4;stroke-dasharray:none"
     sodipodi:nodetypes="ccccccccccccccccccccccccccccccccccccccccccccccc" />
  <path
     id="Shape2DView_nwe0003"
     d="M 2.2193986,1.047851 C 2.2551474,0.84995696 1.9574754,0.79786367 1.923894,0.996137 l -4.7e-6,-5e-8 -0.08619,0.49251525 v 0 L 1.5693645,3.0219935 v 0 l 0.3045591,6e-7 0,-1e-7 0.2592848,-1.4816277 v 0 l 0.08619,-0.4925153 z"
     stroke="#191919"
     stroke-width="0.35 px"
     style="fill:#cccccc;fill-opacity:1;fill-rule:evenodd;stroke-width:0.0926042;stroke-miterlimit:4;stroke-dasharray:none"
     sodipodi:nodetypes="ccccccccccccc" />
  <path
     id="Shape2DView_nwe0004"
     d="m 1.121644,9.071994 h 0.089572 0.088445 0.086206 0.082884 0.078519 0.073166 0.066894 0.05978 0.051914 0.043396 0.034332 0.024836 0.015027 0.00503"
     stroke="#191919"
     stroke-width="0.35 px"
     style="fill:none;fill-opacity:1;fill-rule:evenodd;stroke-width:0.0926042;stroke-miterlimit:4;stroke-dasharray:none" />
  <path
     id="Shape2DView_nwe0006"
     d="M 0.321644,9.071994 H 0.326674 0.3417014 0.3665371 0.4008687 0.4442644 0.4961786 0.5559584 0.622852 0.6960182 0.7745369 0.8574206 0.9436271 1.0320723 1.121644"
     stroke="#191919"
     stroke-width="0.35 px"
     style="fill:none;fill-opacity:1;fill-rule:evenodd;stroke-width:0.0926042;stroke-miterlimit:4;stroke-dasharray:none" />
  <path
     id="Shape2DView_nwe0010"
     d="m 0.1100796,1.5403663 0.003704,-6.483e-4 0.0109278,-0.00191 0.0176031,-0.00308 0.0233957,-0.00409 0.0280152,-0.0049 0.0312298,-0.00547 0.0328785,-0.00575 0.0328785,-0.00575 0.0312298,-0.00547 0.0280152,-0.0049 0.0233957,-0.00409 0.0176031,-0.00308 0.0109278,-0.00191 0.003705,-6.483e-4"
     stroke="#191919"
     stroke-width="0.35 px"
     style="fill:none;fill-opacity:1;fill-rule:evenodd;stroke-width:0.0926042;stroke-miterlimit:4;stroke-dasharray:none" />
  <path
     id="Shape2DView_nwe0011"
     d="m 1.8376993,1.4886522 0.0037,6.483e-4 0.010928,0.00191 0.017603,0.00308 0.023396,0.00409 0.028015,0.0049 0.03123,0.00546 0.032879,0.00575 0.032879,0.00575 0.03123,0.00547 0.028015,0.0049 0.023396,0.00409 0.017603,0.00308 0.010928,0.00191 0.0037,6.483e-4"
     stroke="#191919"
     stroke-width="0.35 px"
     style="fill:none;fill-opacity:1;fill-rule:evenodd;stroke-width:0.0926042;stroke-miterlimit:4;stroke-dasharray:none" />
  <path
     id="Shape2DView_nwe0012"
     d="M 2.171644,8.821994 H 2.1453183 2.0676613 1.9425671 1.7763083 1.5772219 1.355291 1.121644 0.88799702 0.66606607 0.46697971 0.30072094 0.17562669 0.09796969 0.071644"
     stroke="#191919"
     stroke-width="0.35 px"
     style="fill:none;fill-opacity:1;fill-rule:evenodd;stroke-width:0.0926042;stroke-miterlimit:4;stroke-dasharray:none" />
  <path
     id="Shape2DView_nwe0014"
     d="M 2.171644,3.221994 H 2.145318 2.0676613 1.9425671 1.7763083 1.5772219 1.355291 1.121644 0.88799702 0.66606607 0.46697971 0.30072094 0.17562669 0.09796969 0.071644"
     stroke="#191919"
     stroke-width="0.35 px"
     style="fill:none;fill-opacity:1;fill-rule:evenodd;stroke-width:0.0926042;stroke-miterlimit:4;stroke-dasharray:none" />
  <path
     id="Shape2DView_nwe0015"
     d="M 2.171644,3.321994 H 2.145318 2.0676613 1.9425671 1.7763083 1.5772219 1.355291 1.121644 0.88799702 0.66606607 0.46697971 0.30072094 0.17562669 0.09796969 0.071644"
     stroke="#191919"
     stroke-width="0.35 px"
     style="fill:none;fill-opacity:1;fill-rule:evenodd;stroke-width:0.0926042;stroke-miterlimit:4;stroke-dasharray:none" />
  <g
     id="Rectangle"
     transform="matrix(1,0,0,-1,0.171644,1.021994)"
     style="display:none;stroke-width:0.0926042;stroke-miterlimit:4;stroke-dasharray:none">
    <rect
       fill="#ff0000"
       id="origin"
       width="1"
       height="1"
       x="0"
       y="0"
       style="stroke-width:0.0926042;stroke-miterlimit:4;stroke-dasharray:none" />
    <title
       id="title38">b'Rectangle'</title>
  </g>
</svg>
