<?xml version="1.0" encoding="UTF-8" standalone="no"?>
<svg
   xmlns:dc="http://purl.org/dc/elements/1.1/"
   xmlns:cc="http://creativecommons.org/ns#"
   xmlns:rdf="http://www.w3.org/1999/02/22-rdf-syntax-ns#"
   xmlns:svg="http://www.w3.org/2000/svg"
   xmlns="http://www.w3.org/2000/svg"
   xmlns:sodipodi="http://sodipodi.sourceforge.net/DTD/sodipodi-0.dtd"
   xmlns:inkscape="http://www.inkscape.org/namespaces/inkscape"
   width="11.271mm"
   height="4.871mm"
   viewBox="0 0 11.271 4.871"
   version="1.1"
   id="svg33"
   sodipodi:docname="Crystal_HC49-4H_Vertical.svg"
   inkscape:version="1.0.2 (e86c870879, 2021-01-15)">
  <metadata
     id="metadata39">
    <rdf:RDF>
      <cc:Work
         rdf:about="">
        <dc:format>image/svg+xml</dc:format>
        <dc:type
           rdf:resource="http://purl.org/dc/dcmitype/StillImage" />
      </cc:Work>
    </rdf:RDF>
  </metadata>
  <defs
     id="defs37" />
  <sodipodi:namedview
     pagecolor="#ffffff"
     bordercolor="#666666"
     borderopacity="1"
     objecttolerance="10"
     gridtolerance="10"
     guidetolerance="10"
     inkscape:pageopacity="0"
     inkscape:pageshadow="2"
     inkscape:window-width="1366"
     inkscape:window-height="713"
     id="namedview35"
     showgrid="false"
     inkscape:zoom="6.8487435"
     inkscape:cx="-14.802283"
     inkscape:cy="2.8563044"
     inkscape:window-x="0"
     inkscape:window-y="0"
     inkscape:window-maximized="1"
     inkscape:current-layer="svg33" />
  <g
     id="Shape2DView"
     transform="matrix(1,0,0,-1,3.1955,2.4355)"
     style="stroke-width:0.0926042;stroke-miterlimit:4;stroke-dasharray:none">
    <path
       id="Shape2DView_nwe0003"
       d="m -3.085,0 c 0,-1.284062 1.040938,-2.325 2.325,-2.325 v 0 h 6.4 v 0 c 1.284062,0 2.325,1.040938 2.325,2.325 v 0 c 0,1.284062 -1.040938,2.325 -2.325,2.325 v 0 h -6.4 v 0 C -2.044062,2.325 -3.085,1.284062 -3.085,0 Z"
       stroke="#191919"
       stroke-width="0.35 px"
       style="display:inline;fill:#cecece;fill-opacity:1;fill-rule:evenodd;stroke-width:0.0926042;stroke-miterlimit:4;stroke-dasharray:none"
       sodipodi:nodetypes="ccccccccccccc" />
    <path
       id="Shape2DView_nwe0006"
       d="m 5.44,-2 h -6"
       stroke="#191919"
       stroke-width="0.35 px"
       style="fill:none;fill-opacity:1;fill-rule:evenodd;stroke-width:0.0926042;stroke-miterlimit:4;stroke-dasharray:none" />
    <path
       id="Shape2DView_nwe0007"
       d="m -0.56,2 h 6"
       stroke="#191919"
       stroke-width="0.35 px"
       style="fill:none;fill-opacity:1;fill-rule:evenodd;stroke-width:0.0926042;stroke-miterlimit:4;stroke-dasharray:none" />
    <path
       id="Shape2DView_nwe0008"
       d="m 7.44,0 a 2,2 0 0 0 -2,-2"
       stroke="#191919"
       stroke-width="0.35 px"
       style="fill:none;fill-opacity:1;fill-rule:evenodd;stroke-width:0.0926042;stroke-miterlimit:4;stroke-dasharray:none" />
    <path
       id="Shape2DView_nwe0009"
       d="m 5.44,2 a 2,2 0 0 0 2,-2"
       stroke="#191919"
       stroke-width="0.35 px"
       style="fill:none;fill-opacity:1;fill-rule:evenodd;stroke-width:0.0926042;stroke-miterlimit:4;stroke-dasharray:none" />
    <path
       id="Shape2DView_nwe0010"
       d="m -2.56,0 a 2,2 0 0 0 2,2"
       stroke="#191919"
       stroke-width="0.35 px"
       style="fill:none;fill-opacity:1;fill-rule:evenodd;stroke-width:0.0926042;stroke-miterlimit:4;stroke-dasharray:none" />
    <path
       id="Shape2DView_nwe0011"
       d="m -0.56,-2 a 2,2 0 0 0 -2,2"
       stroke="#191919"
       stroke-width="0.35 px"
       style="fill:none;fill-opacity:1;fill-rule:evenodd;stroke-width:0.0926042;stroke-miterlimit:4;stroke-dasharray:none" />
    <path
       id="Shape2DView_nwe0016"
       d="m 5.44,-2 v 0.00126 0.00376 0.00621 0.00858 0.010849 0.012979 0.014945 0.016723 0.018292 0.01963 0.020721 0.021552 0.022111 0.022393"
       stroke="#191919"
       stroke-width="0.35 px"
       style="fill:none;fill-opacity:1;fill-rule:evenodd;stroke-width:0.0926042;stroke-miterlimit:4;stroke-dasharray:none" />
    <path
       id="Shape2DView_nwe0017"
       d="m 5.44,-1.8 h -6"
       stroke="#191919"
       stroke-width="0.35 px"
       style="fill:none;fill-opacity:1;fill-rule:evenodd;stroke-width:0.0926042;stroke-miterlimit:4;stroke-dasharray:none" />
    <path
       id="Shape2DView_nwe0018"
       d="m -0.56,-2 v 0.00126 0.00376 0.00621 0.00858 0.010849 0.012979 0.014945 0.016723 0.018292 0.01963 0.020721 0.021552 0.022111 V -1.8"
       stroke="#191919"
       stroke-width="0.35 px"
       style="fill:none;fill-opacity:1;fill-rule:evenodd;stroke-width:0.0926042;stroke-miterlimit:4;stroke-dasharray:none" />
    <path
       id="Shape2DView_nwe0019"
       d="M 7.24,0 A 1.8,1.8 0 0 0 5.44,-1.8"
       stroke="#191919"
       stroke-width="0.35 px"
       style="fill:none;fill-opacity:1;fill-rule:evenodd;stroke-width:0.0926042;stroke-miterlimit:4;stroke-dasharray:none" />
    <path
       id="Shape2DView_nwe0020"
       d="M 5.44,1.8 A 1.8,1.8 0 0 0 7.24,0"
       stroke="#191919"
       stroke-width="0.35 px"
       style="fill:none;fill-opacity:1;fill-rule:evenodd;stroke-width:0.0926042;stroke-miterlimit:4;stroke-dasharray:none" />
    <path
       id="Shape2DView_nwe0021"
       d="M 5.44,2 V 1.99874 1.99498 1.98877 1.98019 1.9693448 1.9563663 1.9414214 1.924698 1.9064064 1.8867767 1.8660558 1.8445042 1.8223929 1.8"
       stroke="#191919"
       stroke-width="0.35 px"
       style="fill:none;fill-opacity:1;fill-rule:evenodd;stroke-width:0.0926042;stroke-miterlimit:4;stroke-dasharray:none" />
    <path
       id="Shape2DView_nwe0022"
       d="M -0.56,2 V 1.99874 1.99498 1.98877 1.98019 1.9693448 1.9563663 1.9414214 1.924698 1.9064064 1.8867767 1.8660558 1.8445042 1.8223929 1.8"
       stroke="#191919"
       stroke-width="0.35 px"
       style="fill:none;fill-opacity:1;fill-rule:evenodd;stroke-width:0.0926042;stroke-miterlimit:4;stroke-dasharray:none" />
    <path
       id="Shape2DView_nwe0023"
       d="m -0.56,1.8 h 6"
       stroke="#191919"
       stroke-width="0.35 px"
       style="fill:none;fill-opacity:1;fill-rule:evenodd;stroke-width:0.0926042;stroke-miterlimit:4;stroke-dasharray:none" />
    <path
       id="Shape2DView_nwe0024"
       d="m -2.36,0 a 1.8,1.8 0 0 0 1.8,1.8"
       stroke="#191919"
       stroke-width="0.35 px"
       style="fill:none;fill-opacity:1;fill-rule:evenodd;stroke-width:0.0926042;stroke-miterlimit:4;stroke-dasharray:none" />
    <path
       id="Shape2DView_nwe0025"
       d="M -0.56,-1.8 A 1.8,1.8 0 0 0 -2.36,0"
       stroke="#191919"
       stroke-width="0.35 px"
       style="fill:none;fill-opacity:1;fill-rule:evenodd;stroke-width:0.0926042;stroke-miterlimit:4;stroke-dasharray:none" />
    <path
       id="Shape2DView_nwe0026"
       d="M 7.44,0 H 7.43874 7.43498 7.42877 7.42019 7.4093448 7.3963663 7.3814214 7.364698 7.3464064 7.3267767 7.3060558 7.2845042 7.2623929 7.24"
       stroke="#191919"
       stroke-width="0.35 px"
       style="fill:none;fill-opacity:1;fill-rule:evenodd;stroke-width:0.0926042;stroke-miterlimit:4;stroke-dasharray:none" />
    <path
       id="Shape2DView_nwe0027"
       d="m -2.56,0 h 0.00126 0.00376 0.00621 0.00858 0.010849 0.012979 0.014945 0.016723 0.018292 0.01963 0.020721 0.021552 0.022111 H -2.36"
       stroke="#191919"
       stroke-width="0.35 px"
       style="fill:none;fill-opacity:1;fill-rule:evenodd;stroke-width:0.0926042;stroke-miterlimit:4;stroke-dasharray:none" />
    <title
       id="title26">b'Shape2DView'</title>
  </g>
  <g
     id="Rectangle"
     transform="matrix(1,0,0,-1,3.1955,2.4355)"
     style="stroke-width:0.0926042;stroke-miterlimit:4;stroke-dasharray:none">
    <rect
       fill="#ff0000"
       id="origin"
       width="1"
       height="1"
       x="0"
       y="0"
       style="display:none;stroke-width:0.0926042;stroke-miterlimit:4;stroke-dasharray:none" />
    <title
       id="title30">b'Rectangle'</title>
  </g>
</svg>
