<?xml version="1.0" encoding="UTF-8" standalone="no"?>
<svg
   xmlns:dc="http://purl.org/dc/elements/1.1/"
   xmlns:cc="http://creativecommons.org/ns#"
   xmlns:rdf="http://www.w3.org/1999/02/22-rdf-syntax-ns#"
   xmlns:svg="http://www.w3.org/2000/svg"
   xmlns="http://www.w3.org/2000/svg"
   xmlns:sodipodi="http://sodipodi.sourceforge.net/DTD/sodipodi-0.dtd"
   xmlns:inkscape="http://www.inkscape.org/namespaces/inkscape"
   width="7.140000000000001mm"
   height="2.64mm"
   viewBox="0 0 7.140000000000001 2.64"
   version="1.1"
   id="svg27"
   sodipodi:docname="Resonator-3Pin_W7.0mm_H2.5mm.svg"
   inkscape:version="1.0.2 (e86c870879, 2021-01-15)">
  <metadata
     id="metadata33">
    <rdf:RDF>
      <cc:Work
         rdf:about="">
        <dc:format>image/svg+xml</dc:format>
        <dc:type
           rdf:resource="http://purl.org/dc/dcmitype/StillImage" />
      </cc:Work>
    </rdf:RDF>
  </metadata>
  <defs
     id="defs31" />
  <sodipodi:namedview
     pagecolor="#ffffff"
     bordercolor="#666666"
     borderopacity="1"
     objecttolerance="10"
     gridtolerance="10"
     guidetolerance="10"
     inkscape:pageopacity="0"
     inkscape:pageshadow="2"
     inkscape:window-width="1366"
     inkscape:window-height="713"
     id="namedview29"
     showgrid="false"
     inkscape:zoom="2.7028077"
     inkscape:cx="-74.946039"
     inkscape:cy="14.921927"
     inkscape:window-x="0"
     inkscape:window-y="0"
     inkscape:window-maximized="1"
     inkscape:current-layer="svg27" />
  <path
     id="Shape2DView_nwe0005"
     d="m 5.82,0.07 c 0.6903559,0 1.25,0.55964406 1.25,1.25 v 0 c 0,0.6903559 -0.5596441,1.25 -1.25,1.25 v 0 h -4.5 v 0 C 0.62964406,2.57 0.07,2.0103559 0.07,1.32 v 0 c 0,-0.69035594 0.55964406,-1.25 1.25,-1.25 v 0 z"
     stroke="#191919"
     stroke-width="0.35 px"
     style="fill:#ff8323;fill-opacity:1;fill-rule:evenodd;stroke-width:0.0926042;stroke-miterlimit:4;stroke-dasharray:none"
     sodipodi:nodetypes="ccccccccccccc" />
  <path
     id="Shape2DView_nwe0015"
     d="m 1.32,1.07 h 4.5 v 0 c 0.1380712,0 0.25,0.1119288 0.25,0.25 v 0 c 0,0.1380712 -0.1119288,0.25 -0.25,0.25 v 0 h -4.5 v 0 C 1.1819288,1.57 1.07,1.4580712 1.07,1.32 v 0 c 0,-0.1380712 0.1119288,-0.25 0.25,-0.25 z"
     stroke="#191919"
     stroke-width="0.35 px"
     style="fill:#ff6600;fill-opacity:1;fill-rule:evenodd;stroke-width:0.0926042;stroke-miterlimit:4;stroke-dasharray:none;stroke:#ff6600"
     sodipodi:nodetypes="ccccccccccccc" />
  <g
     id="Rectangle"
     transform="matrix(1,0,0,-1,1.07,1.32)"
     style="display:none;stroke-width:0.0926042;stroke-miterlimit:4;stroke-dasharray:none">
    <rect
       fill="#ff0000"
       id="origin"
       width="1"
       height="1"
       x="0"
       y="0"
       style="stroke-width:0.0926042;stroke-miterlimit:4;stroke-dasharray:none" />
    <title
       id="title24">b'Rectangle'</title>
  </g>
</svg>
