<?xml version="1.0" encoding="UTF-8" standalone="no"?>
<svg
   xmlns:dc="http://purl.org/dc/elements/1.1/"
   xmlns:cc="http://creativecommons.org/ns#"
   xmlns:rdf="http://www.w3.org/1999/02/22-rdf-syntax-ns#"
   xmlns:svg="http://www.w3.org/2000/svg"
   xmlns="http://www.w3.org/2000/svg"
   xmlns:sodipodi="http://sodipodi.sourceforge.net/DTD/sodipodi-0.dtd"
   xmlns:inkscape="http://www.inkscape.org/namespaces/inkscape"
   width="3.2640000000000002mm"
   height="1.739mm"
   viewBox="0 0 3.2640000000000002 1.739"
   version="1.1"
   id="svg63"
   sodipodi:docname="Resonator_SMD_muRata_CSTxExxV-3Pin_3.0x1.1mm.svg"
   inkscape:version="1.0.2 (e86c870879, 2021-01-15)">
  <metadata
     id="metadata69">
    <rdf:RDF>
      <cc:Work
         rdf:about="">
        <dc:format>image/svg+xml</dc:format>
        <dc:type
           rdf:resource="http://purl.org/dc/dcmitype/StillImage" />
      </cc:Work>
    </rdf:RDF>
  </metadata>
  <defs
     id="defs67" />
  <sodipodi:namedview
     pagecolor="#ffffff"
     bordercolor="#666666"
     borderopacity="1"
     objecttolerance="10"
     gridtolerance="10"
     guidetolerance="10"
     inkscape:pageopacity="0"
     inkscape:pageshadow="2"
     inkscape:window-width="1366"
     inkscape:window-height="713"
     id="namedview65"
     showgrid="false"
     inkscape:zoom="22.627417"
     inkscape:cx="-4.4332989"
     inkscape:cy="3.5978052"
     inkscape:window-x="0"
     inkscape:window-y="0"
     inkscape:window-maximized="1"
     inkscape:current-layer="svg63" />
  <path
     style="fill:#666666;stroke:#000000;stroke-width:0.0132292;stroke-linecap:butt;stroke-linejoin:miter;stroke-miterlimit:4;stroke-dasharray:none;stroke-opacity:1"
     d="m 0.182,1.682 h 2.9 v 0 h 0.15 0 v -1.3 0 h -0.15 v -10e-9 h -2.9 l 0,10e-9 h -0.15 v 0 1.3 0 z"
     id="path1041"
     sodipodi:nodetypes="ccccccccccccccccc" />
  <path
     id="Shape2DView_nwe0002"
     d="m 3.082,1.707 v -0.125 0 h -0.5 v 0 0.125 0 z"
     stroke="#191919"
     stroke-width="0.35 px"
     style="fill:#999999;fill-opacity:1;fill-rule:evenodd;stroke-width:0.01322917;stroke-miterlimit:4;stroke-dasharray:none"
     sodipodi:nodetypes="ccccccccc" />
  <path
     id="Shape2DView_nwe0003"
     d="m 3.082,1.582 h -0.5"
     stroke="#191919"
     stroke-width="0.35 px"
     style="fill:none;fill-opacity:1;fill-rule:evenodd;stroke-width:0.01322917;stroke-miterlimit:4;stroke-dasharray:none" />
  <path
     id="Shape2DView_nwe0006"
     d="m 3.082,1.582 h 0.05"
     stroke="#191919"
     stroke-width="0.35 px"
     style="fill:none;fill-opacity:1;fill-rule:evenodd;stroke-width:0.01322917;stroke-miterlimit:4;stroke-dasharray:none" />
  <path
     id="Shape2DView_nwe0007"
     d="m 1.882,1.582 h 0.7"
     stroke="#191919"
     stroke-width="0.35 px"
     style="fill:none;fill-opacity:1;fill-rule:evenodd;stroke-width:0.01322917;stroke-miterlimit:4;stroke-dasharray:none" />
  <path
     id="Shape2DView_nwe0009"
     d="m 0.682,1.582 h 0.7"
     stroke="#191919"
     stroke-width="0.35 px"
     style="fill:none;fill-opacity:1;fill-rule:evenodd;stroke-width:0.01322917;stroke-miterlimit:4;stroke-dasharray:none" />
  <path
     id="Shape2DView_nwe0011"
     d="m 1.882,1.682 h 0.7"
     stroke="#191919"
     stroke-width="0.35 px"
     style="fill:none;fill-opacity:1;fill-rule:evenodd;stroke-width:0.01322917;stroke-miterlimit:4;stroke-dasharray:none" />
  <path
     id="Shape2DView_nwe0015"
     d="M 3.132,0.482 H 3.082"
     stroke="#191919"
     stroke-width="0.35 px"
     style="fill:none;fill-opacity:1;fill-rule:evenodd;stroke-width:0.01322917;stroke-miterlimit:4;stroke-dasharray:none" />
  <path
     id="Shape2DView_nwe0021"
     d="M 0.182,0.482 H 0.132"
     stroke="#191919"
     stroke-width="0.35 px"
     style="fill:none;fill-opacity:1;fill-rule:evenodd;stroke-width:0.01322917;stroke-miterlimit:4;stroke-dasharray:none" />
  <path
     id="Shape2DView_nwe0025"
     d="m 0.682,1.682 h 0.7"
     stroke="#191919"
     stroke-width="0.35 px"
     style="fill:none;fill-opacity:1;fill-rule:evenodd;stroke-width:0.01322917;stroke-miterlimit:4;stroke-dasharray:none" />
  <path
     id="Shape2DView_nwe0030"
     d="m 3.132,1.582 -4.491e-4,-4.491e-4 -0.00134,-0.00134 -0.00222,-0.00222 -0.00307,-0.00307 -0.00387,-0.00387 -0.00464,-0.00464 -0.00534,-0.00534 -0.00597,-0.00597 -0.00653,-0.00653 -0.00701,-0.00701 -0.0074,-0.0074 -0.0077,-0.0077 -0.0079,-0.0079 -0.008,-0.008"
     stroke="#191919"
     stroke-width="0.35 px"
     style="fill:none;fill-opacity:1;fill-rule:evenodd;stroke-width:0.01322917;stroke-miterlimit:4;stroke-dasharray:none" />
  <path
     id="Shape2DView_nwe0031"
     d="m 0.132,1.582 4.491e-4,-4.491e-4 0.00134,-0.00134 0.00222,-0.00222 0.00307,-0.00307 0.00387,-0.00387 0.00464,-0.00464 0.00534,-0.00534 0.00597,-0.00597 0.00653,-0.00653 0.00701,-0.00701 0.0074,-0.0074 0.0077,-0.0077 0.0079,-0.0079 0.008,-0.008"
     stroke="#191919"
     stroke-width="0.35 px"
     style="fill:none;fill-opacity:1;fill-rule:evenodd;stroke-width:0.01322917;stroke-miterlimit:4;stroke-dasharray:none" />
  <path
     id="Shape2DView_nwe0033"
     d="m 3.132,0.482 h -3 v 0 1.1 0 h 3 v 0 z"
     stroke="#191919"
     stroke-width="0.35 px"
     style="fill:#b3b3b3;fill-opacity:1;fill-rule:evenodd;stroke-width:0.01322917;stroke-miterlimit:4;stroke-dasharray:none"
     sodipodi:nodetypes="ccccccccc" />
  <path
     id="Shape2DView_nwe0035"
     d="m 1.382,0.482 h -0.7"
     stroke="#191919"
     stroke-width="0.35 px"
     style="fill:none;fill-opacity:1;fill-rule:evenodd;stroke-width:0.01322917;stroke-miterlimit:4;stroke-dasharray:none" />
  <path
     id="Shape2DView_nwe0037"
     d="m 2.582,0.482 h -0.7"
     stroke="#191919"
     stroke-width="0.35 px"
     style="fill:none;fill-opacity:1;fill-rule:evenodd;stroke-width:0.01322917;stroke-miterlimit:4;stroke-dasharray:none" />
  <path
     id="Shape2DView_nwe0041"
     d="m 3.132,0.482 -4.491e-4,4.4913e-4 -0.00134,0.001342 -0.00222,0.002217 -0.00307,0.003065 -0.00387,0.003875 -0.00464,0.004635 -0.00534,0.005337 -0.00597,0.005973 -0.00653,0.006533 -0.00701,0.007011 -0.0074,0.0074 -0.0077,0.007697 -0.0079,0.007897 -0.008,0.007997"
     stroke="#191919"
     stroke-width="0.35 px"
     style="fill:none;fill-opacity:1;fill-rule:evenodd;stroke-width:0.01322917;stroke-miterlimit:4;stroke-dasharray:none" />
  <path
     id="Shape2DView_nwe0042"
     d="m 0.132,0.482 4.491e-4,4.4913e-4 0.00134,0.001342 0.00222,0.002217 0.00307,0.003065 0.00387,0.003875 0.00464,0.004635 0.00534,0.005337 0.00597,0.005973 0.00653,0.006533 0.00701,0.007011 0.0074,0.0074 0.0077,0.007697 0.0079,0.007897 0.008,0.007997"
     stroke="#191919"
     stroke-width="0.35 px"
     style="fill:none;fill-opacity:1;fill-rule:evenodd;stroke-width:0.01322917;stroke-miterlimit:4;stroke-dasharray:none" />
  <path
     id="Shape2DView_nwe0045"
     d="m 2.582,0.382 h -0.7"
     stroke="#191919"
     stroke-width="0.35 px"
     style="fill:none;fill-opacity:1;fill-rule:evenodd;stroke-width:0.01322917;stroke-miterlimit:4;stroke-dasharray:none" />
  <path
     id="Shape2DView_nwe0049"
     d="m 1.382,0.382 h -0.7"
     stroke="#191919"
     stroke-width="0.35 px"
     style="fill:none;fill-opacity:1;fill-rule:evenodd;stroke-width:0.01322917;stroke-miterlimit:4;stroke-dasharray:none" />
  <path
     id="Shape2DView_nwe0052"
     d="M 0.2034286,1.5105714 H 3.0605714"
     stroke="#191919"
     stroke-width="0.35 px"
     style="fill:none;fill-opacity:1;fill-rule:evenodd;stroke-width:0.01322917;stroke-miterlimit:4;stroke-dasharray:none" />
  <path
     id="Shape2DView_nwe0053"
     d="M 3.0605714,1.5105714 V 0.55342857"
     stroke="#191919"
     stroke-width="0.35 px"
     style="fill:none;fill-opacity:1;fill-rule:evenodd;stroke-width:0.01322917;stroke-miterlimit:4;stroke-dasharray:none" />
  <path
     id="Shape2DView_nwe0054"
     d="M 0.2034286,0.55342857 V 1.5105714"
     stroke="#191919"
     stroke-width="0.35 px"
     style="fill:none;fill-opacity:1;fill-rule:evenodd;stroke-width:0.01322917;stroke-miterlimit:4;stroke-dasharray:none" />
  <path
     id="Shape2DView_nwe0055"
     d="M 3.0605714,0.55342857 H 0.2034286"
     stroke="#191919"
     stroke-width="0.35 px"
     style="fill:none;fill-opacity:1;fill-rule:evenodd;stroke-width:0.01322917;stroke-miterlimit:4;stroke-dasharray:none" />
  <g
     id="Rectangle"
     transform="matrix(1,0,0,-1,1.632,1.032)"
     style="display:none">
    <rect
       fill="#ff0000"
       id="origin"
       width="1"
       height="1"
       x="0"
       y="0" />
    <title
       id="title60">b'Rectangle'</title>
  </g>
  <path
     id="Shape2DView_nwe0002-6"
     d="m 1.882,1.707 v -0.125 0 h -0.5 v 0 0.125 0 z"
     stroke="#191919"
     stroke-width="0.35 px"
     style="fill:#999999;fill-opacity:1;fill-rule:evenodd;stroke-width:0.01322917;stroke-miterlimit:4;stroke-dasharray:none"
     sodipodi:nodetypes="ccccccccc" />
  <path
     id="Shape2DView_nwe0002-7"
     d="m 0.682,1.707 v -0.125 0 h -0.5 v 0 0.125 0 z"
     stroke="#191919"
     stroke-width="0.35 px"
     style="fill:#999999;fill-opacity:1;fill-rule:evenodd;stroke-width:0.01322917;stroke-miterlimit:4;stroke-dasharray:none"
     sodipodi:nodetypes="ccccccccc" />
  <path
     id="Shape2DView_nwe0002-5"
     d="m 0.682,0.482 v -0.125 0 h -0.5 v 0 0.125 0 z"
     stroke="#191919"
     stroke-width="0.35 px"
     style="fill:#999999;fill-opacity:1;fill-rule:evenodd;stroke-width:0.01322917;stroke-miterlimit:4;stroke-dasharray:none"
     sodipodi:nodetypes="ccccccccc" />
  <path
     id="Shape2DView_nwe0002-3"
     d="m 1.882,0.482 v -0.125 0 h -0.5 v 0 0.125 0 z"
     stroke="#191919"
     stroke-width="0.35 px"
     style="fill:#999999;fill-opacity:1;fill-rule:evenodd;stroke-width:0.01322917;stroke-miterlimit:4;stroke-dasharray:none"
     sodipodi:nodetypes="ccccccccc" />
  <path
     id="Shape2DView_nwe0002-56"
     d="m 3.082,0.482 v -0.125 0 h -0.5 v 0 0.125 0 z"
     stroke="#191919"
     stroke-width="0.35 px"
     style="fill:#999999;fill-opacity:1;fill-rule:evenodd;stroke-width:0.01322917;stroke-miterlimit:4;stroke-dasharray:none"
     sodipodi:nodetypes="ccccccccc" />
</svg>
